<svg width="35" height="35" viewBox="0 0 35 35" fill="none" xmlns="http://www.w3.org/2000/svg">
<g clip-path="url(#clip0)">
<path d="M21.1181 24.332H13.8819C10.7586 24.332 8.21753 26.8731 8.21753 29.9964V34.4873C8.21753 34.7705 8.44708 35 8.73022 35H26.2697C26.5529 35 26.7824 34.7705 26.7824 34.4873V29.9965C26.7824 26.8731 24.2414 24.332 21.1181 24.332Z" fill="#468466"/>
<path d="M21.1181 24.332H19.2496C22.373 24.332 24.914 26.8731 24.914 29.9964V34.4873C24.914 34.7705 24.6845 35 24.4013 35H26.2697C26.5529 35 26.7824 34.7705 26.7824 34.4873V29.9965C26.7824 26.8731 24.2414 24.332 21.1181 24.332Z" fill="#346349"/>
<path d="M20.3779 18.3019V24.8199L17.5 30.4199L14.6221 24.8199V18.3019H20.3779Z" fill="#FA9E3E"/>
<path d="M19.9768 25.6006C18.3252 26.6485 16.6741 26.649 15.0233 25.6006L17.5 30.4199L19.9768 25.6006Z" fill="#049B64"/>
<path d="M8.60227 15.1067H11.9771V18.9765H8.60227C7.53368 18.9765 6.66736 18.1102 6.66736 17.0416C6.66736 15.973 7.53361 15.1067 8.60227 15.1067Z" fill="#FA9E3E"/>
<path d="M26.3978 15.1067H23.0229V18.9765H26.3978C27.4664 18.9765 28.3327 18.1102 28.3327 17.0416C28.3327 15.973 27.4664 15.1067 26.3978 15.1067Z" fill="#FA9E3E"/>
<path d="M25.1641 7.50452H9.83594C9.55279 7.50452 9.32324 7.734 9.32324 8.01721V15.7688C9.32324 20.2774 12.9913 23.9455 17.5001 23.9455C22.0087 23.9455 25.6768 20.2774 25.6768 15.7688V8.01721C25.6768 7.73407 25.4473 7.50452 25.1641 7.50452Z" fill="#FFB56B"/>
<path d="M25.1641 7.50452H23.3687C23.6198 7.50452 23.8233 7.734 23.8233 8.01721V15.7688C23.8233 20.1124 20.8044 23.6754 17.0088 23.9303C17.1713 23.94 17.3351 23.9455 17.5 23.9455C22.0087 23.9455 25.6768 20.2774 25.6768 15.7688V8.01721C25.6768 7.73407 25.4473 7.50452 25.1641 7.50452Z" fill="#EF9245"/>
<path d="M21.2135 15.9252C20.9304 15.9252 20.7008 15.6957 20.7008 15.4125V15.2758C20.7008 14.9925 20.9304 14.7631 21.2135 14.7631C21.4967 14.7631 21.7262 14.9925 21.7262 15.2758V15.4125C21.7262 15.6957 21.4967 15.9252 21.2135 15.9252Z" fill="#19303F"/>
<path d="M13.7865 15.9252C13.5034 15.9252 13.2738 15.6957 13.2738 15.4125V15.2758C13.2738 14.9925 13.5034 14.7631 13.7865 14.7631C14.0696 14.7631 14.2992 14.9925 14.2992 15.2758V15.4125C14.2992 15.6957 14.0696 15.9252 13.7865 15.9252Z" fill="#19303F"/>
<path d="M17.5 19.7206C16.5775 19.7206 15.7129 19.2672 15.1872 18.508C15.026 18.2752 15.084 17.9558 15.3169 17.7946C15.5496 17.6335 15.8691 17.6915 16.0302 17.9243C16.3645 18.4071 16.9139 18.6952 17.5 18.6952C18.086 18.6952 18.6354 18.407 18.9698 17.9243C19.131 17.6916 19.4503 17.6333 19.6831 17.7946C19.9159 17.9558 19.974 18.2752 19.8128 18.508C19.287 19.2673 18.4224 19.7206 17.5 19.7206Z" fill="#19303F"/>
<path d="M29.9685 19.3564L29.4727 12.889C29.4664 12.8073 29.4406 12.7282 29.3975 12.6586L28.0153 10.4234L27.8638 7.5572C27.64 3.31953 24.1405 0 19.8969 0H15.1029C10.8593 0 7.35987 3.31953 7.13599 7.5572L6.98458 10.4234L5.60235 12.6586C5.55928 12.7283 5.53351 12.8073 5.52722 12.889L5.03141 19.3564C5.02048 19.4988 5.06949 19.6393 5.16649 19.744C5.26349 19.8488 5.39987 19.9083 5.5426 19.9083H6.84588C7.04426 19.9083 7.22486 19.7938 7.30956 19.6144L9.69831 14.5517L12.2662 13.13H22.7338L25.3016 14.5518L27.6904 19.6144C27.7751 19.7938 27.9557 19.9083 28.154 19.9083H29.4572C29.6 19.9083 29.7364 19.8488 29.8334 19.744C29.9305 19.6393 29.9794 19.4988 29.9685 19.3564Z" fill="#468466"/>
<path d="M29.9685 19.3564L29.4727 12.889C29.4664 12.8073 29.4406 12.7282 29.3975 12.6586L28.0153 10.4234L27.8638 7.5572C27.6401 3.31953 24.1405 0 19.8969 0H18.2595C22.5031 0 26.0027 3.31953 26.2265 7.5572L26.3779 10.4234L27.7602 12.6586C27.8033 12.7283 27.8291 12.8073 27.8354 12.889L28.3312 19.3564C28.342 19.4988 28.2931 19.6393 28.196 19.744C28.1383 19.8063 28.0666 19.8522 27.9879 19.8795C28.0407 19.8976 28.0964 19.9084 28.1541 19.9084H29.4573C29.6001 19.9084 29.7364 19.8488 29.8334 19.7441C29.9305 19.6393 29.9794 19.4988 29.9685 19.3564Z" fill="#346349"/>
<rect x="25.3442" y="29.856" width="0.922852" height="1.53809" fill="white" stroke="#0047FF" stroke-width="0.922852"/>
<ellipse cx="25.8057" cy="30.6592" rx="0.375977" ry="0.649414" fill="#0047FF"/>
<path d="M25.4639 30.6557C25.4639 30.5566 25.5049 30.4199 25.6689 30.4199C25.833 30.4199 25.8398 30.5566 25.8398 30.6592C25.8398 30.7617 25.874 30.8643 26.0107 30.8643C26.1005 30.8643 26.1475 30.7924 26.1475 30.6557" stroke="#FF4242"/>
<path d="M25.4639 30.6592C25.4639 30.4655 25.5268 30.0098 25.8057 30.0098C26.0791 30.0098 26.1475 30.4427 26.1475 30.6934" stroke="#FF4242"/>
</g>
<defs>
<clipPath id="clip0">
<rect width="35" height="35" fill="white"/>
</clipPath>
</defs>
</svg>
