<svg width="141" height="141" viewBox="0 0 141 141" fill="none" xmlns="http://www.w3.org/2000/svg">
<g clip-path="url(#clip0)">
<path d="M85.0757 98.0233H55.9243C43.3417 98.0233 33.1049 108.26 33.1049 120.843V138.935C33.1049 140.075 34.0296 141 35.1703 141H105.829C106.97 141 107.895 140.075 107.895 138.935V120.843C107.895 108.26 97.6581 98.0233 85.0757 98.0233Z" fill="#468466"/>
<path d="M85.0758 98.0233H77.5486C90.1312 98.0233 100.368 108.26 100.368 120.843V138.935C100.368 140.075 99.4432 141 98.3023 141H105.83C106.97 141 107.895 140.075 107.895 138.935V120.843C107.895 108.26 97.6582 98.0233 85.0758 98.0233Z" fill="#346349"/>
<path d="M82.094 73.7303V99.9888L70.5001 122.549L58.9061 99.9888V73.7303H82.094Z" fill="#FA9E3E"/>
<path d="M80.4778 103.134C73.8244 107.356 67.1726 107.357 60.5225 103.134L70.5001 122.549L80.4778 103.134Z" fill="#049B64"/>
<path d="M34.6549 60.8584H48.2507V76.4483H34.6549C30.35 76.4483 26.86 72.9583 26.86 68.6533C26.86 64.3484 30.3497 60.8584 34.6549 60.8584Z" fill="#FA9E3E"/>
<path d="M106.345 60.8584H92.7496V76.4483H106.345C110.65 76.4483 114.14 72.9583 114.14 68.6533C114.14 64.3484 110.65 60.8584 106.345 60.8584Z" fill="#FA9E3E"/>
<path d="M101.375 30.2325H39.6248C38.4841 30.2325 37.5593 31.157 37.5593 32.298V63.5256C37.5593 81.689 52.3365 96.4662 70.5002 96.4662C88.6636 96.4662 103.441 81.689 103.441 63.5256V32.298C103.441 31.1573 102.516 30.2325 101.375 30.2325Z" fill="#FFB56B"/>
<path d="M101.375 30.2325H94.1424C95.1539 30.2325 95.9737 31.157 95.9737 32.298V63.5256C95.9737 81.0245 83.8119 95.3781 68.5211 96.405C69.176 96.4441 69.8356 96.4662 70.5001 96.4662C88.6635 96.4662 103.441 81.689 103.441 63.5256V32.298C103.441 31.1573 102.516 30.2325 101.375 30.2325Z" fill="#EF9245"/>
<path d="M85.4601 64.1556C84.3194 64.1556 83.3947 63.2312 83.3947 62.0902V61.5394C83.3947 60.3985 84.3194 59.474 85.4601 59.474C86.601 59.474 87.5255 60.3985 87.5255 61.5394V62.0902C87.5255 63.2312 86.601 64.1556 85.4601 64.1556Z" fill="#19303F"/>
<path d="M55.5399 64.1556C54.3992 64.1556 53.4745 63.2312 53.4745 62.0902V61.5394C53.4745 60.3985 54.3992 59.474 55.5399 59.474C56.6806 59.474 57.6053 60.3985 57.6053 61.5394V62.0902C57.6053 63.2312 56.6806 64.1556 55.5399 64.1556Z" fill="#19303F"/>
<path d="M70.5 79.4458C66.7839 79.4458 63.3007 77.6194 61.1827 74.5606C60.5333 73.6229 60.7671 72.336 61.7051 71.6869C62.6428 71.0376 63.93 71.2714 64.5788 72.2091C65.9255 74.1541 68.1388 75.3149 70.5 75.3149C72.8609 75.3149 75.0743 74.1539 76.4212 72.2091C77.0706 71.2716 78.3569 71.037 79.2949 71.6869C80.2326 72.3363 80.4667 73.6229 79.8173 74.5606C77.699 77.6197 74.2161 79.4458 70.5 79.4458Z" fill="#19303F"/>
<path d="M120.73 77.9788L118.733 51.9244C118.707 51.5953 118.604 51.2766 118.43 50.996L112.861 41.9913L112.251 30.4447C111.35 13.373 97.2518 0 80.1561 0H60.8432C43.7475 0 29.6497 13.373 28.7478 30.4447L28.1378 41.9913L22.5694 50.996C22.3959 51.2769 22.2921 51.5953 22.2668 51.9244L20.2694 77.9788C20.2253 78.5524 20.4228 79.1183 20.8135 79.5402C21.2043 79.9621 21.7537 80.202 22.3287 80.202H27.5791C28.3783 80.202 29.1058 79.7407 29.447 79.0178L39.0703 58.6227L49.4151 52.8951H91.5848L101.929 58.623L111.553 79.0178C111.894 79.7407 112.621 80.202 113.421 80.202H118.671C119.246 80.202 119.795 79.9621 120.186 79.5402C120.577 79.1183 120.774 78.5524 120.73 77.9788Z" fill="#468466"/>
<path d="M120.73 77.9788L118.733 51.9244C118.708 51.5953 118.604 51.2766 118.43 50.996L112.862 41.9913L112.251 30.4447C111.35 13.373 97.2519 0 80.1562 0H73.5598C90.6555 0 104.754 13.373 105.655 30.4447L106.265 41.9913L111.834 50.996C112.008 51.2769 112.111 51.5953 112.137 51.9244L114.134 77.9788C114.178 78.5524 113.981 79.1183 113.59 79.5402C113.357 79.7911 113.068 79.9759 112.751 80.0861C112.964 80.159 113.188 80.2023 113.421 80.2023H118.671C119.246 80.2023 119.795 79.9624 120.186 79.5405C120.577 79.1183 120.774 78.5524 120.73 77.9788Z" fill="#346349"/>
<rect x="100.742" y="118.918" width="6.43555" height="8.91406" fill="white" stroke="#0047FF"/>
<ellipse cx="103.96" cy="123.513" rx="1.51465" ry="2.61621" fill="#0047FF"/>
<path d="M102.583 123.499C102.583 123.1 102.748 122.549 103.409 122.549C104.07 122.549 104.098 123.1 104.098 123.513C104.098 123.926 104.235 124.339 104.786 124.339C105.148 124.339 105.337 124.049 105.337 123.499" stroke="#FF4242"/>
<path d="M102.583 123.513C102.583 122.732 102.837 120.896 103.96 120.896C105.062 120.896 105.337 122.641 105.337 123.65" stroke="#FF4242"/>
</g>
<defs>
<clipPath id="clip0">
<rect width="141" height="141" fill="white"/>
</clipPath>
</defs>
</svg>
