<svg width="22" height="22" viewBox="0 0 22 22" fill="none" xmlns="http://www.w3.org/2000/svg">
<path d="M18.3047 0.300415H3.69531C3.12577 0.300415 2.66406 0.762121 2.66406 1.33166V20.6671C2.66406 21.2366 3.12577 21.6983 3.69531 21.6983H18.3047C18.8742 21.6983 19.3359 21.2366 19.3359 20.6671V1.33166C19.3359 0.762121 18.8742 0.300415 18.3047 0.300415Z" fill="#704C55"/>
<path d="M4.38281 2.01917H17.6172V5.80076H4.38281V2.01917Z" fill="#E2E2E7"/>
<path d="M9.36731 17.0625H12.6326V19.9797H9.36731V17.0625Z" fill="#9B786F"/>
<path d="M4.38281 17.0625H7.65342V19.9797H4.38281V17.0625Z" fill="#9B786F"/>
<path d="M9.36731 12.2918H12.6326V15.209H9.36731V12.2918Z" fill="#9B786F"/>
<path d="M4.38281 12.2918H7.65342V15.209H4.38281V12.2918Z" fill="#9B786F"/>
<path d="M14.3466 12.2918H17.6172V19.9798H14.3466V12.2918Z" fill="#FED843"/>
<path d="M9.36731 7.5209H12.6326V10.4381H9.36731V7.5209Z" fill="#9B786F"/>
<path d="M4.38281 7.5209H7.65342V10.4381H4.38281V7.5209Z" fill="#9B786F"/>
<path d="M14.3466 7.5209H17.6172V10.4381H14.3466V7.5209Z" fill="#9B786F"/>
<path d="M18.3047 0H3.69531C3.34216 0.000409398 3.00359 0.140879 2.75388 0.390595C2.50416 0.640311 2.36369 0.97888 2.36328 1.33203V20.668C2.36369 21.0211 2.50416 21.3597 2.75388 21.6094C3.00359 21.8591 3.34216 21.9996 3.69531 22H18.3047C18.6578 21.9996 18.9964 21.8591 19.2461 21.6094C19.4958 21.3597 19.6363 21.0211 19.6367 20.668V1.33169C19.6362 0.978596 19.4957 0.640115 19.246 0.390473C18.9963 0.140832 18.6578 0.000409212 18.3047 0V0ZM19.0352 20.6676C19.035 20.8613 18.958 21.047 18.821 21.1839C18.6841 21.3209 18.4984 21.3979 18.3047 21.3981H3.69531C3.50164 21.3979 3.31594 21.3209 3.17899 21.1839C3.04204 21.047 2.96503 20.8613 2.96484 20.6676V1.33169C2.96512 1.13807 3.04218 0.952467 3.17912 0.815591C3.31606 0.678715 3.5017 0.601744 3.69531 0.601562H18.3047C18.4984 0.601745 18.6841 0.678763 18.821 0.815713C18.958 0.952663 19.035 1.13835 19.0352 1.33203V20.6676Z" fill="black"/>
<path d="M17.6172 1.71875H13.3418C13.262 1.71875 13.1855 1.75044 13.1291 1.80685C13.0727 1.86325 13.041 1.93976 13.041 2.01953C13.041 2.0993 13.0727 2.17581 13.1291 2.23222C13.1855 2.28862 13.262 2.32031 13.3418 2.32031H17.3164V5.5H4.68359V2.32031H6.0182C6.09798 2.32031 6.17448 2.28862 6.23089 2.23222C6.2873 2.17581 6.31898 2.0993 6.31898 2.01953C6.31898 1.93976 6.2873 1.86325 6.23089 1.80685C6.17448 1.75044 6.09798 1.71875 6.0182 1.71875H4.38281C4.34331 1.71873 4.30418 1.72649 4.26768 1.7416C4.23118 1.75671 4.19801 1.77886 4.17008 1.8068C4.14214 1.83473 4.11999 1.8679 4.10488 1.9044C4.08977 1.9409 4.08201 1.98003 4.08203 2.01953V5.80078C4.08201 5.84029 4.08977 5.87941 4.10488 5.91591C4.11999 5.95241 4.14214 5.98558 4.17008 6.01352C4.19801 6.04145 4.23118 6.06361 4.26768 6.07871C4.30418 6.09382 4.34331 6.10158 4.38281 6.10156H17.6172C17.6567 6.10158 17.6958 6.09382 17.7323 6.07871C17.7688 6.06361 17.802 6.04145 17.8299 6.01352C17.8579 5.98558 17.88 5.95241 17.8951 5.91591C17.9102 5.87941 17.918 5.84029 17.918 5.80078V2.01953C17.918 1.98003 17.9102 1.9409 17.8951 1.9044C17.88 1.8679 17.8579 1.83473 17.8299 1.8068C17.802 1.77886 17.7688 1.75671 17.7323 1.7416C17.6958 1.72649 17.6567 1.71873 17.6172 1.71875Z" fill="black"/>
<path d="M9.02594 2.32031H10.3339C10.4137 2.32031 10.4902 2.28862 10.5466 2.23222C10.603 2.17581 10.6347 2.0993 10.6347 2.01953C10.6347 1.93976 10.603 1.86325 10.5466 1.80685C10.4902 1.75044 10.4137 1.71875 10.3339 1.71875H9.02594C8.94617 1.71875 8.86966 1.75044 8.81326 1.80685C8.75685 1.86325 8.72516 1.93976 8.72516 2.01953C8.72516 2.0993 8.75685 2.17581 8.81326 2.23222C8.86966 2.28862 8.94617 2.32031 9.02594 2.32031Z" fill="black"/>
<path d="M12.6328 16.7617H9.36719C9.28742 16.7617 9.21091 16.7934 9.1545 16.8498C9.0981 16.9062 9.06641 16.9827 9.06641 17.0625V19.9797C9.06629 20.0193 9.07399 20.0585 9.08906 20.0951C9.10413 20.1317 9.12627 20.1649 9.15421 20.1929C9.18215 20.2209 9.21535 20.2431 9.2519 20.2583C9.28845 20.2734 9.32763 20.2812 9.36719 20.2812H12.6328C12.6723 20.2812 12.7114 20.2735 12.7479 20.2584C12.7844 20.2432 12.8176 20.2211 12.8455 20.1932C12.8735 20.1652 12.8956 20.1321 12.9107 20.0956C12.9259 20.0591 12.9336 20.0199 12.9336 19.9804V17.0625C12.9336 16.9827 12.9019 16.9062 12.8455 16.8498C12.7891 16.7934 12.7126 16.7617 12.6328 16.7617ZM12.3319 19.6796H9.6678V17.3633H12.3319V19.6796Z" fill="black"/>
<path d="M7.65342 16.7617H4.38281C4.30304 16.7617 4.22654 16.7934 4.17013 16.8498C4.11372 16.9062 4.08203 16.9827 4.08203 17.0625V19.9797C4.08192 20.0193 4.08962 20.0585 4.10468 20.0951C4.11975 20.1317 4.14189 20.1649 4.16984 20.1929C4.19778 20.2209 4.23098 20.2431 4.26752 20.2583C4.30407 20.2734 4.34325 20.2812 4.38281 20.2812H7.65342C7.69293 20.2812 7.73205 20.2735 7.76855 20.2584C7.80506 20.2432 7.83822 20.2211 7.86616 20.1932C7.89409 20.1652 7.91625 20.1321 7.93136 20.0956C7.94646 20.0591 7.95423 20.0199 7.9542 19.9804V17.0625C7.9542 16.9827 7.92252 16.9062 7.86611 16.8498C7.8097 16.7934 7.7332 16.7617 7.65342 16.7617ZM7.35264 19.6796H4.6836V17.3633H7.35264V19.6796Z" fill="black"/>
<path d="M12.6328 11.9911H9.36719C9.32768 11.991 9.28856 11.9988 9.25206 12.0139C9.21555 12.029 9.18239 12.0512 9.15445 12.0791C9.12652 12.107 9.10436 12.1402 9.08926 12.1767C9.07415 12.2132 9.06638 12.2523 9.06641 12.2918V15.2089C9.06638 15.2484 9.07415 15.2875 9.08926 15.324C9.10436 15.3605 9.12652 15.3937 9.15445 15.4216C9.18239 15.4496 9.21555 15.4717 9.25206 15.4868C9.28856 15.5019 9.32768 15.5097 9.36719 15.5097H12.6328C12.6723 15.5097 12.7114 15.5019 12.7479 15.4868C12.7844 15.4717 12.8176 15.4496 12.8455 15.4216C12.8735 15.3937 12.8956 15.3605 12.9107 15.324C12.9259 15.2875 12.9336 15.2484 12.9336 15.2089V12.2918C12.9336 12.2523 12.9259 12.2132 12.9107 12.1767C12.8956 12.1402 12.8735 12.107 12.8455 12.0791C12.8176 12.0512 12.7844 12.029 12.7479 12.0139C12.7114 11.9988 12.6723 11.991 12.6328 11.9911ZM12.332 14.9081H9.66797V12.5926H12.332V14.9081Z" fill="black"/>
<path d="M7.65342 11.9911H4.38281C4.34331 11.991 4.30418 11.9988 4.26768 12.0139C4.23118 12.029 4.19801 12.0512 4.17008 12.0791C4.14214 12.107 4.11999 12.1402 4.10488 12.1767C4.08977 12.2132 4.08201 12.2523 4.08203 12.2918V15.2089C4.08201 15.2484 4.08977 15.2875 4.10488 15.324C4.11999 15.3605 4.14214 15.3937 4.17008 15.4216C4.19801 15.4496 4.23118 15.4717 4.26768 15.4868C4.30418 15.5019 4.34331 15.5097 4.38281 15.5097H7.65342C7.69293 15.5097 7.73205 15.5019 7.76855 15.4868C7.80506 15.4717 7.83822 15.4496 7.86616 15.4216C7.89409 15.3937 7.91625 15.3605 7.93135 15.324C7.94646 15.2875 7.95423 15.2484 7.9542 15.2089V12.2918C7.95423 12.2523 7.94646 12.2132 7.93135 12.1767C7.91625 12.1402 7.89409 12.107 7.86616 12.0791C7.83822 12.0512 7.80506 12.029 7.76855 12.0139C7.73205 11.9988 7.69293 11.991 7.65342 11.9911ZM7.35264 14.9081H4.68359V12.5926H7.35264V14.9081Z" fill="black"/>
<path d="M17.6172 13.9434C17.5777 13.9434 17.5385 13.9511 17.502 13.9662C17.4655 13.9813 17.4324 14.0035 17.4044 14.0314C17.3765 14.0594 17.3543 14.0925 17.3392 14.129C17.3241 14.1655 17.3164 14.2047 17.3164 14.2442V19.6797H14.6473V12.5926H15.9818C16.0615 12.5926 16.1381 12.5609 16.1945 12.5045C16.2509 12.4481 16.2826 12.3716 16.2826 12.2918C16.2826 12.2121 16.2509 12.1356 16.1945 12.0792C16.1381 12.0227 16.0615 11.9911 15.9818 11.9911H14.3466C14.3071 11.991 14.2679 11.9988 14.2314 12.0139C14.1949 12.029 14.1618 12.0512 14.1338 12.0791C14.1059 12.107 14.0837 12.1402 14.0686 12.1767C14.0535 12.2132 14.0458 12.2523 14.0458 12.2918V19.9798C14.0458 20.0193 14.0535 20.0584 14.0686 20.0949C14.0837 20.1314 14.1059 20.1646 14.1338 20.1925C14.1618 20.2205 14.1949 20.2426 14.2314 20.2577C14.2679 20.2729 14.3071 20.2806 14.3466 20.2806H17.6172C17.6567 20.2806 17.6958 20.2729 17.7323 20.2577C17.7688 20.2426 17.802 20.2205 17.8299 20.1925C17.8578 20.1646 17.88 20.1314 17.8951 20.0949C17.9102 20.0584 17.918 20.0193 17.9179 19.9798V14.2442C17.918 14.2047 17.9102 14.1655 17.8951 14.129C17.88 14.0925 17.8578 14.0594 17.8299 14.0314C17.802 14.0035 17.7688 13.9813 17.7323 13.9662C17.6958 13.9511 17.6567 13.9434 17.6172 13.9434Z" fill="black"/>
<path d="M12.6328 7.22012H9.36719C9.32768 7.2201 9.28856 7.22787 9.25206 7.24297C9.21555 7.25808 9.18239 7.28024 9.15445 7.30817C9.12652 7.3361 9.10436 7.36927 9.08926 7.40577C9.07415 7.44228 9.06638 7.4814 9.06641 7.5209V10.438C9.06638 10.4775 9.07415 10.5166 9.08926 10.5531C9.10436 10.5896 9.12652 10.6228 9.15445 10.6507C9.18239 10.6786 9.21555 10.7008 9.25206 10.7159C9.28856 10.731 9.32768 10.7388 9.36719 10.7387H12.6328C12.6723 10.7388 12.7114 10.731 12.7479 10.7159C12.7844 10.7008 12.8176 10.6786 12.8455 10.6507C12.8735 10.6228 12.8956 10.5896 12.9107 10.5531C12.9259 10.5166 12.9336 10.4775 12.9336 10.438V7.5209C12.9336 7.4814 12.9259 7.44228 12.9107 7.40577C12.8956 7.36927 12.8735 7.3361 12.8455 7.30817C12.8176 7.28024 12.7844 7.25808 12.7479 7.24297C12.7114 7.22787 12.6723 7.2201 12.6328 7.22012ZM12.3319 10.1372H9.6678V7.82169H12.3319V10.1372Z" fill="black"/>
<path d="M7.65342 7.22012H4.38281C4.34331 7.2201 4.30418 7.22787 4.26768 7.24297C4.23118 7.25808 4.19801 7.28024 4.17008 7.30817C4.14214 7.3361 4.11999 7.36927 4.10488 7.40577C4.08977 7.44228 4.08201 7.4814 4.08203 7.5209V10.438C4.08201 10.4775 4.08977 10.5166 4.10488 10.5531C4.11999 10.5896 4.14214 10.6228 4.17008 10.6507C4.19801 10.6786 4.23118 10.7008 4.26768 10.7159C4.30418 10.731 4.34331 10.7388 4.38281 10.7387H7.65342C7.69293 10.7388 7.73205 10.731 7.76855 10.7159C7.80506 10.7008 7.83822 10.6786 7.86616 10.6507C7.89409 10.6228 7.91625 10.5896 7.93135 10.5531C7.94646 10.5166 7.95423 10.4775 7.9542 10.438V7.5209C7.95423 7.4814 7.94646 7.44228 7.93135 7.40577C7.91625 7.36927 7.89409 7.3361 7.86616 7.30817C7.83822 7.28024 7.80506 7.25808 7.76855 7.24297C7.73205 7.22787 7.69293 7.2201 7.65342 7.22012ZM7.35264 10.1372H4.68359V7.82169H7.35264V10.1372Z" fill="black"/>
<path d="M17.6172 7.22012H14.3466C14.3071 7.2201 14.2679 7.22787 14.2314 7.24297C14.1949 7.25808 14.1618 7.28024 14.1338 7.30817C14.1059 7.3361 14.0837 7.36927 14.0686 7.40577C14.0535 7.44228 14.0458 7.4814 14.0458 7.5209V10.438C14.0458 10.4775 14.0535 10.5166 14.0686 10.5531C14.0837 10.5896 14.1059 10.6228 14.1338 10.6507C14.1618 10.6786 14.1949 10.7008 14.2314 10.7159C14.2679 10.731 14.3071 10.7388 14.3466 10.7387H17.6172C17.6567 10.7388 17.6958 10.731 17.7323 10.7159C17.7688 10.7008 17.802 10.6786 17.8299 10.6507C17.8578 10.6228 17.88 10.5896 17.8951 10.5531C17.9102 10.5166 17.918 10.4775 17.9179 10.438V7.5209C17.918 7.4814 17.9102 7.44228 17.8951 7.40577C17.88 7.36927 17.8578 7.3361 17.8299 7.30817C17.802 7.28024 17.7688 7.25808 17.7323 7.24297C17.6958 7.22787 17.6567 7.2201 17.6172 7.22012ZM17.3164 10.1372H14.6473V7.82169H17.3164V10.1372Z" fill="black"/>
</svg>
