<svg width="22" height="22" viewBox="0 0 22 22" fill="none" xmlns="http://www.w3.org/2000/svg">
<path d="M18.3047 0H3.69531C3.34216 0.000409398 3.00359 0.140879 2.75388 0.390595C2.50416 0.640311 2.36369 0.97888 2.36328 1.33203V20.668C2.36369 21.0211 2.50416 21.3597 2.75388 21.6094C3.00359 21.8591 3.34216 21.9996 3.69531 22H18.3047C18.6578 21.9996 18.9964 21.8591 19.2461 21.6094C19.4958 21.3597 19.6363 21.0211 19.6367 20.668V1.33169C19.6362 0.978596 19.4957 0.640115 19.246 0.390473C18.9963 0.140832 18.6578 0.000409212 18.3047 0ZM19.0352 20.6676C19.035 20.8613 18.958 21.047 18.821 21.1839C18.6841 21.3209 18.4984 21.3979 18.3047 21.3981H3.69531C3.50164 21.3979 3.31594 21.3209 3.17899 21.1839C3.04204 21.047 2.96503 20.8613 2.96484 20.6676V1.33169C2.96512 1.13807 3.04218 0.952467 3.17912 0.815591C3.31606 0.678715 3.5017 0.601744 3.69531 0.601562H18.3047C18.4984 0.601745 18.6841 0.678763 18.821 0.815713C18.958 0.952663 19.035 1.13835 19.0352 1.33203V20.6676Z" fill="black"/>
<path d="M17.6172 1.71875H4.38281C4.34331 1.71873 4.30418 1.72649 4.26768 1.7416C4.23118 1.75671 4.19801 1.77886 4.17008 1.8068C4.14214 1.83473 4.11999 1.8679 4.10488 1.9044C4.08977 1.9409 4.08201 1.98003 4.08203 2.01953V5.80078C4.08201 5.84029 4.08977 5.87941 4.10488 5.91591C4.11999 5.95241 4.14214 5.98558 4.17008 6.01352C4.19801 6.04145 4.23118 6.06361 4.26768 6.07871C4.30418 6.09382 4.34331 6.10158 4.38281 6.10156H17.6172C17.6567 6.10158 17.6958 6.09382 17.7323 6.07871C17.7688 6.06361 17.802 6.04145 17.8299 6.01352C17.8579 5.98558 17.88 5.95241 17.8951 5.91591C17.9102 5.87941 17.918 5.84029 17.918 5.80078V2.01953C17.918 1.98003 17.9102 1.9409 17.8951 1.9044C17.88 1.8679 17.8579 1.83473 17.8299 1.8068C17.802 1.77886 17.7688 1.75671 17.7323 1.7416C17.6958 1.72649 17.6567 1.71873 17.6172 1.71875ZM17.3164 5.5H4.68359V2.32031H17.3164V5.5Z" fill="black"/>
<path d="M12.6328 16.7618H9.36719C9.28742 16.7618 9.21091 16.7935 9.1545 16.8499C9.0981 16.9063 9.06641 16.9828 9.06641 17.0626V19.9798C9.06629 20.0194 9.07399 20.0586 9.08906 20.0951C9.10413 20.1317 9.12627 20.165 9.15421 20.193C9.18215 20.221 9.21535 20.2432 9.2519 20.2584C9.28845 20.2735 9.32763 20.2813 9.36719 20.2813H12.6328C12.6723 20.2813 12.7114 20.2735 12.7479 20.2584C12.7844 20.2433 12.8176 20.2212 12.8455 20.1932C12.8735 20.1653 12.8956 20.1321 12.9107 20.0956C12.9259 20.0591 12.9336 20.02 12.9336 19.9805V17.0626C12.9336 16.9828 12.9019 16.9063 12.8455 16.8499C12.7891 16.7935 12.7126 16.7618 12.6328 16.7618ZM12.3319 19.6797H9.6678V17.3633H12.3319V19.6797Z" fill="black"/>
<path d="M7.65342 16.7618H4.38281C4.30304 16.7618 4.22654 16.7935 4.17013 16.8499C4.11372 16.9063 4.08203 16.9828 4.08203 17.0626V19.9798C4.08192 20.0194 4.08962 20.0586 4.10468 20.0951C4.11975 20.1317 4.14189 20.165 4.16984 20.193C4.19778 20.221 4.23098 20.2432 4.26752 20.2584C4.30407 20.2735 4.34325 20.2813 4.38281 20.2813H7.65342C7.69293 20.2813 7.73205 20.2735 7.76855 20.2584C7.80506 20.2433 7.83822 20.2212 7.86616 20.1932C7.89409 20.1653 7.91625 20.1321 7.93136 20.0956C7.94646 20.0591 7.95423 20.02 7.9542 19.9805V17.0626C7.9542 16.9828 7.92252 16.9063 7.86611 16.8499C7.8097 16.7935 7.7332 16.7618 7.65342 16.7618ZM7.35264 19.6797H4.6836V17.3633H7.35264V19.6797Z" fill="black"/>
<path d="M12.6328 11.991H9.36719C9.32768 11.991 9.28856 11.9988 9.25206 12.0139C9.21555 12.029 9.18239 12.0511 9.15445 12.0791C9.12652 12.107 9.10436 12.1402 9.08926 12.1767C9.07415 12.2132 9.06638 12.2523 9.06641 12.2918V15.2089C9.06638 15.2484 9.07415 15.2875 9.08926 15.324C9.10436 15.3605 9.12652 15.3937 9.15445 15.4216C9.18239 15.4495 9.21555 15.4717 9.25206 15.4868C9.28856 15.5019 9.32768 15.5097 9.36719 15.5097H12.6328C12.6723 15.5097 12.7114 15.5019 12.7479 15.4868C12.7844 15.4717 12.8176 15.4495 12.8455 15.4216C12.8735 15.3937 12.8956 15.3605 12.9107 15.324C12.9259 15.2875 12.9336 15.2484 12.9336 15.2089V12.2918C12.9336 12.2523 12.9259 12.2132 12.9107 12.1767C12.8956 12.1402 12.8735 12.107 12.8455 12.0791C12.8176 12.0511 12.7844 12.029 12.7479 12.0139C12.7114 11.9988 12.6723 11.991 12.6328 11.991ZM12.332 14.9081H9.66797V12.5926H12.332V14.9081Z" fill="black"/>
<path d="M7.65342 11.991H4.38281C4.34331 11.991 4.30418 11.9988 4.26768 12.0139C4.23118 12.029 4.19801 12.0511 4.17008 12.0791C4.14214 12.107 4.11999 12.1402 4.10488 12.1767C4.08977 12.2132 4.08201 12.2523 4.08203 12.2918V15.2089C4.08201 15.2484 4.08977 15.2875 4.10488 15.324C4.11999 15.3605 4.14214 15.3937 4.17008 15.4216C4.19801 15.4495 4.23118 15.4717 4.26768 15.4868C4.30418 15.5019 4.34331 15.5097 4.38281 15.5097H7.65342C7.69293 15.5097 7.73205 15.5019 7.76855 15.4868C7.80506 15.4717 7.83822 15.4495 7.86616 15.4216C7.89409 15.3937 7.91625 15.3605 7.93135 15.324C7.94646 15.2875 7.95423 15.2484 7.9542 15.2089V12.2918C7.95423 12.2523 7.94646 12.2132 7.93135 12.1767C7.91625 12.1402 7.89409 12.107 7.86616 12.0791C7.83822 12.0511 7.80506 12.029 7.76855 12.0139C7.73205 11.9988 7.69293 11.991 7.65342 11.991ZM7.35264 14.9081H4.68359V12.5926H7.35264V14.9081Z" fill="black"/>
<path d="M17.6172 11.991H14.3466C14.3071 11.991 14.2679 11.9988 14.2314 12.0139C14.1949 12.029 14.1618 12.0511 14.1338 12.0791C14.1059 12.107 14.0837 12.1402 14.0686 12.1767C14.0535 12.2132 14.0458 12.2523 14.0458 12.2918V19.9798C14.0458 20.0193 14.0535 20.0584 14.0686 20.0949C14.0837 20.1314 14.1059 20.1646 14.1338 20.1925C14.1618 20.2205 14.1949 20.2426 14.2314 20.2577C14.2679 20.2728 14.3071 20.2806 14.3466 20.2806H17.6172C17.6567 20.2806 17.6958 20.2728 17.7323 20.2577C17.7688 20.2426 17.802 20.2205 17.8299 20.1925C17.8578 20.1646 17.88 20.1314 17.8951 20.0949C17.9102 20.0584 17.918 20.0193 17.9179 19.9798V12.2918C17.918 12.2523 17.9102 12.2132 17.8951 12.1767C17.88 12.1402 17.8578 12.107 17.8299 12.0791C17.802 12.0511 17.7688 12.029 17.7323 12.0139C17.6958 11.9988 17.6567 11.991 17.6172 11.991ZM17.3164 19.679H14.6473V12.5926H17.3164V19.679Z" fill="black"/>
<path d="M12.6328 7.22009H9.36719C9.32768 7.22007 9.28856 7.22783 9.25206 7.24294C9.21555 7.25805 9.18239 7.2802 9.15445 7.30814C9.12652 7.33607 9.10436 7.36924 9.08926 7.40574C9.07415 7.44225 9.06638 7.48137 9.06641 7.52087V10.4379C9.06638 10.4774 9.07415 10.5166 9.08926 10.5531C9.10436 10.5896 9.12652 10.6227 9.15445 10.6507C9.18239 10.6786 9.21555 10.7008 9.25206 10.7159C9.28856 10.731 9.32768 10.7387 9.36719 10.7387H12.6328C12.6723 10.7387 12.7114 10.731 12.7479 10.7159C12.7844 10.7008 12.8176 10.6786 12.8455 10.6507C12.8735 10.6227 12.8956 10.5896 12.9107 10.5531C12.9259 10.5166 12.9336 10.4774 12.9336 10.4379V7.52087C12.9336 7.48137 12.9259 7.44225 12.9107 7.40574C12.8956 7.36924 12.8735 7.33607 12.8455 7.30814C12.8176 7.2802 12.7844 7.25805 12.7479 7.24294C12.7114 7.22783 12.6723 7.22007 12.6328 7.22009ZM12.3319 10.1372H9.6678V7.82166H12.3319V10.1372Z" fill="black"/>
<path d="M7.65342 7.22009H4.38281C4.34331 7.22007 4.30418 7.22783 4.26768 7.24294C4.23118 7.25805 4.19801 7.2802 4.17008 7.30814C4.14214 7.33607 4.11999 7.36924 4.10488 7.40574C4.08977 7.44225 4.08201 7.48137 4.08203 7.52087V10.4379C4.08201 10.4774 4.08977 10.5166 4.10488 10.5531C4.11999 10.5896 4.14214 10.6227 4.17008 10.6507C4.19801 10.6786 4.23118 10.7008 4.26768 10.7159C4.30418 10.731 4.34331 10.7387 4.38281 10.7387H7.65342C7.69293 10.7387 7.73205 10.731 7.76855 10.7159C7.80506 10.7008 7.83822 10.6786 7.86616 10.6507C7.89409 10.6227 7.91625 10.5896 7.93135 10.5531C7.94646 10.5166 7.95423 10.4774 7.9542 10.4379V7.52087C7.95423 7.48137 7.94646 7.44225 7.93135 7.40574C7.91625 7.36924 7.89409 7.33607 7.86616 7.30814C7.83822 7.2802 7.80506 7.25805 7.76855 7.24294C7.73205 7.22783 7.69293 7.22007 7.65342 7.22009ZM7.35264 10.1372H4.68359V7.82166H7.35264V10.1372Z" fill="black"/>
<path d="M17.6172 7.22009H14.3466C14.3071 7.22007 14.2679 7.22783 14.2314 7.24294C14.1949 7.25805 14.1618 7.2802 14.1338 7.30814C14.1059 7.33607 14.0837 7.36924 14.0686 7.40574C14.0535 7.44225 14.0458 7.48137 14.0458 7.52087V10.4379C14.0458 10.4774 14.0535 10.5166 14.0686 10.5531C14.0837 10.5896 14.1059 10.6227 14.1338 10.6507C14.1618 10.6786 14.1949 10.7008 14.2314 10.7159C14.2679 10.731 14.3071 10.7387 14.3466 10.7387H17.6172C17.6567 10.7387 17.6958 10.731 17.7323 10.7159C17.7688 10.7008 17.802 10.6786 17.8299 10.6507C17.8578 10.6227 17.88 10.5896 17.8951 10.5531C17.9102 10.5166 17.918 10.4774 17.9179 10.4379V7.52087C17.918 7.48137 17.9102 7.44225 17.8951 7.40574C17.88 7.36924 17.8578 7.33607 17.8299 7.30814C17.802 7.2802 17.7688 7.25805 17.7323 7.24294C17.6958 7.22783 17.6567 7.22007 17.6172 7.22009ZM17.3164 10.1372H14.6473V7.82166H17.3164V10.1372Z" fill="black"/>
</svg>
