<svg width="20" height="18" viewBox="0 0 20 18" fill="none" xmlns="http://www.w3.org/2000/svg">
<path d="M9.60146 11.6804C9.60146 12.1094 9.63998 12.5127 9.70982 12.8908C10.3176 16.1835 13.295 17.5781 13.8242 17.5781C14.3533 17.5781 17.3307 16.1836 17.9385 12.8909C18.0083 12.5127 18.0469 12.1095 18.0469 11.6805V9.46064C16.6311 9.07619 15.1499 8.46103 13.8242 7.68506C12.4939 8.46373 11.1026 9.05295 9.60143 9.46064V11.6804H9.60146Z" fill="#7AEAE7"/>
<path d="M9.60147 11.6805V9.46062C11.1026 9.05288 12.4939 8.46367 13.8242 7.68503C15.1499 8.46101 16.6311 9.07616 18.0469 9.46062V11.6805C18.0469 12.1094 18.0084 12.5127 17.938 12.8907H18.8331C19.2601 12.8907 19.6094 12.5413 19.6094 12.1144V5.07812H0.390625V12.1144C0.390625 12.5413 0.739999 12.8907 1.16699 12.8907H9.71041C9.63998 12.5127 9.60147 12.1094 9.60147 11.6805ZM4.00386 8.77687C4.20488 8.6605 4.43843 8.5939 4.68737 8.5939C5.44261 8.5939 6.05464 9.20601 6.05464 9.96101C6.05464 10.7161 5.44261 11.3282 4.68737 11.3282C4.43843 11.3282 4.20488 11.2616 4.00386 11.1452C3.80277 11.2616 3.56937 11.3282 3.32031 11.3282C2.56515 11.3282 1.95308 10.7161 1.95308 9.96101C1.95308 9.20601 2.56515 8.5939 3.32031 8.5939C3.56937 8.5939 3.80277 8.6605 4.00386 8.77687Z" fill="#F9D973"/>
<path d="M4.68736 9.96086C4.68736 9.45488 4.41247 9.01305 4.00384 8.77672C3.80275 8.66035 3.56935 8.59375 3.32029 8.59375C2.56513 8.59375 1.95306 9.20586 1.95306 9.96086C1.95306 10.7159 2.56513 11.328 3.32029 11.328C3.56927 11.328 3.80275 11.2614 4.00384 11.1451C4.41247 10.9088 4.68736 10.4669 4.68736 9.96086Z" fill="#FF5A5A"/>
<path d="M4.00384 8.77672C4.41247 9.01308 4.68735 9.45488 4.68735 9.96086C4.68735 10.4669 4.41247 10.9088 4.00384 11.1451C4.20485 11.2614 4.43841 11.328 4.68735 11.328C5.44259 11.328 6.05462 10.7159 6.05462 9.96086C6.05462 9.20586 5.44259 8.59375 4.68735 8.59375C4.43841 8.59375 4.20485 8.66035 4.00384 8.77672Z" fill="#FF8C5A"/>
<path d="M19.6093 2.73438H0.390625V5.07804H19.6093V2.73438Z" fill="#0586AD"/>
<path d="M0.390625 2.73441H19.6094V1.16699C19.6094 0.739882 19.26 0.390625 18.833 0.390625H1.16699C0.739999 0.390625 0.390625 0.739921 0.390625 1.16699V2.73441Z" fill="#F9D973"/>
<path d="M18.833 0H1.16699C0.523476 0 0 0.523554 0 1.16699V12.1143C0 12.7577 0.523476 13.2812 1.16699 13.2812H9.39299C9.7417 14.7566 10.5303 15.8015 11.2194 16.471C12.2254 17.4482 13.3785 17.9687 13.8242 17.9687C14.2698 17.9687 15.4229 17.4483 16.4289 16.471C17.1181 15.8015 17.9066 14.7566 18.2553 13.2813H18.833C19.4765 13.2813 20 12.7577 20 12.1144V1.16699C20 0.523554 19.4765 0 18.833 0ZM0.781249 3.12503H19.2188V4.68745H0.781249V3.12503ZM1.16699 0.781249H18.833C19.0457 0.781249 19.2188 0.954295 19.2188 1.16699V2.34375H0.781249V1.16699C0.781249 0.954295 0.954295 0.781249 1.16699 0.781249ZM15.9092 15.8865C14.9638 16.8152 13.994 17.1764 13.8242 17.1873C13.6543 17.1764 12.6845 16.8152 11.739 15.8865C10.9421 15.1037 9.99205 13.7385 9.99205 11.6804V9.7567C11.337 9.36776 12.5954 8.83545 13.8243 8.13592C15.0254 8.81768 16.3403 9.37365 17.6562 9.75646V11.6804C17.6563 13.7385 16.7062 15.1037 15.9092 15.8865ZM18.833 12.5H18.3912C18.4211 12.2382 18.4375 11.9653 18.4375 11.6804V9.46053C18.4375 9.2842 18.3194 9.12979 18.1493 9.08358C16.7308 8.69838 15.3034 8.09815 14.0215 7.3478C13.8996 7.27647 13.7487 7.27655 13.6268 7.34788C12.3085 8.11952 10.9583 8.68721 9.49904 9.08358C9.32893 9.12983 9.2108 9.28424 9.2108 9.46053V11.6804C9.2108 11.9653 9.22717 12.2382 9.25713 12.5H1.16699C0.954295 12.5 0.781249 12.3269 0.781249 12.1143V5.46866H19.2188V12.1143C19.2188 12.327 19.0457 12.5 18.833 12.5Z" fill="black"/>
</svg>
