<svg width="22" height="22" viewBox="0 0 22 22" fill="none" xmlns="http://www.w3.org/2000/svg">
<g clip-path="url(#clip0)">
<path d="M19.4727 13.3988H2.44884C1.86406 13.3988 1.38989 13.8738 1.38989 14.4598V15.3892C1.38989 15.6198 1.57654 15.8068 1.80682 15.8068H20.1149C20.345 15.8068 20.5317 15.6198 20.5317 15.3892V14.4598C20.5317 13.8738 20.0577 13.3988 19.4727 13.3988Z" fill="#912C2C"/>
<path d="M19.4728 13.3988H18.0464V15.8069H20.1149C20.3452 15.8069 20.5317 15.6199 20.5317 15.3892V14.4598C20.5317 13.8738 20.0577 13.3988 19.4728 13.3988Z" fill="#7C1E1E"/>
<path d="M20.1849 12.1313C20.7362 12.1313 21.201 12.5901 21.2015 13.1661C21.202 13.9886 20.2661 14.4239 19.179 14.2645C18.1635 14.1156 18.1507 13.6474 17.1223 13.6474C16.0941 13.6474 16.0941 14.2645 15.0657 14.2645C14.0375 14.2645 14.0375 13.6474 13.0092 13.6474C11.981 13.6474 11.981 14.2645 10.9528 14.2645C9.92438 14.2645 9.92455 13.6474 8.89615 13.6474C7.86792 13.6474 7.86792 14.2645 6.83969 14.2645C5.81146 14.2645 5.81146 13.6474 4.78306 13.6474C3.75483 13.6474 3.7419 14.1154 2.7266 14.2645C1.63928 14.4239 0.703537 13.9886 0.704041 13.1661C0.704376 12.5901 1.16914 12.1313 1.72052 12.1313H20.1849Z" fill="#A0E557"/>
<path d="M21.2016 13.1661C21.2011 12.5901 20.7364 12.1313 20.185 12.1313H18.642V14.1314C18.7878 14.1854 18.96 14.2323 19.1791 14.2645C20.2662 14.4239 21.2021 13.9886 21.2016 13.1661Z" fill="#93CC4A"/>
<path d="M20.7673 15.593H1.14665C0.667786 15.593 0.279724 15.982 0.279724 16.4616C0.279724 18.9557 2.29758 20.9775 4.78675 20.9775H17.1272C19.6164 20.9775 21.6342 18.9557 21.6342 16.4616C21.6342 15.982 21.246 15.593 20.7673 15.593Z" fill="#EFA335"/>
<path d="M20.7673 15.593H19.1533V17.3304C19.1533 19.3447 17.5235 20.9776 15.5132 20.9776H17.1272C19.6164 20.9776 21.6342 18.9557 21.6342 16.4616C21.6342 15.982 21.246 15.593 20.7673 15.593Z" fill="#FD8F31"/>
<path d="M19.4689 11.0256H2.44518C1.86023 11.0256 1.38623 10.5507 1.38623 9.96458V9.03524C1.38623 8.8045 1.57288 8.61749 1.80299 8.61749H20.1111C20.3412 8.61749 20.5278 8.8045 20.5278 9.03524V9.96458C20.5278 10.5507 20.0538 11.0256 19.4689 11.0256Z" fill="#FC4E51"/>
<path d="M20.1112 8.61749H18.0502V10.3823C18.0502 10.7375 17.7628 11.0256 17.4081 11.0256H19.4691C20.0539 11.0256 20.5281 10.5507 20.5281 9.96458V9.03524C20.5279 8.8045 20.3413 8.61749 20.1112 8.61749Z" fill="#EA3942"/>
<path d="M20.3633 10.8239H1.57093C1.14477 10.8239 0.782887 11.1734 0.790776 11.6002C0.798497 12.0143 1.13587 12.3474 1.55096 12.3474H13.4909C13.685 12.3474 13.8724 12.4169 14.0198 12.5434L15.7144 13.9983C16.2094 14.4232 16.9482 14.3913 17.4051 13.9254L18.7135 12.5911C18.8662 12.4352 19.0752 12.3474 19.2932 12.3474H20.3434C20.7694 12.3474 21.1315 11.9981 21.1234 11.5711C21.1157 11.1571 20.7783 10.8239 20.3633 10.8239Z" fill="#FCCF3F"/>
<path d="M10.957 1.03381C1.01573 1.03751 0.279724 7.60828 0.279724 8.5388C0.279724 9.0186 0.667954 9.40742 1.14665 9.40742H20.7673C21.246 9.40742 21.6342 9.0186 21.6342 8.5388C21.6342 7.60828 20.8982 1.03751 10.957 1.03381Z" fill="#EFA335"/>
<path d="M21.6341 8.51408C21.6341 8.51139 21.6339 8.50853 21.6339 8.50567C21.6339 8.49944 21.6337 8.49305 21.6336 8.4865C21.6334 8.48347 21.6334 8.48027 21.6332 8.47708C21.6331 8.47035 21.6329 8.46329 21.6325 8.45622C21.6325 8.45286 21.6324 8.44967 21.6322 8.4463C21.6319 8.43857 21.6315 8.43066 21.6312 8.42259C21.631 8.41956 21.6309 8.4167 21.6307 8.41384C21.6304 8.40426 21.6297 8.3945 21.6292 8.38441C21.629 8.38256 21.629 8.38088 21.6289 8.3792C21.6252 8.3163 21.6191 8.24315 21.6102 8.16124C21.6102 8.16108 21.6102 8.16091 21.6102 8.16091C21.4279 6.48202 20.0063 1.03718 10.957 1.03381C10.5263 1.03398 10.1132 1.04676 9.71642 1.07048C15.7389 1.43205 17.9408 4.40388 18.7288 6.51616C19.0603 7.40496 18.397 8.35111 17.4501 8.35111H1.14665C0.789643 8.35111 0.483155 8.13467 0.35022 7.82574C0.294998 8.15536 0.279724 8.40527 0.279724 8.5388C0.279724 9.0186 0.667954 9.40742 1.14665 9.40742H20.7673C21.246 9.40742 21.6342 9.0186 21.6342 8.5388C21.6342 8.53106 21.6342 8.52265 21.6341 8.51408Z" fill="#FD8F31"/>
<path d="M20.3632 10.8239H18.642V12.6639L18.7135 12.5911C18.8662 12.4352 19.0752 12.3474 19.2932 12.3474H20.3434C20.7694 12.3474 21.1315 11.998 21.1234 11.5711C21.1157 11.1571 20.7783 10.8239 20.3632 10.8239Z" fill="#EFC03C"/>
<path d="M20.8545 15.2732V14.4599C20.8545 14.4111 20.851 14.3625 20.8459 14.3144C20.926 14.2663 21.0003 14.2132 21.0678 14.1546C21.3668 13.8957 21.5245 13.5538 21.5242 13.1659C21.524 12.8341 21.4022 12.5178 21.1915 12.2734C21.3569 12.0767 21.4508 11.8261 21.446 11.5651C21.4374 11.1014 21.1324 10.7062 20.7158 10.5606C20.8023 10.38 20.8506 10.1778 20.8506 9.96456V9.7276C21.468 9.68455 21.9571 9.16792 21.9571 8.53877C21.9571 8.44779 21.9379 6.28674 20.2741 4.23483C19.4285 3.19198 18.3091 2.36607 16.9467 1.77998C15.2988 1.07112 13.2836 0.711229 10.9569 0.710388C8.02644 0.711397 5.60659 1.27916 3.76447 2.39752C3.6119 2.49019 3.56322 2.68897 3.65554 2.84167C3.74802 2.99437 3.94642 3.04331 4.09882 2.95065C5.83889 1.89434 8.14629 1.3582 10.9569 1.35719C13.1955 1.35803 15.1249 1.7001 16.692 2.37431C17.9574 2.9187 18.9941 3.68187 19.7731 4.64266C21.2941 6.51832 21.3115 8.45721 21.3115 8.53877C21.3115 8.83947 21.0675 9.084 20.7674 9.084H1.14673C0.84662 9.084 0.602571 8.83947 0.602571 8.53877C0.602571 8.45754 0.613145 7.71539 0.982241 6.69541C1.38591 5.57939 2.0427 4.60886 2.93397 3.81087C3.0669 3.6918 3.07848 3.4873 2.95965 3.35427C2.84081 3.22107 2.63688 3.20964 2.50394 3.32854C-0.0139312 5.5831 -0.0429688 8.4192 -0.0429688 8.53877C-0.0429688 9.16792 0.446137 9.68455 1.06331 9.7276V9.96456C1.06331 10.1797 1.11266 10.3835 1.20044 10.5653C1.0425 10.6218 0.896975 10.7136 0.777803 10.8352C0.572694 11.0446 0.462754 11.3185 0.468125 11.6063C0.472657 11.8557 0.561784 12.089 0.713853 12.2739C0.503373 12.5183 0.381684 12.8346 0.381516 13.1659C0.381181 13.5538 0.538957 13.8957 0.837892 14.1546C0.909563 14.2167 0.989123 14.2727 1.07472 14.323C1.07019 14.3684 1.06717 14.414 1.06717 14.4599V15.2725C0.448152 15.3139 -0.0429688 15.8312 -0.0429688 16.4617C-0.0429688 19.1301 2.12377 21.3009 4.78683 21.3009H17.1273C19.7903 21.3009 21.9571 19.1301 21.9571 16.4617C21.9571 15.8339 21.47 15.3181 20.8545 15.2732ZM20.6457 13.6654C20.3489 13.9226 19.8049 14.0295 19.2257 13.9446C18.8157 13.8844 18.5998 13.77 18.3714 13.6488C18.3188 13.621 18.2658 13.5928 18.2104 13.5654L18.9436 12.8177C19.035 12.7243 19.1624 12.6708 19.2932 12.6708H20.3432C20.4436 12.6708 20.5423 12.6572 20.6383 12.6301C20.789 12.7643 20.8787 12.9598 20.8788 13.1664C20.8788 13.3634 20.8004 13.5314 20.6457 13.6654ZM1.70885 9.73097H20.2053V9.96456C20.2053 10.2156 20.0792 10.4376 19.8874 10.5708C19.882 10.5747 19.8764 10.5782 19.8709 10.5818C19.8571 10.5908 19.843 10.5994 19.8288 10.6075C19.8237 10.6104 19.8189 10.6132 19.814 10.6159C19.7957 10.6257 19.7771 10.6347 19.7579 10.643C19.7568 10.6435 19.7558 10.644 19.7548 10.6445C19.7334 10.6534 19.7116 10.6615 19.6893 10.6684C19.6868 10.6692 19.6843 10.6699 19.6817 10.6706C19.6631 10.6763 19.6441 10.6812 19.6248 10.6852C19.6188 10.6865 19.6129 10.6877 19.6069 10.6889C19.5903 10.6919 19.5735 10.6946 19.5565 10.6966C19.5501 10.6973 19.5439 10.6981 19.5376 10.6988C19.5149 10.701 19.4921 10.7023 19.4689 10.7023H2.44503C2.03917 10.7023 1.70885 10.3714 1.70885 9.96473V9.73097ZM1.23854 11.2883C1.32633 11.1988 1.44734 11.1473 1.57088 11.1473H1.72765C1.93695 11.2752 2.18251 11.349 2.4452 11.349H19.4689C19.4976 11.349 19.526 11.3478 19.5542 11.3461C19.5632 11.3456 19.5721 11.3448 19.581 11.3441C19.6008 11.3424 19.6206 11.3404 19.6403 11.3379C19.6499 11.3367 19.6596 11.3357 19.6692 11.3343C19.6943 11.3306 19.7193 11.3264 19.744 11.3214C19.7544 11.3192 19.7647 11.3167 19.7751 11.3143C19.792 11.3105 19.809 11.3064 19.8258 11.3019C19.8385 11.2985 19.8513 11.2948 19.8639 11.2911C19.8775 11.2871 19.8909 11.2826 19.9043 11.2782C19.9172 11.274 19.93 11.2698 19.9427 11.2652C19.9647 11.257 19.9866 11.2484 20.008 11.2393C20.021 11.2338 20.0337 11.2277 20.0465 11.2218C20.0586 11.2163 20.0705 11.2106 20.0822 11.2047C20.0948 11.1983 20.1074 11.1921 20.1198 11.1853C20.1339 11.1778 20.1479 11.1697 20.1618 11.1616C20.1702 11.1568 20.1787 11.1524 20.1871 11.1473H20.3632C20.6 11.1473 20.7962 11.3402 20.8006 11.5772C20.8038 11.7423 20.7031 11.8992 20.5443 11.9766C20.5443 11.9766 20.5443 11.9766 20.5441 11.9766C20.4795 12.0081 20.4119 12.0242 20.3432 12.0242H19.293C18.9904 12.0242 18.6951 12.1481 18.483 12.3646L17.1746 13.6989C16.8628 14.0171 16.3683 14.0601 16.0072 13.8154C15.9993 13.8101 15.9916 13.8047 15.9839 13.7991C15.9638 13.7847 15.9438 13.7695 15.9245 13.753C15.9245 13.7529 15.9243 13.7527 15.9241 13.7527L14.2296 12.2978C14.024 12.1214 13.7616 12.0242 13.4909 12.0242H1.55091C1.48444 12.0242 1.41999 12.0089 1.35906 11.979H1.35889C1.21051 11.906 1.11652 11.7585 1.1135 11.5942C1.11132 11.4815 1.15579 11.3729 1.23854 11.2883ZM1.02706 13.1663C1.02706 12.9609 1.11585 12.7665 1.26523 12.6323C1.35788 12.6579 1.45339 12.6708 1.55091 12.6708H13.4909C13.6079 12.6708 13.721 12.7129 13.8098 12.7889L15.1499 13.9395C15.123 13.9406 15.095 13.9411 15.0659 13.9411C14.6411 13.9411 14.4479 13.8252 14.2036 13.6785C13.9266 13.5124 13.6127 13.324 13.0093 13.324C12.4061 13.324 12.0922 13.5124 11.8153 13.6785C11.5709 13.8252 11.3778 13.9411 10.9529 13.9411C10.5279 13.9411 10.3348 13.8252 10.0905 13.6785C9.81351 13.5124 9.49964 13.324 8.8964 13.324C8.29298 13.324 7.97911 13.5124 7.70216 13.6785C7.45778 13.8252 7.26475 13.9411 6.83977 13.9411C6.41478 13.9411 6.22175 13.8252 5.97737 13.6785C5.70042 13.5124 5.38655 13.324 4.78314 13.324C4.14565 13.324 3.83463 13.4892 3.53385 13.6488C3.30558 13.7699 3.0899 13.8844 2.67985 13.9444C2.10061 14.0294 1.55661 13.9224 1.26003 13.6654C1.10527 13.5314 1.02689 13.3634 1.02706 13.1663ZM17.1273 20.6543H4.78683C2.4796 20.6543 0.602571 18.7734 0.602571 16.4617C0.602571 16.161 0.84662 15.9164 1.14673 15.9164H15.6156C15.7939 15.9164 15.9384 15.7716 15.9384 15.593C15.9384 15.4144 15.7939 15.2696 15.6156 15.2696H1.71271V14.5615C1.89617 14.5998 2.09154 14.62 2.29447 14.62C2.45057 14.62 2.61103 14.6082 2.7735 14.5845C3.29366 14.5082 3.58186 14.3553 3.83614 14.2204C4.09882 14.081 4.30628 13.9708 4.7833 13.9708C5.20813 13.9708 5.40132 14.0867 5.6457 14.2334C5.92265 14.3995 6.23652 14.5879 6.83993 14.5879C7.44318 14.5879 7.75705 14.3995 8.034 14.2334C8.27838 14.0867 8.47141 13.9708 8.8964 13.9708C9.32138 13.9708 9.51441 14.0867 9.75879 14.2334C10.0357 14.3995 10.3496 14.5879 10.953 14.5879C11.5563 14.5879 11.8701 14.3995 12.1471 14.2334C12.3915 14.0867 12.5845 13.9708 13.0095 13.9708C13.4345 13.9708 13.6275 14.0867 13.8719 14.2334C14.1488 14.3995 14.4627 14.5879 15.0659 14.5879C15.3533 14.5879 15.5943 14.5462 15.826 14.4564C16.0443 14.5647 16.2822 14.6188 16.52 14.6188C16.9264 14.6188 17.3317 14.4617 17.6353 14.1521L17.7257 14.0601C17.847 14.103 17.9529 14.1587 18.0697 14.2206C18.324 14.3554 18.6122 14.5082 19.1324 14.5845C19.2949 14.6084 19.4553 14.62 19.6114 14.62C19.8202 14.62 20.021 14.5986 20.2091 14.5581V15.2696H17.1175C16.9393 15.2696 16.7948 15.4144 16.7948 15.593C16.7948 15.7716 16.9393 15.9164 17.1175 15.9164H20.7674C21.0675 15.9164 21.3117 16.161 21.3117 16.4617C21.3115 18.7734 19.4345 20.6543 17.1273 20.6543Z" fill="black"/>
</g>
<defs>
<clipPath id="clip0">
<rect width="22" height="22" fill="white"/>
</clipPath>
</defs>
</svg>
