<svg width="20" height="20" viewBox="0 0 20 20" fill="none" xmlns="http://www.w3.org/2000/svg">
<path d="M6.23047 15.6055H4.66797C4.19336 15.6055 3.80859 15.2207 3.80859 14.7461V5.25391C3.80859 4.7793 4.19336 4.39453 4.66797 4.39453H6.23047C6.70508 4.39453 7.08984 4.7793 7.08984 5.25391V14.7461C7.08984 15.2207 6.70508 15.6055 6.23047 15.6055Z" fill="#546E7A"/>
<path d="M6.23047 4.39453H5.05859C5.5332 4.39453 5.91797 4.7793 5.91797 5.25391V14.7461C5.91797 15.2207 5.5332 15.6055 5.05859 15.6055H6.23047C6.70508 15.6055 7.08984 15.2207 7.08984 14.7461V5.25391C7.08984 4.7793 6.70508 4.39453 6.23047 4.39453Z" fill="#455A64"/>
<path d="M3.26172 14.375H2.01172C1.70969 14.375 1.46484 14.1302 1.46484 13.8281V6.17188C1.46484 5.86984 1.70969 5.625 2.01172 5.625H3.26172C3.56375 5.625 3.80859 5.86984 3.80859 6.17188V13.8281C3.80859 14.1302 3.56375 14.375 3.26172 14.375Z" fill="#546E7A"/>
<path d="M3.26172 5.625H2.08984C2.39187 5.625 2.63672 5.86984 2.63672 6.17188V13.8281C2.63672 14.1302 2.39187 14.375 2.08984 14.375H3.26172C3.56375 14.375 3.80859 14.1302 3.80859 13.8281V6.17188C3.80859 5.86984 3.56375 5.625 3.26172 5.625Z" fill="#455A64"/>
<path d="M1.46484 11.5625H0.683594C0.467852 11.5625 0.292969 11.3876 0.292969 11.1719V8.82812C0.292969 8.61238 0.467852 8.4375 0.683594 8.4375H1.46484V11.5625Z" fill="#FFD54F"/>
<path d="M7.08984 8.99561H12.9102V11.0041H7.08984V8.99561Z" fill="#E0E0E0"/>
<path d="M11.7383 8.99561H12.9102V11.0041H11.7383V8.99561Z" fill="#BDBDBD"/>
<path d="M15.332 15.6055H13.7695C13.2949 15.6055 12.9102 15.2207 12.9102 14.7461V5.25391C12.9102 4.7793 13.2949 4.39453 13.7695 4.39453H15.332C15.8066 4.39453 16.1914 4.7793 16.1914 5.25391V14.7461C16.1914 15.2207 15.8066 15.6055 15.332 15.6055Z" fill="#546E7A"/>
<path d="M15.332 4.39453H14.1602C14.6348 4.39453 15.0195 4.7793 15.0195 5.25391V14.7461C15.0195 15.2207 14.6348 15.6055 14.1602 15.6055H15.332C15.8066 15.6055 16.1914 15.2207 16.1914 14.7461V5.25391C16.1914 4.7793 15.8066 4.39453 15.332 4.39453Z" fill="#455A64"/>
<path d="M17.9883 14.375H16.7383C16.4363 14.375 16.1914 14.1302 16.1914 13.8281V6.17188C16.1914 5.86984 16.4363 5.625 16.7383 5.625H17.9883C18.2903 5.625 18.5352 5.86984 18.5352 6.17188V13.8281C18.5352 14.1302 18.2903 14.375 17.9883 14.375Z" fill="#546E7A"/>
<path d="M17.9883 5.625H16.8164C17.1184 5.625 17.3633 5.86984 17.3633 6.17188V13.8281C17.3633 14.1302 17.1184 14.375 16.8164 14.375H17.9883C18.2903 14.375 18.5352 14.1302 18.5352 13.8281V6.17188C18.5352 5.86984 18.2903 5.625 17.9883 5.625Z" fill="#455A64"/>
<path d="M19.3164 11.5625H18.5352V8.4375H19.3164C19.5321 8.4375 19.707 8.61238 19.707 8.82812V11.1719C19.707 11.3876 19.5321 11.5625 19.3164 11.5625Z" fill="#FFD54F"/>
<path d="M19.3164 8.14453H18.8281V6.17188C18.8281 5.70879 18.4514 5.33203 17.9883 5.33203H16.7383C16.6498 5.33203 16.5645 5.34598 16.4844 5.37148V5.25391C16.4844 4.61852 15.9674 4.10156 15.332 4.10156H13.7695C13.1341 4.10156 12.6172 4.61852 12.6172 5.25391V8.70277H7.38281V5.25391C7.38281 4.61852 6.86586 4.10156 6.23047 4.10156H4.66797C4.03258 4.10156 3.51562 4.61852 3.51562 5.25391V5.37148C3.43547 5.34598 3.3502 5.33203 3.26172 5.33203H2.01172C1.54863 5.33203 1.17188 5.70879 1.17188 6.17188V6.55027C1.17188 6.71207 1.30305 6.84324 1.46484 6.84324C1.62664 6.84324 1.75781 6.71207 1.75781 6.55027V6.17188C1.75781 6.03188 1.87172 5.91797 2.01172 5.91797H3.26172C3.40172 5.91797 3.51562 6.03188 3.51562 6.17188V13.8281C3.51562 13.9681 3.40172 14.082 3.26172 14.082H2.01172C1.87172 14.082 1.75781 13.9681 1.75781 13.8281V7.80387C1.75781 7.64207 1.62664 7.5109 1.46484 7.5109C1.30305 7.5109 1.17188 7.64207 1.17188 7.80387V8.14453H0.683594C0.30668 8.14453 0 8.45121 0 8.82812V11.1719C0 11.5488 0.30668 11.8555 0.683594 11.8555H1.17188V13.8281C1.17188 14.2912 1.54863 14.668 2.01172 14.668H3.26172C3.3502 14.668 3.43547 14.654 3.51562 14.6285V14.7461C3.51562 15.3815 4.03258 15.8984 4.66797 15.8984H6.23047C6.86586 15.8984 7.38281 15.3815 7.38281 14.7461V11.2972H7.80922C7.97102 11.2972 8.10219 11.1661 8.10219 11.0043C8.10219 10.8425 7.97102 10.7113 7.80922 10.7113H7.38281V9.28871H12.6172V10.7113H9.07922C8.91742 10.7113 8.78625 10.8425 8.78625 11.0043C8.78625 11.1661 8.91742 11.2972 9.07922 11.2972H12.6172V14.7461C12.6172 15.3815 13.1341 15.8984 13.7695 15.8984H15.332C15.9674 15.8984 16.4844 15.3815 16.4844 14.7461V14.6285C16.5645 14.654 16.6498 14.668 16.7383 14.668H17.9883C18.4514 14.668 18.8281 14.2912 18.8281 13.8281V13.4325C18.8281 13.2707 18.697 13.1395 18.5352 13.1395C18.3734 13.1395 18.2422 13.2707 18.2422 13.4325V13.8281C18.2422 13.9681 18.1283 14.082 17.9883 14.082H16.7383C16.5983 14.082 16.4844 13.9681 16.4844 13.8281V6.17188C16.4844 6.03188 16.5983 5.91797 16.7383 5.91797H17.9883C18.1283 5.91797 18.2422 6.03188 18.2422 6.17188V12.168C18.2422 12.3298 18.3734 12.4609 18.5352 12.4609C18.697 12.4609 18.8281 12.3298 18.8281 12.168V11.8555H19.3164C19.6933 11.8555 20 11.5488 20 11.1719V8.82812C20 8.45121 19.6933 8.14453 19.3164 8.14453ZM0.683594 11.2695C0.629766 11.2695 0.585938 11.2257 0.585938 11.1719V8.82812C0.585938 8.7743 0.629766 8.73047 0.683594 8.73047H1.17188V11.2695H0.683594ZM6.79688 14.7461C6.79688 15.0584 6.54277 15.3125 6.23047 15.3125H4.66797C4.35566 15.3125 4.10156 15.0584 4.10156 14.7461V5.25391C4.10156 4.9416 4.35566 4.6875 4.66797 4.6875H6.23047C6.54277 4.6875 6.79688 4.9416 6.79688 5.25391V14.7461ZM15.8984 14.7461C15.8984 15.0584 15.6443 15.3125 15.332 15.3125H13.7695C13.4572 15.3125 13.2031 15.0584 13.2031 14.7461V5.25391C13.2031 4.9416 13.4572 4.6875 13.7695 4.6875H15.332C15.6443 4.6875 15.8984 4.9416 15.8984 5.25391V14.7461ZM19.4141 11.1719C19.4141 11.2257 19.3702 11.2695 19.3164 11.2695H18.8281V8.73047H19.3164C19.3702 8.73047 19.4141 8.7743 19.4141 8.82812V11.1719Z" fill="black"/>
</svg>
