<svg width="22" height="22" viewBox="0 0 22 22" fill="none" xmlns="http://www.w3.org/2000/svg">
<g clip-path="url(#clip0)">
<path d="M14.5125 10.2793C14.3143 9.79527 13.7594 9.56235 13.2753 9.7602L5.56894 12.9104C5.33435 13.0063 5.15115 13.1877 5.05305 13.4214C4.95498 13.6551 4.95382 13.913 5.04974 14.1476C5.09782 14.2652 5.16744 14.37 5.25665 14.4593C5.2567 14.4593 5.2567 14.4593 5.2567 14.4593C5.43856 14.6412 5.68042 14.7377 5.92709 14.7377C6.04802 14.7377 6.1701 14.7145 6.28686 14.6668L13.9933 11.5166C14.4775 11.3186 14.7104 10.7636 14.5125 10.2793ZM13.7495 10.9199L6.04299 14.0701C5.92911 14.1166 5.79946 14.0905 5.71248 14.0036C5.68407 13.9751 5.66181 13.9415 5.6463 13.9036C5.61553 13.8284 5.61591 13.7457 5.64737 13.6708C5.67879 13.5959 5.73753 13.5377 5.81278 13.5069L13.5192 10.3568C13.6744 10.2934 13.8524 10.3681 13.9159 10.5232C13.9794 10.6785 13.9047 10.8565 13.7495 10.9199Z" fill="black"/>
<path d="M11.2381 10.0752C12.2529 9.06034 12.3261 7.48217 11.4011 6.55725C10.4762 5.63232 8.89796 5.70551 7.88309 6.72037C6.86823 7.73524 6.79504 9.31341 7.71997 10.2383C8.15439 10.6727 8.73264 10.8869 9.32916 10.8869C10.0029 10.8869 10.6997 10.6135 11.2381 10.0752ZM8.33887 7.17607C8.75202 6.76288 9.28387 6.55192 9.79182 6.55192C10.2226 6.55192 10.6362 6.70379 10.9454 7.01294C11.6191 7.68664 11.5459 8.85591 10.7823 9.61951C10.0188 10.3831 8.84936 10.4562 8.17575 9.7826C7.50205 9.10894 7.57523 7.93967 8.33887 7.17607Z" fill="black"/>
<path d="M10.3519 9.18931C10.5928 8.94849 10.7475 8.64101 10.7877 8.32352C10.831 7.98067 10.7316 7.65979 10.515 7.44325C10.2985 7.22666 9.97799 7.12735 9.63472 7.17066C9.31723 7.2108 9.00979 7.36555 8.76897 7.60637C8.5281 7.8472 8.37339 8.15467 8.33321 8.47216C8.28985 8.81505 8.38921 9.13589 8.6058 9.35244C8.78904 9.53568 9.04688 9.63503 9.3296 9.63499C9.38104 9.63499 9.43334 9.63168 9.48611 9.62502C9.8036 9.58484 10.1111 9.43013 10.3519 9.18931ZM9.06158 8.89666C8.98689 8.82197 8.95448 8.6967 8.97266 8.55291C8.99467 8.37913 9.0865 8.20018 9.2247 8.06202C9.36286 7.92382 9.54181 7.83199 9.71559 7.81003C9.74181 7.80667 9.76746 7.80508 9.79226 7.80508C9.90339 7.80508 9.99827 7.83787 10.0593 7.8989C10.0593 7.8989 10.0593 7.8989 10.0593 7.89894C10.134 7.97363 10.1664 8.0989 10.1483 8.24269C10.1262 8.41647 10.0344 8.59541 9.89621 8.73357C9.75805 8.87178 9.57911 8.96361 9.40532 8.98557C9.2614 9.00371 9.13622 8.9713 9.06158 8.89666Z" fill="black"/>
<path d="M10.6031 16.8634C10.844 16.6226 10.9987 16.3151 11.0389 15.9976C11.0822 15.6547 10.9829 15.3339 10.7663 15.1174C10.5497 14.9008 10.2289 14.8015 9.88596 14.8448C9.56847 14.8849 9.26099 15.0396 9.02017 15.2804C8.7793 15.5213 8.6246 15.8287 8.58442 16.1462C8.5411 16.4891 8.64046 16.81 8.85704 17.0265C9.04024 17.2097 9.29808 17.3091 9.5808 17.3091C9.63224 17.3091 9.68454 17.3058 9.73736 17.2991C10.0548 17.2589 10.3623 17.1042 10.6031 16.8634ZM9.31278 16.5708C9.23813 16.4961 9.20569 16.3709 9.22386 16.2271C9.24587 16.0533 9.3377 15.8743 9.47591 15.7362C9.61407 15.598 9.79301 15.5061 9.96679 15.4842C9.99301 15.4809 10.0186 15.4792 10.0434 15.4792C10.1546 15.4792 10.2495 15.5121 10.3105 15.5731H10.3106C10.3852 15.6477 10.4176 15.773 10.3995 15.9168C10.3774 16.0906 10.2856 16.2695 10.1474 16.4077C10.0093 16.5459 9.83031 16.6377 9.65652 16.6597C9.51295 16.6779 9.38747 16.6455 9.31278 16.5708Z" fill="black"/>
<path d="M9.93339 18.5329C9.95032 18.5329 9.9676 18.5316 9.98487 18.5288C10.5419 18.4393 11.0761 18.1625 11.4893 17.7493C12.5042 16.7344 12.5775 15.1562 11.6525 14.2313C10.7273 13.3067 9.14912 13.3797 8.13412 14.3942C7.11952 15.4093 7.0465 16.9877 7.97134 17.9125C8.13649 18.0777 8.32634 18.2146 8.53567 18.3195C8.69467 18.3992 8.88836 18.3349 8.96816 18.1758C9.04787 18.0167 8.98354 17.823 8.82445 17.7433C8.67701 17.6694 8.54332 17.573 8.42716 17.4568C7.75351 16.7831 7.8266 15.6136 8.5899 14.8499C9.35359 14.0866 10.5231 14.0136 11.1969 14.687C11.8705 15.3606 11.7972 16.5299 11.0336 17.2935C10.7156 17.6116 10.3068 17.8242 9.88268 17.8924C9.70696 17.9206 9.58741 18.0859 9.6156 18.2616C9.64104 18.4201 9.77787 18.5329 9.93339 18.5329Z" fill="black"/>
<path d="M21.8901 1.19528C21.6349 0.551705 21.1355 0.159183 20.4838 0.0900381C19.3524 -0.0301594 17.8731 0.845602 16.8941 2.19313C16.1325 1.97564 15.3818 1.81792 14.6509 1.72287C14.4745 1.70009 14.3127 1.82433 14.2897 2.00086C14.2668 2.17736 14.3912 2.33902 14.5677 2.36197C15.6582 2.50383 16.7972 2.79136 17.953 3.21663C18.3022 3.34504 18.576 3.61891 18.7044 3.96816C18.736 4.05406 18.766 4.13876 18.7957 4.22329C18.3994 4.43593 17.9675 4.64568 17.5058 4.84959C17.4496 4.76528 17.3844 4.68522 17.3101 4.61087C17.0136 4.31444 16.6195 4.15123 16.2004 4.15123C15.7812 4.15123 15.3871 4.31448 15.0906 4.61087C14.4787 5.22277 14.4787 6.21839 15.0906 6.83025C15.3966 7.13618 15.7985 7.28917 16.2003 7.28917C16.6022 7.28917 17.0041 7.13618 17.3101 6.83025C17.6853 6.455 17.83 5.93545 17.745 5.44856C18.1915 5.25191 18.6114 5.0495 19.0009 4.84392C19.9067 7.76875 19.6671 9.78946 19.5076 10.5662C19.4652 10.7725 19.3694 10.9678 19.2305 11.1308C15.9828 14.938 13.1618 17.7876 9.49368 20.9666C9.03391 21.3649 8.35513 21.3811 7.87959 21.0051C5.29932 18.9643 2.95644 16.6213 0.915958 14.041C0.539895 13.5658 0.556053 12.8872 0.954462 12.4274C4.1319 8.7605 6.98152 5.93958 10.7905 2.69046C10.9529 2.55174 11.1483 2.45578 11.3549 2.41307C11.7525 2.33146 12.4165 2.23894 13.3205 2.26275C13.4983 2.26605 13.6464 2.12691 13.651 1.94899C13.6556 1.77108 13.5152 1.62308 13.3372 1.61844C12.3719 1.59322 11.6559 1.69334 11.2249 1.78183C10.9116 1.84655 10.6167 1.99128 10.372 2.20026C6.53705 5.47168 3.66748 8.31241 0.467441 12.0054C-0.133546 12.699 -0.157396 13.7234 0.410544 14.4409C2.48188 17.0602 4.86034 19.4388 7.4798 21.5106C7.82639 21.7847 8.24435 21.921 8.6621 21.9209C9.10971 21.9209 9.55707 21.7645 9.91577 21.4536C13.61 18.2521 16.4508 15.3825 19.7209 11.5489C19.9302 11.3034 20.0748 11.0084 20.139 10.6958C20.244 10.1843 20.3545 9.33089 20.2843 8.16961C20.2137 7.00146 19.9756 5.77855 19.5763 4.52467C20.3508 4.07117 20.9465 3.61736 21.3481 3.17374C21.9601 2.49768 22.1425 1.83202 21.8901 1.19528ZM16.8932 5.10967C16.7419 5.17133 16.6059 5.22484 16.4914 5.26889C16.4895 5.12999 16.4963 4.99007 16.5098 4.84968C16.6378 4.89506 16.7555 4.96777 16.8543 5.06661C16.8682 5.08045 16.8805 5.09519 16.8932 5.10967ZM16.8543 6.37456C16.4938 6.73511 15.9071 6.73519 15.5464 6.37456C15.1858 6.01396 15.1858 5.4272 15.5464 5.06661C15.6378 4.97525 15.7451 4.90597 15.8618 4.86012C15.8374 5.16338 15.8431 5.46502 15.8806 5.76102C15.8929 5.85741 15.9479 5.94314 16.0305 5.99437C16.0821 6.02638 16.141 6.0428 16.2003 6.0428C16.2359 6.0428 16.2716 6.03691 16.306 6.02496C16.3224 6.01929 16.6415 5.90812 17.1244 5.71156C17.1267 5.95139 17.037 6.19196 16.8543 6.37456ZM19.365 3.90065C19.3465 3.84899 19.3283 3.79742 19.3093 3.74568C19.1155 3.21878 18.7023 2.8055 18.1755 2.61182C17.9664 2.53486 17.7578 2.46253 17.5497 2.39429C18.3846 1.33817 19.5619 0.640144 20.4158 0.730991C20.8292 0.774867 21.1237 1.01101 21.2909 1.43284C21.6439 2.32312 20.3637 3.29906 19.365 3.90065Z" fill="black"/>
</g>
<defs>
<clipPath id="clip0">
<rect width="22" height="22" fill="white"/>
</clipPath>
</defs>
</svg>
