<svg width="22" height="22" viewBox="0 0 22 22" fill="none" xmlns="http://www.w3.org/2000/svg">
<g clip-path="url(#clip0)">
<path d="M19.4778 11.3401C19.6512 11.1365 19.7717 10.8926 19.8255 10.6309C20.0163 9.70163 20.2783 7.30529 19.0087 3.85541C18.8481 3.41828 18.5031 3.07328 18.0659 2.91261C14.6161 1.64312 12.2197 1.90509 11.2908 2.09619C11.0288 2.14965 10.7848 2.27015 10.5816 2.44385C6.78049 5.68613 3.90688 8.52725 0.709805 12.2164C0.210321 12.7927 0.188748 13.6437 0.661674 14.2418C2.72806 16.854 5.06738 19.1933 7.67962 21.2597C8.27773 21.7326 9.1287 21.7111 9.70498 21.2116C13.3944 18.0148 16.2353 15.1409 19.4778 11.3401ZM15.3199 6.60147C14.8329 6.1144 14.8329 5.32459 15.3199 4.83753C15.807 4.35046 16.5968 4.35046 17.0839 4.83753C17.5709 5.32459 17.5709 6.1144 17.0839 6.60147C16.5968 7.08853 15.807 7.08853 15.3199 6.60147Z" fill="#FFD064"/>
<path d="M11.2901 2.09711C11.0279 2.15074 10.7842 2.27111 10.5809 2.44468C6.77952 5.68701 3.90621 8.52847 0.70884 12.2173C0.209442 12.7935 0.188084 13.6448 0.660881 14.2428C0.696635 14.2881 0.732819 14.3335 0.768616 14.3784C0.683571 13.9209 0.834924 13.3962 1.2017 12.9823C4.51025 9.25073 7.44548 6.34386 11.2861 2.98379C11.4911 2.80369 11.7306 2.67064 11.9818 2.59909C12.6914 2.39539 14.2833 2.07399 16.4941 2.41636C13.8873 1.72595 12.0708 1.9366 11.2901 2.09711Z" fill="#FFC250"/>
<path d="M5.48378 14.2319C5.42662 14.1748 5.3797 14.1055 5.34716 14.026C5.21622 13.7057 5.36977 13.3399 5.69009 13.209L13.3979 10.0583C13.7181 9.92738 14.0838 10.0808 14.2149 10.4012C14.3459 10.7215 14.1923 11.0873 13.872 11.2182L6.16422 14.3689C5.92344 14.4674 5.65692 14.4051 5.48378 14.2319Z" fill="#DB5B6F"/>
<path d="M7.94723 10.0103C7.14779 9.21087 7.22098 7.83692 8.1104 6.94753C8.99983 6.05815 10.3738 5.98496 11.1732 6.78436C11.9726 7.5838 11.8994 8.9578 11.0101 9.84718C10.1207 10.7366 8.74667 10.8098 7.94723 10.0103ZM10.2871 7.67048C9.98152 7.36493 9.3905 7.43962 8.99648 7.83365C8.60249 8.22763 8.52776 8.81869 8.83331 9.12424C9.13889 9.42982 9.72991 9.35509 10.1239 8.96111C10.518 8.56712 10.5926 7.97606 10.2871 7.67048Z" fill="#DB5B6F"/>
<path d="M8.1987 17.6858C7.39926 16.8863 7.47245 15.5124 8.36183 14.623C9.25121 13.7336 10.6252 13.6604 11.4247 14.4598C12.2241 15.2593 12.1509 16.6332 11.2615 17.5226C10.3721 18.412 8.99814 18.4852 8.1987 17.6858ZM10.5385 15.346C10.2329 15.0404 9.64193 15.1151 9.24791 15.5091C8.85388 15.9031 8.77919 16.4941 9.08478 16.7997C9.39032 17.1053 9.98134 17.0306 10.3754 16.6365C10.7694 16.2425 10.8441 15.6515 10.5385 15.346Z" fill="#DB5B6F"/>
<path d="M14.5125 10.2792C14.3143 9.79521 13.7594 9.56229 13.2753 9.76014L5.56894 12.9103C5.33435 13.0062 5.15115 13.1877 5.05305 13.4214C4.95498 13.6551 4.95382 13.9129 5.04974 14.1476C5.09782 14.2651 5.16744 14.3699 5.25665 14.4592C5.2567 14.4592 5.2567 14.4592 5.2567 14.4593C5.43856 14.6411 5.68042 14.7376 5.92709 14.7376C6.04801 14.7376 6.1701 14.7144 6.28686 14.6667L13.9933 11.5165C14.4775 11.3185 14.7104 10.7635 14.5125 10.2792ZM13.7495 10.9199L6.04299 14.0701C5.92911 14.1166 5.79946 14.0905 5.71248 14.0035C5.68407 13.9751 5.66181 13.9414 5.6463 13.9036C5.61553 13.8284 5.61591 13.7457 5.64737 13.6707C5.67879 13.5958 5.73753 13.5377 5.81278 13.5069L13.5192 10.3567C13.6744 10.2933 13.8524 10.368 13.9159 10.5232C13.9794 10.6784 13.9047 10.8564 13.7495 10.9199Z" fill="black"/>
<path d="M11.2379 10.0752C12.2527 9.06034 12.3259 7.48217 11.401 6.55725C10.476 5.63232 8.89778 5.70551 7.88291 6.72037C6.86804 7.73524 6.79486 9.31341 7.71978 10.2383C8.1542 10.6727 8.73246 10.8869 9.32898 10.8869C10.0027 10.8869 10.6995 10.6135 11.2379 10.0752ZM8.33869 7.17607C8.75184 6.76287 9.28368 6.55192 9.79163 6.55192C10.2224 6.55192 10.6361 6.70379 10.9452 7.01294C11.6189 7.68664 11.5457 8.85591 10.7821 9.61951C10.0186 10.3831 8.84918 10.4562 8.17556 9.78259C7.50186 9.10894 7.57505 7.93967 8.33869 7.17607Z" fill="black"/>
<path d="M10.3518 9.18931C10.5927 8.94849 10.7474 8.64101 10.7875 8.32352C10.8309 7.98067 10.7315 7.65979 10.5149 7.44325C10.2984 7.22666 9.97787 7.12735 9.63459 7.17066C9.3171 7.2108 9.00967 7.36555 8.76885 7.60637C8.52798 7.8472 8.37327 8.15468 8.33309 8.47217C8.28973 8.81505 8.38909 9.13589 8.60567 9.35244C8.78891 9.53568 9.04676 9.63503 9.32948 9.63499C9.38092 9.63499 9.43322 9.63168 9.48599 9.62502C9.80348 9.58484 10.111 9.43014 10.3518 9.18931ZM9.06145 8.89666C8.98677 8.82197 8.95436 8.6967 8.97254 8.55291C8.99454 8.37913 9.08638 8.20018 9.22458 8.06202C9.36274 7.92382 9.54168 7.83199 9.71547 7.81003C9.74168 7.80667 9.76734 7.80508 9.79214 7.80508C9.90327 7.80508 9.99815 7.83787 10.0592 7.8989C10.0592 7.8989 10.0592 7.8989 10.0592 7.89894C10.1339 7.97363 10.1663 8.0989 10.1481 8.24269C10.1261 8.41647 10.0343 8.59541 9.89609 8.73357C9.75793 8.87178 9.57899 8.96361 9.4052 8.98557C9.26128 9.00371 9.1361 8.9713 9.06145 8.89666Z" fill="black"/>
<path d="M10.6031 16.8634C10.844 16.6225 10.9987 16.3151 11.0389 15.9976C11.0822 15.6547 10.9829 15.3338 10.7663 15.1173C10.5497 14.9007 10.2289 14.8015 9.88596 14.8447C9.56847 14.8848 9.261 15.0395 9.02017 15.2804C8.7793 15.5212 8.6246 15.8287 8.58442 16.1462C8.5411 16.4891 8.64046 16.8099 8.85704 17.0265C9.04024 17.2097 9.29808 17.309 9.58081 17.309C9.63225 17.309 9.68454 17.3057 9.73736 17.2991C10.0548 17.2589 10.3623 17.1042 10.6031 16.8634ZM9.31278 16.5707C9.23813 16.4961 9.20569 16.3708 9.22387 16.227C9.24587 16.0532 9.3377 15.8743 9.47591 15.7361C9.61407 15.5979 9.79301 15.5061 9.9668 15.4841C9.99301 15.4808 10.0186 15.4792 10.0434 15.4792C10.1546 15.4792 10.2495 15.512 10.3105 15.573H10.3106C10.3852 15.6477 10.4176 15.773 10.3995 15.9167C10.3775 16.0905 10.2856 16.2695 10.1474 16.4076C10.0093 16.5458 9.83031 16.6377 9.65653 16.6596C9.51295 16.6778 9.38747 16.6454 9.31278 16.5707Z" fill="black"/>
<path d="M9.93339 18.5329C9.95032 18.5329 9.9676 18.5316 9.98487 18.5288C10.5419 18.4394 11.0761 18.1625 11.4893 17.7493C12.5042 16.7344 12.5775 15.1563 11.6525 14.2313C10.7273 13.3067 9.14912 13.3798 8.13412 14.3943C7.11952 15.4094 7.0465 16.9877 7.97134 17.9126C8.13649 18.0777 8.32634 18.2146 8.53567 18.3195C8.69467 18.3992 8.88836 18.335 8.96816 18.1758C9.04787 18.0167 8.98354 17.8231 8.82445 17.7433C8.67701 17.6695 8.54332 17.573 8.42716 17.4568C7.75351 16.7832 7.8266 15.6137 8.5899 14.85C9.35359 14.0867 10.5231 14.0137 11.1969 14.6871C11.8705 15.3607 11.7972 16.5299 11.0336 17.2935C10.7156 17.6116 10.3068 17.8243 9.88268 17.8924C9.70696 17.9207 9.58741 18.086 9.6156 18.2617C9.64104 18.4202 9.77787 18.5329 9.93339 18.5329Z" fill="black"/>
<path d="M21.89 1.19528C21.6349 0.551705 21.1354 0.159183 20.4838 0.0900381C19.3524 -0.0301594 17.8731 0.845602 16.894 2.19313C16.1324 1.97564 15.3817 1.81792 14.6508 1.72287C14.4744 1.70009 14.3127 1.82433 14.2897 2.00086C14.2667 2.17736 14.3912 2.33902 14.5677 2.36197C15.6582 2.50383 16.7971 2.79136 17.953 3.21663C18.3021 3.34504 18.576 3.61891 18.7044 3.96816C18.736 4.05406 18.7659 4.13876 18.7956 4.22329C18.3993 4.43593 17.9674 4.64568 17.5058 4.84959C17.4495 4.76528 17.3844 4.68522 17.31 4.61087C17.0136 4.31444 16.6195 4.15123 16.2003 4.15123C15.7811 4.15123 15.387 4.31448 15.0906 4.61087C14.4787 5.22277 14.4787 6.21839 15.0906 6.83025C15.3965 7.13618 15.7984 7.28917 16.2003 7.28917C16.6022 7.28917 17.0041 7.13618 17.31 6.83025C17.6853 6.455 17.83 5.93545 17.745 5.44856C18.1914 5.25191 18.6113 5.0495 19.0008 4.84392C19.9066 7.76875 19.667 9.78946 19.5075 10.5662C19.4652 10.7725 19.3693 10.9678 19.2304 11.1308C15.9827 14.938 13.1618 17.7876 9.49362 20.9666C9.03385 21.3649 8.35508 21.3811 7.87953 21.0051C5.29926 18.9643 2.95638 16.6213 0.915897 14.041C0.539834 13.5658 0.555992 12.8872 0.954402 12.4274C4.13184 8.7605 6.98147 5.93958 10.7904 2.69046C10.9529 2.55174 11.1482 2.45578 11.3549 2.41307C11.7524 2.33146 12.4164 2.23894 13.3204 2.26275C13.4983 2.26605 13.6463 2.12691 13.6509 1.94899C13.6556 1.77108 13.5151 1.62308 13.3372 1.61844C12.3719 1.59322 11.6559 1.69334 11.2248 1.78183C10.9116 1.84655 10.6166 1.99128 10.372 2.20026C6.53699 5.47168 3.66742 8.31241 0.46738 12.0054C-0.133607 12.699 -0.157457 13.7234 0.410483 14.4409C2.48182 17.0602 4.86028 19.4388 7.47975 21.5106C7.82633 21.7847 8.24429 21.921 8.66204 21.9209C9.10965 21.9209 9.55701 21.7645 9.91571 21.4536C13.61 18.2521 16.4507 15.3825 19.7209 11.5489C19.9302 11.3034 20.0747 11.0084 20.1389 10.6958C20.2439 10.1843 20.3544 9.33089 20.2842 8.16961C20.2136 7.00146 19.9755 5.77855 19.5762 4.52467C20.3507 4.07117 20.9464 3.61736 21.348 3.17374C21.9601 2.49768 22.1424 1.83202 21.89 1.19528ZM16.8932 5.10967C16.7418 5.17133 16.6059 5.22484 16.4914 5.26889C16.4895 5.12999 16.4962 4.99007 16.5098 4.84968C16.6377 4.89506 16.7554 4.96777 16.8542 5.06661C16.8681 5.08045 16.8804 5.09519 16.8932 5.10967ZM16.8543 6.37456C16.4937 6.73511 15.907 6.73519 15.5464 6.37456C15.1858 6.01396 15.1858 5.4272 15.5464 5.06661C15.6377 4.97525 15.7451 4.90597 15.8618 4.86012C15.8374 5.16338 15.8431 5.46502 15.8806 5.76102C15.8928 5.85741 15.9478 5.94314 16.0304 5.99437C16.082 6.02638 16.141 6.0428 16.2003 6.0428C16.2359 6.0428 16.2716 6.03691 16.306 6.02496C16.3223 6.01929 16.6414 5.90812 17.1244 5.71156C17.1267 5.95139 17.0369 6.19196 16.8543 6.37456ZM19.3649 3.90065C19.3464 3.84899 19.3283 3.79742 19.3092 3.74568C19.1155 3.21878 18.7022 2.8055 18.1754 2.61182C17.9663 2.53486 17.7577 2.46253 17.5497 2.39429C18.3845 1.33817 19.5618 0.640144 20.4158 0.730991C20.8291 0.774867 21.1236 1.01101 21.2909 1.43284C21.6438 2.32312 20.3637 3.29906 19.3649 3.90065Z" fill="black"/>
</g>
<defs>
<clipPath id="clip0">
<rect width="22" height="22" fill="white"/>
</clipPath>
</defs>
</svg>
