<svg width="22" height="22" viewBox="0 0 22 22" fill="none" xmlns="http://www.w3.org/2000/svg">
<path d="M21.6452 8.87097H19.9774C19.7509 7.91179 19.3707 6.99556 18.8515 6.15787L20.0314 4.97803C20.1699 4.83947 20.1699 4.61485 20.0314 4.47629L17.5237 1.96723C17.3851 1.82871 17.1605 1.82871 17.022 1.96723L15.8418 3.14706C15.0042 2.62825 14.0881 2.24848 13.129 2.02258V0.354839C13.129 0.158879 12.9702 0 12.7742 0H9.22581C9.02985 0 8.87097 0.158879 8.87097 0.354839V2.02258C7.91184 2.24892 6.99573 2.62913 6.15823 3.14848L4.97803 1.96723C4.83947 1.82871 4.61485 1.82871 4.47629 1.96723L1.96723 4.47629C1.82871 4.61485 1.82871 4.83947 1.96723 4.97803L3.14706 6.15787C2.62833 6.99565 2.24861 7.91188 2.02258 8.87097H0.354839C0.158879 8.87097 0 9.02985 0 9.22581V12.7742C0 12.9702 0.158879 13.129 0.354839 13.129H2.02258C2.24906 14.0882 2.62927 15.0044 3.14848 15.8421L1.96723 17.022C1.82871 17.1605 1.82871 17.3851 1.96723 17.5237L4.47629 20.0328C4.61707 20.1659 4.83725 20.1659 4.97803 20.0328L6.15787 18.8529C6.99565 19.3717 7.91188 19.7514 8.87097 19.9774V21.6452C8.87097 21.8411 9.02985 22 9.22581 22H12.7742C12.9702 22 13.129 21.8411 13.129 21.6452V19.9774C14.0882 19.7509 15.0044 19.3707 15.8421 18.8515L17.022 20.0314C17.1605 20.1699 17.3851 20.1699 17.5237 20.0314L20.0328 17.5223C20.1713 17.3837 20.1713 17.1591 20.0328 17.0205L18.8529 15.8407C19.3715 15.0034 19.7513 14.0876 19.9774 13.129H21.6452C21.8411 13.129 22 12.9702 22 12.7742V9.22581C22 9.02985 21.8411 8.87097 21.6452 8.87097ZM21.2903 12.4194H19.6935C19.5249 12.4193 19.3795 12.538 19.3458 12.7032C19.129 13.7712 18.7073 14.7871 18.1039 15.6945C18.0105 15.8352 18.0292 16.0222 18.1486 16.1416L19.2798 17.2725L17.2725 19.2798L16.1416 18.1486C16.0222 18.0292 15.8352 18.0105 15.6945 18.1039C14.7871 18.7073 13.7712 19.129 12.7032 19.3458C12.538 19.3795 12.4193 19.5249 12.4194 19.6935V21.2903H9.58064V19.6935C9.58069 19.5249 9.462 19.3795 9.29677 19.3458C8.2288 19.129 7.21294 18.7073 6.30548 18.1039C6.16479 18.0105 5.97779 18.0292 5.85839 18.1486L4.72752 19.2798L2.71984 17.2728L3.85106 16.142C3.97047 16.0226 3.98914 15.8356 3.89577 15.6949C3.29233 14.7874 2.8706 13.7716 2.65384 12.7036C2.62026 12.5383 2.47509 12.4195 2.30645 12.4194H0.709677V9.58064H2.30645C2.47509 9.58069 2.62048 9.462 2.65419 9.29677C2.87096 8.2288 3.29268 7.21294 3.89613 6.30548C3.9895 6.16479 3.97078 5.97779 3.85142 5.85839L2.71984 4.72716L4.72716 2.71984L5.85839 3.85106C5.97779 3.97047 6.16479 3.98914 6.30548 3.89577C7.21285 3.29246 8.22858 2.87069 9.29642 2.65384C9.46169 2.62026 9.58047 2.47509 9.58064 2.30645V0.709677H12.4194V2.30645C12.4193 2.47509 12.538 2.62048 12.7032 2.65419C13.7711 2.87104 14.7868 3.29281 15.6942 3.89613C15.8349 3.9895 16.0219 3.97082 16.1413 3.85142L17.2725 2.72019L19.2798 4.72752L18.1486 5.85839C18.0292 5.97779 18.0105 6.16479 18.1039 6.30548C18.7073 7.21294 19.129 8.2288 19.3458 9.29677C19.3795 9.462 19.5249 9.58069 19.6935 9.58064H21.2903V12.4194Z" fill="#165692"/>
<path d="M11 7.09677C8.84434 7.09677 7.0968 8.84431 7.0968 11C7.0968 13.1557 8.84434 14.9032 11 14.9032C13.1557 14.9032 14.9033 13.1557 14.9033 11C14.9007 8.84537 13.1547 7.0993 11 7.09677ZM11 14.1935C9.2363 14.1935 7.80648 12.7637 7.80648 11C7.80648 9.23623 9.2363 7.80645 11 7.80645C12.7638 7.80645 14.1936 9.23623 14.1936 11C14.1916 12.7629 12.763 14.1916 11 14.1935Z" fill="#165692"/>
<path d="M8.86842 8.86842L10.7518 8.24061L10.8517 8.26914L13.1508 8.92603L13.7594 10.7518L13.7309 10.8517L13.1266 12.9666L10.75 13.7588L9.05592 13.1941L8.24122 10.75L8.86842 8.86842Z" stroke="#165692" stroke-width="12"/>
<circle cx="11" cy="11" r="3" fill="#F9F9F9" stroke="#F9F9F9"/>
<path d="M21.6452 8.87097H19.9774C19.7509 7.91179 19.3707 6.99556 18.8515 6.15787L20.0314 4.97803C20.1699 4.83947 20.1699 4.61485 20.0314 4.47629L17.5237 1.96723C17.3851 1.82871 17.1605 1.82871 17.022 1.96723L15.8418 3.14706C15.0042 2.62825 14.0881 2.24848 13.129 2.02258V0.354839C13.129 0.158879 12.9702 0 12.7742 0H9.22581C9.02985 0 8.87097 0.158879 8.87097 0.354839V2.02258C7.91184 2.24892 6.99573 2.62913 6.15823 3.14848L4.97803 1.96723C4.83947 1.82871 4.61485 1.82871 4.47629 1.96723L1.96723 4.47629C1.82871 4.61485 1.82871 4.83947 1.96723 4.97803L3.14706 6.15787C2.62833 6.99565 2.24861 7.91188 2.02258 8.87097H0.354839C0.158879 8.87097 0 9.02985 0 9.22581V12.7742C0 12.9702 0.158879 13.129 0.354839 13.129H2.02258C2.24906 14.0882 2.62927 15.0044 3.14848 15.8421L1.96723 17.022C1.82871 17.1605 1.82871 17.3851 1.96723 17.5237L4.47629 20.0328C4.61707 20.1659 4.83725 20.1659 4.97803 20.0328L6.15787 18.8529C6.99565 19.3717 7.91188 19.7514 8.87097 19.9774V21.6452C8.87097 21.8411 9.02985 22 9.22581 22H12.7742C12.9702 22 13.129 21.8411 13.129 21.6452V19.9774C14.0882 19.7509 15.0044 19.3707 15.8421 18.8515L17.022 20.0314C17.1605 20.1699 17.3851 20.1699 17.5237 20.0314L20.0328 17.5223C20.1713 17.3837 20.1713 17.1591 20.0328 17.0205L18.8529 15.8407C19.3715 15.0034 19.7513 14.0876 19.9774 13.129H21.6452C21.8411 13.129 22 12.9702 22 12.7742V9.22581C22 9.02985 21.8411 8.87097 21.6452 8.87097ZM21.2903 12.4194H19.6935C19.5249 12.4193 19.3795 12.538 19.3458 12.7032C19.129 13.7712 18.7073 14.7871 18.1039 15.6945C18.0105 15.8352 18.0292 16.0222 18.1486 16.1416L19.2798 17.2725L17.2725 19.2798L16.1416 18.1486C16.0222 18.0292 15.8352 18.0105 15.6945 18.1039C14.7871 18.7073 13.7712 19.129 12.7032 19.3458C12.538 19.3795 12.4193 19.5249 12.4194 19.6935V21.2903H9.58064V19.6935C9.58069 19.5249 9.462 19.3795 9.29677 19.3458C8.2288 19.129 7.21294 18.7073 6.30548 18.1039C6.16479 18.0105 5.97779 18.0292 5.85839 18.1486L4.72752 19.2798L2.71984 17.2728L3.85106 16.142C3.97047 16.0226 3.98914 15.8356 3.89577 15.6949C3.29233 14.7874 2.8706 13.7716 2.65384 12.7036C2.62026 12.5383 2.47509 12.4195 2.30645 12.4194H0.709677V9.58064H2.30645C2.47509 9.58069 2.62048 9.462 2.65419 9.29677C2.87096 8.2288 3.29268 7.21294 3.89613 6.30548C3.9895 6.16479 3.97078 5.97779 3.85142 5.85839L2.71984 4.72716L4.72716 2.71984L5.85839 3.85106C5.97779 3.97047 6.16479 3.98914 6.30548 3.89577C7.21285 3.29246 8.22858 2.87069 9.29642 2.65384C9.46169 2.62026 9.58047 2.47509 9.58064 2.30645V0.709677H12.4194V2.30645C12.4193 2.47509 12.538 2.62048 12.7032 2.65419C13.7711 2.87104 14.7868 3.29281 15.6942 3.89613C15.8349 3.9895 16.0219 3.97082 16.1413 3.85142L17.2725 2.72019L19.2798 4.72752L18.1486 5.85839C18.0292 5.97779 18.0105 6.16479 18.1039 6.30548C18.7073 7.21294 19.129 8.2288 19.3458 9.29677C19.3795 9.462 19.5249 9.58069 19.6935 9.58064H21.2903V12.4194Z" fill="black"/>
<path d="M11 7.09683C8.84434 7.09683 7.0968 8.84437 7.0968 11.0001C7.0968 13.1557 8.84434 14.9033 11 14.9033C13.1557 14.9033 14.9033 13.1557 14.9033 11.0001C14.9007 8.84543 13.1547 7.09936 11 7.09683ZM11 14.1936C9.2363 14.1936 7.80648 12.7638 7.80648 11.0001C7.80648 9.23629 9.2363 7.80651 11 7.80651C12.7638 7.80651 14.1936 9.23629 14.1936 11.0001C14.1916 12.763 12.763 14.1917 11 14.1936Z" fill="black"/>
</svg>
