<svg width="20" height="20" viewBox="0 0 20 20" fill="none" xmlns="http://www.w3.org/2000/svg">
<g clip-path="url(#clip0)">
<path d="M9.06759 10.9305C7.73642 9.59934 5.57822 9.59934 4.24705 10.9305C3.82893 11.3486 3.54217 11.8484 3.3867 12.3784C3.72444 12.5854 3.88381 12.4564 4.25252 12.7618C4.65955 13.099 4.49897 13.2841 4.88525 13.6358C5.27154 13.9876 5.4408 13.8104 5.81416 14.1837C6.18752 14.5571 6.01033 14.7264 6.36205 15.1126C6.71381 15.4989 6.89888 15.3383 7.23611 15.7454C7.54158 16.1142 7.41267 16.2736 7.61966 16.6114C8.1497 16.4559 8.64943 16.1692 9.06755 15.7511C10.3987 14.4199 10.3987 12.2617 9.06759 10.9305Z" fill="#E29375"/>
<path d="M18.6498 1.2318C17.3412 -0.0167187 15.2556 -0.0167187 13.9469 1.2318C12.5572 2.55758 12.5376 4.7593 13.8881 6.1098C12.5377 4.75934 10.3359 4.77895 9.01012 6.16859C7.7616 7.4773 7.7616 9.56285 9.01012 10.8715C10.3359 12.2612 12.5376 12.2808 13.8881 10.9303C13.8933 10.9251 13.8985 10.9199 13.9036 10.9147C13.9927 10.8245 14.1462 10.8816 14.153 11.0083C14.153 11.392 14.4641 11.7031 14.8479 11.7031C15.2316 11.7031 15.5427 11.392 15.5427 11.0083V9.31078C15.5427 8.92129 15.8614 8.59055 16.2509 8.59785C16.6285 8.60492 16.9324 8.91324 16.9324 9.29258V12.6307C16.9324 13.0202 17.2511 13.3509 17.6405 13.3436C18.0182 13.3366 18.3221 13.0282 18.3221 12.6489V6.97992C18.3221 6.66461 18.4493 6.36266 18.6752 6.14273C18.6864 6.13184 18.6975 6.12086 18.7086 6.1098C20.0591 4.75934 20.0395 2.55758 18.6498 1.2318Z" fill="#E29375"/>
<path d="M18.6498 1.23193C18.1758 0.779746 17.6 0.491348 16.996 0.366699C17.0268 0.394043 17.0573 0.422012 17.0873 0.450684C18.477 1.77646 18.4966 3.97818 17.1461 5.32869C17.135 5.33975 17.1239 5.35072 17.1127 5.36162C16.8868 5.58154 16.7596 5.8835 16.7596 6.19881V8.8342C16.8671 8.95654 16.9324 9.11705 16.9324 9.29275V12.6309C16.9324 13.0203 17.2511 13.3511 17.6405 13.3438C18.0181 13.3367 18.322 13.0284 18.322 12.6491V6.98006C18.322 6.66475 18.4492 6.36279 18.6752 6.14287C18.6863 6.13197 18.6975 6.121 18.7086 6.10994C20.0591 4.75947 20.0395 2.55771 18.6498 1.23193Z" fill="#DA8059"/>
<path d="M17.1415 4.54252C16.9933 4.69077 16.7746 4.72073 16.5856 4.77116C16.3907 4.82319 16.1847 4.90331 15.9898 4.85127C15.8009 4.80084 15.6623 4.63209 15.514 4.48385C15.3658 4.33561 15.1971 4.19702 15.1466 4.00803C15.0946 3.81311 15.1747 3.60713 15.2267 3.41221C15.2772 3.22327 15.3071 3.00463 15.4554 2.85639C15.6036 2.70815 15.8222 2.67819 16.0112 2.62776C16.2061 2.57573 16.4121 2.49561 16.607 2.54764C16.796 2.59807 16.9346 2.76682 17.0828 2.91506C17.2311 3.06331 17.3998 3.2019 17.4502 3.39088C17.5023 3.58581 17.4222 3.79178 17.3701 3.9867C17.3197 4.17565 17.2897 4.39428 17.1415 4.54252Z" fill="#AA8080"/>
<path d="M11.4779 9.71217C11.2682 9.71217 11.0924 9.57877 10.9232 9.4808C10.7485 9.37975 10.5462 9.2908 10.4452 9.11615C10.3473 8.94686 10.3685 8.72955 10.3685 8.5199C10.3685 8.31025 10.3473 8.09295 10.4452 7.92365C10.5462 7.749 10.7485 7.66006 10.9232 7.559C11.0924 7.46107 11.2682 7.32764 11.4778 7.32764C11.6875 7.32764 11.8633 7.46104 12.0326 7.559C12.2072 7.66006 12.4095 7.749 12.5105 7.92365C12.6085 8.09295 12.5872 8.31025 12.5872 8.5199C12.5872 8.72955 12.6085 8.94686 12.5105 9.11615C12.4095 9.2908 12.2072 9.37975 12.0326 9.4808C11.8633 9.57873 11.6875 9.71217 11.4779 9.71217Z" fill="#AA8080"/>
<path d="M5.81428 14.1836C5.66604 14.0354 5.63607 13.8168 5.58564 13.6278C5.53361 13.4329 5.4535 13.2269 5.50553 13.032C5.55596 12.843 5.72471 12.7044 5.87295 12.5562C6.02119 12.4079 6.15979 12.2392 6.34877 12.1888C6.54369 12.1367 6.74967 12.2168 6.94459 12.2689C7.13354 12.3193 7.35217 12.3493 7.50041 12.4975C7.64866 12.6457 7.67862 12.8644 7.72905 13.0534C7.78108 13.2483 7.86119 13.4543 7.80916 13.6492C7.75873 13.8381 7.58998 13.9767 7.44174 14.125C7.2935 14.2732 7.1549 14.4419 6.96592 14.4924C6.771 14.5444 6.56502 14.4643 6.3701 14.4123C6.18115 14.3618 5.96252 14.3319 5.81428 14.1836Z" fill="#AA8080"/>
<path d="M6.36209 15.1126C6.01037 14.7264 6.18756 14.5571 5.8142 14.1838C5.44084 13.8104 5.27158 13.9876 4.88529 13.6358C4.499 13.2842 4.65959 13.099 4.25255 12.7619C3.88384 12.4564 3.72447 12.5854 3.38673 12.3784C3.04728 13.5359 3.33404 14.838 4.24708 15.7511C5.16013 16.6641 6.46228 16.9509 7.61975 16.6114C7.41275 16.2737 7.54166 16.1142 7.23619 15.7454C6.89892 15.3383 6.71385 15.4989 6.36209 15.1126Z" fill="#F6E7C6"/>
<path d="M6.88725 15.4595C6.13639 15.9244 5.24354 16.0708 4.40303 15.8976C5.30459 16.6939 6.52662 16.9318 7.61963 16.6112C7.41264 16.2735 7.54155 16.114 7.23608 15.7453C7.10256 15.584 6.99287 15.5119 6.88725 15.4595Z" fill="#F4D8A5"/>
<path d="M9.06761 10.9303C8.57898 10.4416 7.9789 10.1324 7.34921 10.0024C7.40234 10.0494 7.45433 10.0982 7.50511 10.149C8.83628 11.4802 8.83628 13.6384 7.50511 14.9696C7.3146 15.1601 7.10702 15.3234 6.88729 15.4594C6.99292 15.5118 7.10261 15.584 7.23612 15.7452C7.54163 16.114 7.41273 16.2734 7.61968 16.6112C8.14972 16.4557 8.64945 16.1689 9.06757 15.7508C10.3987 14.4196 10.3987 12.2614 9.06761 10.9303Z" fill="#DA8059"/>
<path d="M4.24699 15.7508C4.06898 15.5728 3.91477 15.3799 3.78438 15.1763L0.507773 18.4529C0.221367 18.7393 0.221367 19.2036 0.507773 19.49C0.79418 19.7764 1.25852 19.7764 1.54492 19.49L4.82152 16.2134C4.61785 16.083 4.42504 15.9288 4.24699 15.7508Z" fill="#F1CBB9"/>
<path d="M4.24697 15.7508C4.06896 15.5728 3.91474 15.3799 3.78431 15.1763L3.22158 15.739C3.36096 15.9386 3.51881 16.1275 3.69451 16.3032C3.87021 16.4789 4.05877 16.637 4.25803 16.7768L4.82142 16.2134C4.61783 16.083 4.42502 15.9288 4.24697 15.7508Z" fill="#ECBEAC"/>
<path d="M17.6784 3.97204C17.7316 3.78716 17.7978 3.55708 17.7332 3.31517C17.6695 3.07661 17.5025 2.91454 17.355 2.77161C17.2957 2.71415 17.2793 2.69755 17.226 2.64263C17.0831 2.49525 16.9211 2.32818 16.6825 2.2645C16.4406 2.1999 16.2105 2.26615 16.0257 2.31927C15.9356 2.34517 15.9216 2.34865 15.8437 2.36755C15.6591 2.41228 15.4294 2.46786 15.2481 2.64911C15.0668 2.83044 15.0112 3.06025 14.9665 3.24493C14.9473 3.32443 14.9436 3.33861 14.9184 3.42642C14.8652 3.61134 14.7989 3.84154 14.8635 4.08353C14.9273 4.32208 15.0943 4.48415 15.2417 4.62708C15.3011 4.68454 15.3174 4.70115 15.3707 4.75607C15.5136 4.90345 15.6757 5.07052 15.9142 5.13419C15.9855 5.15322 16.0557 5.16091 16.1241 5.16091C16.2877 5.16091 16.4407 5.11693 16.5711 5.07939C16.6598 5.05384 16.6784 5.04919 16.7529 5.03118C16.9376 4.98646 17.1673 4.93083 17.3486 4.74958C17.5299 4.56822 17.5855 4.33841 17.6302 4.15368C17.6495 4.07427 17.6533 4.05962 17.6784 3.97204ZM17.1153 3.81005C17.088 3.9049 17.0817 3.92943 17.0608 4.01587C17.0291 4.14677 16.9992 4.2704 16.9343 4.33529C16.8694 4.40013 16.7459 4.43009 16.615 4.46173C16.5298 4.48236 16.5025 4.48943 16.4092 4.51634C16.2761 4.55458 16.1502 4.59068 16.0653 4.56814C15.9833 4.54622 15.8901 4.45009 15.7913 4.34822C15.7314 4.2865 15.7132 4.2681 15.6496 4.20654C15.5477 4.10775 15.4515 4.01439 15.4296 3.93243C15.4069 3.84747 15.4431 3.72165 15.4814 3.58845C15.5092 3.49212 15.5152 3.46837 15.536 3.38275C15.5677 3.25189 15.5975 3.12829 15.6624 3.06345C15.7272 2.99861 15.8508 2.96868 15.9816 2.937C16.0704 2.91548 16.0932 2.90947 16.1875 2.8824C16.2879 2.85353 16.4391 2.80607 16.5314 2.8306C16.6316 2.85736 16.7473 2.99365 16.8755 3.12212C16.8991 3.14564 16.9231 3.16892 16.9471 3.1922C17.0489 3.29099 17.1452 3.38435 17.1671 3.4663C17.1898 3.55122 17.1536 3.67697 17.1153 3.81005Z" fill="black"/>
<path d="M12.7641 7.77693C12.6387 7.56025 12.4292 7.44436 12.2609 7.35123C12.1798 7.30647 12.1677 7.29916 12.0982 7.25682C11.9361 7.15787 11.7342 7.03467 11.4778 7.03467C11.2214 7.03467 11.0196 7.15783 10.8574 7.25682C10.7879 7.29916 10.7748 7.30701 10.695 7.35111C10.5265 7.44428 10.317 7.56021 10.1916 7.77689C10.0679 7.99068 10.0714 8.22342 10.0745 8.42873C10.0758 8.51346 10.0758 8.52627 10.0745 8.61107C10.0714 8.81639 10.0679 9.04904 10.1915 9.26287C10.3169 9.47955 10.5264 9.59545 10.6947 9.68857C10.7758 9.73338 10.7879 9.74064 10.8574 9.78299C11.0195 9.88193 11.2214 10.0051 11.4778 10.0051C11.7342 10.0051 11.936 9.88197 12.0982 9.78299C12.1682 9.74033 12.1801 9.73322 12.2608 9.68857C12.4292 9.59545 12.6387 9.47951 12.764 9.26287C12.8877 9.04908 12.8842 8.81639 12.8811 8.61107C12.8798 8.52635 12.8798 8.5135 12.8811 8.42869C12.8842 8.22338 12.8877 7.99072 12.7641 7.77693ZM12.2952 8.62002C12.2973 8.76189 12.2994 8.89588 12.2569 8.96939C12.2129 9.04541 12.0984 9.10877 11.9772 9.17584C11.8931 9.22232 11.8681 9.23697 11.7931 9.28275C11.6781 9.35287 11.5695 9.41912 11.4779 9.41912C11.3861 9.41912 11.2775 9.35287 11.1626 9.28275C11.0845 9.23514 11.0636 9.22295 10.9784 9.1758C10.8572 9.10873 10.7427 9.04541 10.6988 8.96943C10.6563 8.89592 10.6583 8.76193 10.6605 8.62002C10.6618 8.53408 10.6618 8.50564 10.6605 8.41975C10.6583 8.27783 10.6563 8.14385 10.6988 8.07037C10.7428 7.99428 10.8574 7.93092 10.9786 7.86385C11.065 7.81611 11.0883 7.80229 11.1626 7.75701C11.2775 7.68689 11.3861 7.62064 11.4779 7.62064C11.5696 7.62064 11.6781 7.68689 11.7931 7.75701C11.8721 7.80525 11.8941 7.81795 11.9772 7.86396C12.0985 7.93104 12.2129 7.99436 12.2569 8.07033C12.2994 8.14385 12.2973 8.27783 12.2952 8.41971C12.2938 8.50568 12.2938 8.53404 12.2952 8.62002Z" fill="black"/>
<path d="M13.3075 7.41992C13.4693 7.41992 13.6005 7.28876 13.6005 7.12695C13.6005 6.96515 13.4693 6.83398 13.3075 6.83398C13.1457 6.83398 13.0145 6.96515 13.0145 7.12695C13.0145 7.28876 13.1457 7.41992 13.3075 7.41992Z" fill="black"/>
<path d="M14.7004 5.59033C14.8622 5.59033 14.9934 5.45917 14.9934 5.29736C14.9934 5.13556 14.8622 5.00439 14.7004 5.00439C14.5386 5.00439 14.4074 5.13556 14.4074 5.29736C14.4074 5.45917 14.5386 5.59033 14.7004 5.59033Z" fill="black"/>
<path d="M16.5347 6.27881C16.6965 6.27881 16.8277 6.14764 16.8277 5.98584C16.8277 5.82404 16.6965 5.69287 16.5347 5.69287C16.3729 5.69287 16.2417 5.82404 16.2417 5.98584C16.2417 6.14764 16.3729 6.27881 16.5347 6.27881Z" fill="black"/>
<path d="M18.2836 5.01611C18.4454 5.01611 18.5766 4.88494 18.5766 4.72314C18.5766 4.56134 18.4454 4.43018 18.2836 4.43018C18.1218 4.43018 17.9906 4.56134 17.9906 4.72314C17.9906 4.88494 18.1218 5.01611 18.2836 5.01611Z" fill="black"/>
<path d="M15.6659 1.80957C15.8277 1.80957 15.9589 1.67841 15.9589 1.5166C15.9589 1.3548 15.8277 1.22363 15.6659 1.22363C15.5041 1.22363 15.3729 1.3548 15.3729 1.5166C15.3729 1.67841 15.5041 1.80957 15.6659 1.80957Z" fill="black"/>
<path d="M10.4148 6.84473C10.5766 6.84473 10.7077 6.71356 10.7077 6.55176C10.7077 6.38996 10.5766 6.25879 10.4148 6.25879C10.253 6.25879 10.1218 6.38996 10.1218 6.55176C10.1218 6.71356 10.253 6.84473 10.4148 6.84473Z" fill="black"/>
<path d="M11.1529 10.9673C11.3147 10.9673 11.4458 10.8361 11.4458 10.6743C11.4458 10.5125 11.3147 10.3813 11.1529 10.3813C10.9911 10.3813 10.8599 10.5125 10.8599 10.6743C10.8599 10.8361 10.9911 10.9673 11.1529 10.9673Z" fill="black"/>
<path d="M13.7808 9.7124C13.9426 9.7124 14.0738 9.58124 14.0738 9.41943C14.0738 9.25763 13.9426 9.12646 13.7808 9.12646C13.619 9.12646 13.4878 9.25763 13.4878 9.41943C13.4878 9.58124 13.619 9.7124 13.7808 9.7124Z" fill="black"/>
<path d="M7.06003 11.4043C7.22183 11.4043 7.353 11.2731 7.353 11.1113C7.353 10.9495 7.22183 10.8184 7.06003 10.8184C6.89823 10.8184 6.76706 10.9495 6.76706 11.1113C6.76706 11.2731 6.89823 11.4043 7.06003 11.4043Z" fill="black"/>
<path d="M5.21777 11.9395C5.37957 11.9395 5.51074 11.8083 5.51074 11.6465C5.51074 11.4847 5.37957 11.3535 5.21777 11.3535C5.05596 11.3535 4.92479 11.4847 4.92479 11.6465C4.92479 11.8083 5.05596 11.9395 5.21777 11.9395Z" fill="black"/>
<path d="M8.88665 13.231C9.04845 13.231 9.17962 13.0998 9.17962 12.938C9.17962 12.7762 9.04845 12.645 8.88665 12.645C8.72484 12.645 8.59368 12.7762 8.59368 12.938C8.59368 13.0998 8.72484 13.231 8.88665 13.231Z" fill="black"/>
<path d="M18.8521 1.01982C18.1644 0.36377 17.2575 0.00244141 16.2984 0.00244141C15.3393 0.00244141 14.4323 0.36377 13.7447 1.01982C13.0164 1.71459 12.6089 2.65072 12.597 3.65572C12.5912 4.154 12.6827 4.6374 12.8632 5.08486C12.4157 4.90451 11.9326 4.81205 11.434 4.81877C10.429 4.83061 9.49289 5.23814 8.79812 5.96643C8.14207 6.65408 7.78074 7.56103 7.78074 8.52014C7.78074 9.00365 7.87258 9.47389 8.04773 9.90947C7.90445 9.85135 7.75734 9.80217 7.60727 9.76248C7.45098 9.72119 7.29055 9.81439 7.2491 9.9708C7.20773 10.1272 7.30102 10.2876 7.45742 10.329C7.98609 10.4688 8.47121 10.7484 8.86039 11.1376C10.0752 12.3524 10.0752 14.329 8.86043 15.5438C8.55266 15.8515 8.18305 16.0918 7.78039 16.2476C7.77414 16.224 7.76836 16.1997 7.76234 16.1741C7.72508 16.0165 7.67867 15.8204 7.46172 15.5585C7.24461 15.2963 7.06051 15.2144 6.91254 15.1485C6.79395 15.0957 6.70828 15.0576 6.57867 14.9153C6.51711 14.8476 6.47801 14.7921 6.44949 14.7392C6.56473 14.7714 6.69434 14.8023 6.83156 14.8023C6.89992 14.8023 6.97016 14.7946 7.04137 14.7756C7.28 14.7119 7.44203 14.5449 7.58496 14.3974C7.63773 14.343 7.65402 14.3265 7.71395 14.2685C7.86133 14.1255 8.0284 13.9635 8.09215 13.7249C8.15672 13.4829 8.09051 13.2527 8.03727 13.0678C8.0123 12.9808 8.00922 12.9693 7.98914 12.8863C7.94441 12.7016 7.88883 12.4718 7.70754 12.2904C7.52621 12.1092 7.29641 12.0535 7.11168 12.0088C7.03227 11.9895 7.01816 11.986 6.93 11.9606C6.74512 11.9074 6.515 11.8413 6.27312 11.9058C6.03453 11.9696 5.87254 12.1365 5.72961 12.284C5.67238 12.3429 5.6598 12.3555 5.60059 12.413C5.4532 12.5559 5.28613 12.7179 5.22246 12.9565C5.16523 13.1708 5.21066 13.3758 5.25875 13.5484C5.20578 13.5199 5.15016 13.4808 5.08246 13.419C4.94016 13.2895 4.90203 13.2038 4.84926 13.0853C4.78336 12.9373 4.70145 12.7532 4.43941 12.5361C4.1775 12.3191 3.98137 12.2728 3.82379 12.2356C3.7982 12.2295 3.77402 12.2238 3.75035 12.2175C3.90613 11.8148 4.14648 11.4453 4.45422 11.1376C4.92824 10.6635 5.52801 10.3601 6.18875 10.2602C6.34875 10.236 6.45883 10.0867 6.43465 9.92674C6.41043 9.7667 6.26105 9.65678 6.10117 9.68084C5.31582 9.79963 4.60301 10.1601 4.03988 10.7233C3.60191 11.1612 3.27883 11.705 3.10551 12.2959C2.82316 13.2585 2.94578 14.2772 3.41664 15.1299L2.41039 16.1362C2.29594 16.2506 2.29594 16.4361 2.41035 16.5504C2.52473 16.6648 2.71023 16.6649 2.82465 16.5505L3.74695 15.6282C3.92348 15.8527 4.13148 16.0637 4.36973 16.251L1.33777 19.2831C1.16605 19.4548 0.886602 19.4547 0.714961 19.2831C0.631758 19.1999 0.585938 19.0893 0.585938 18.9717C0.585938 18.854 0.631758 18.7434 0.714961 18.6603L1.83715 17.538C1.95156 17.4236 1.95156 17.2381 1.83711 17.1237C1.72273 17.0094 1.53723 17.0094 1.42281 17.1237L0.300625 18.2459C0.106758 18.4397 0 18.6974 0 18.9716C0 19.5425 0.462461 19.9974 1.02633 19.9974C1.28918 19.9974 1.55195 19.8974 1.75207 19.6974L4.86805 16.5813C5.73012 17.0574 6.74941 17.1718 7.70211 16.8924C8.29293 16.7191 8.83676 16.396 9.27477 15.9581C10.3554 14.8774 10.6268 13.2894 10.0893 11.9538C10.5109 12.1242 10.9649 12.216 11.434 12.2215C12.3521 12.2308 13.222 11.9114 13.908 11.3126C14.0365 11.7089 14.4093 11.9962 14.8479 11.9962C15.3926 11.9962 15.8357 11.553 15.8357 11.0083V9.31084C15.8357 9.08768 16.0181 8.88611 16.2454 8.89084C16.4627 8.8949 16.6395 9.07514 16.6395 9.29264V12.6307C16.6395 12.9003 16.7505 13.1639 16.9442 13.354C17.1348 13.5411 17.3841 13.6415 17.6461 13.6366C18.1804 13.6265 18.6151 13.1835 18.6151 12.649V11.1113C18.6151 10.9495 18.484 10.8183 18.3221 10.8183C18.1603 10.8183 18.0292 10.9495 18.0292 11.1113V12.649C18.0292 12.8664 17.8524 13.0467 17.6351 13.0508C17.4151 13.0567 17.2254 12.8599 17.2254 12.6307V9.29264C17.2254 8.75803 16.7907 8.31498 16.2564 8.30498C15.9954 8.30064 15.7452 8.40037 15.5545 8.58752C15.3609 8.77756 15.2498 9.04119 15.2498 9.31084V11.0083C15.2498 11.2299 15.0695 11.4102 14.8479 11.4102C14.6263 11.4102 14.446 11.2299 14.446 11.0083C14.446 11.0031 14.4458 10.9978 14.4455 10.9926C14.4362 10.8195 14.3256 10.6679 14.1637 10.6065C14.0014 10.5449 13.8174 10.5851 13.6941 10.7099L13.6809 10.7232C13.0827 11.3215 12.2883 11.6445 11.4409 11.6355C10.6001 11.6256 9.81059 11.2862 9.22207 10.6693C8.07227 9.46412 8.07227 7.57603 9.22207 6.3708C9.80699 5.75771 10.595 5.41459 11.4409 5.40463C12.2854 5.39369 13.0826 5.71865 13.6809 6.31697C13.6813 6.31736 13.6818 6.31775 13.6821 6.31814C14.2231 6.85975 14.545 7.57834 14.5884 8.34186C14.5973 8.49771 14.7265 8.61814 14.8807 8.61814C15.0494 8.61814 15.183 8.47654 15.1734 8.3085C15.1214 7.3949 14.7346 6.54193 14.0953 5.9026C13.497 5.30432 13.173 4.50877 13.1829 3.66256C13.1929 2.81666 13.536 2.02865 14.1491 1.44373C15.3543 0.293965 17.2424 0.293965 18.4476 1.44373C19.0607 2.02865 19.4038 2.81662 19.4138 3.66256C19.4239 4.52061 19.0906 5.32912 18.4709 5.93275C18.1901 6.20604 18.0291 6.58771 18.0291 6.9799V9.74408C18.0291 9.90592 18.1602 10.0371 18.3221 10.0371C18.4839 10.0371 18.615 9.90592 18.615 9.74408V6.9799C18.615 6.7449 18.7114 6.51627 18.8795 6.35268C19.5935 5.65889 20.012 4.70393 19.9997 3.65564C19.9879 2.65072 19.5804 1.71459 18.8521 1.01982ZM5.78855 13.1076C5.81047 13.0256 5.90664 12.9323 6.00848 12.8335C6.06996 12.774 6.08754 12.7565 6.15023 12.6918C6.24898 12.59 6.3423 12.4938 6.4243 12.4719C6.51699 12.4472 6.66719 12.4947 6.76805 12.5237C6.86406 12.5513 6.88453 12.5566 6.97387 12.5783C7.10477 12.6099 7.2284 12.6399 7.29324 12.7047C7.35813 12.7696 7.38805 12.8932 7.41969 13.024C7.44109 13.1123 7.44676 13.1343 7.47422 13.2297C7.51254 13.3629 7.54875 13.4888 7.52609 13.5737C7.50418 13.6557 7.40797 13.749 7.30609 13.8478C7.24219 13.9097 7.22297 13.929 7.16441 13.9895C7.06566 14.0913 6.97234 14.1875 6.89031 14.2094C6.80551 14.232 6.67961 14.1959 6.54637 14.1576C6.45484 14.1312 6.42785 14.124 6.34066 14.103C6.2098 14.0713 6.08625 14.0415 6.02141 13.9766C5.95652 13.9117 5.92656 13.7881 5.89492 13.6572C5.87387 13.5705 5.86793 13.5474 5.84031 13.4513C5.80203 13.3182 5.76586 13.1925 5.78855 13.1076ZM4.45418 15.5438C3.72609 14.8157 3.40977 13.7819 3.59176 12.7817C3.62613 12.7909 3.65852 12.7986 3.68898 12.8058C3.82164 12.8372 3.90926 12.8578 4.06559 12.9873C4.22195 13.1169 4.25852 13.1991 4.31391 13.3235C4.37668 13.4645 4.45477 13.64 4.68793 13.8522C4.92117 14.0647 5.10324 14.126 5.24953 14.1753C5.37848 14.2188 5.46363 14.2475 5.60691 14.3908C5.75023 14.5341 5.77891 14.6193 5.82238 14.7482C5.87168 14.8944 5.93301 15.0765 6.14539 15.3097C6.35773 15.5429 6.53324 15.621 6.67422 15.6838C6.79871 15.7392 6.8809 15.7758 7.01043 15.9322C7.13996 16.0886 7.1607 16.1762 7.19207 16.3089C7.19926 16.3394 7.20691 16.3718 7.21621 16.4062C6.21598 16.5882 5.18219 16.2718 4.45418 15.5438Z" fill="black"/>
<path d="M15.3183 6.97811C15.2855 7.13655 15.3875 7.29155 15.5459 7.32428C16.163 7.45182 16.8167 7.42213 17.4356 7.22283C17.5896 7.17322 17.6742 7.00822 17.6247 6.85416C17.5751 6.7001 17.41 6.61541 17.256 6.6651C16.7434 6.83022 16.1929 6.85963 15.6645 6.75045C15.5061 6.71779 15.351 6.81963 15.3183 6.97811Z" fill="black"/>
</g>
<defs>
<clipPath id="clip0">
<rect width="20" height="20" fill="white"/>
</clipPath>
</defs>
</svg>
