<svg width="17" height="20" viewBox="0 0 17 20" fill="none" xmlns="http://www.w3.org/2000/svg">
<path d="M1.41734 7.63785V17.5591H14.0158V7.63785C14.0158 6.24627 12.8877 5.11816 11.4961 5.11816H3.93702C2.54545 5.11816 1.41734 6.24627 1.41734 7.63785Z" fill="#FFC144"/>
<path d="M15.199 19.6065H6.92697C6.38547 19.6065 5.95591 19.1502 5.98575 18.6081C6.0211 17.9694 6.09024 17.3397 6.19142 16.7207C6.43937 15.2035 7.75583 14.0947 9.28925 14.0947H12.8367C14.3702 14.0947 15.6866 15.2035 15.9346 16.7207C16.0358 17.3397 16.1049 17.9695 16.1403 18.6081C16.1701 19.1502 15.7405 19.6065 15.199 19.6065Z" fill="#00CCF2"/>
<path d="M2.44095 18.5825C2.44095 19.1478 1.98264 19.6062 1.41733 19.6062C0.852014 19.6062 0.393707 19.1478 0.393707 18.5825C0.393707 18.0172 0.852014 17.5589 1.41733 17.5589C1.98264 17.5589 2.44095 18.0172 2.44095 18.5825ZM9.68505 0.393555H5.74804C5.31316 0.393555 4.96064 0.746074 4.96064 1.18096V1.96836H10.4724V1.18096C10.4724 0.746074 10.1199 0.393555 9.68505 0.393555ZM3.77953 17.5589C3.77953 16.6892 3.07446 15.9841 2.20473 15.9841H1.41733V17.5589H3.77953Z" fill="#8690AF"/>
<path d="M16.552 18.6167C16.4944 18.0155 16.4298 17.4149 16.3585 16.8157C16.2128 15.5935 15.4523 14.5801 14.4094 14.0657V7.6378C14.4094 6.03134 13.1025 4.72441 11.4961 4.72441H10.8661V1.1811C10.8661 0.529842 10.3363 0 9.68504 0H5.74803C5.09677 0 4.56693 0.529842 4.56693 1.1811V4.72441H3.93701C2.33055 4.72441 1.02362 6.03134 1.02362 7.6378V17.221C0.433031 17.392 0 17.9377 0 18.5827C0 19.3642 0.635787 20 1.41732 20C2.19886 20 2.83465 19.3642 2.83465 18.5827C2.83465 18.3565 2.78142 18.1426 2.68681 17.9528H5.64043C5.61732 18.174 5.59516 18.3953 5.57394 18.6167C5.50283 19.3579 6.08319 20 6.82776 20H15.2982C16.0428 20 16.6231 19.3579 16.552 18.6167ZM5.35433 1.1811C5.35433 0.964016 5.53094 0.787402 5.74803 0.787402H9.68504C9.90213 0.787402 10.0787 0.964016 10.0787 1.1811V1.5748H5.35433V1.1811ZM5.35433 2.3622H10.0787V4.32866C9.52972 3.59587 8.66248 3.14961 7.71654 3.14961C6.77059 3.14961 5.90335 3.59587 5.35433 4.32866V2.3622ZM9.38827 4.72441H6.04476C6.44906 4.23307 7.05665 3.93701 7.7165 3.93701C8.37634 3.93701 8.98402 4.23307 9.38827 4.72441ZM1.41732 19.2126C1.07 19.2126 0.787402 18.93 0.787402 18.5827C0.787402 18.2354 1.07 17.9528 1.41732 17.9528C1.76465 17.9528 2.04724 18.2354 2.04724 18.5827C2.04724 18.93 1.76465 19.2126 1.41732 19.2126ZM1.81102 17.1654V16.378H2.20472C2.71799 16.378 3.15587 16.7071 3.31835 17.1654H1.81102ZM4.13366 17.1654C3.95079 16.2679 3.15535 15.5906 2.20472 15.5906H1.81102V9.68504C1.81102 8.51091 2.76287 7.55906 3.93701 7.55906H5.79012C6.00709 7.55906 6.18382 7.38228 6.18382 7.16535C6.18382 6.94843 6.00709 6.77165 5.79012 6.77165H3.93701C3.10083 6.77165 2.34232 7.07354 1.81102 7.6378C1.81102 6.46551 2.76476 5.51181 3.93701 5.51181H11.4961C12.6683 5.51181 13.622 6.46551 13.622 7.6378C13.0905 7.07071 12.3346 6.77165 11.4961 6.77165H9.33342C9.1165 6.77165 8.93972 6.94843 8.93972 7.16535C8.93972 7.38228 9.1165 7.55906 9.33342 7.55906H11.4961C12.6702 7.55906 13.622 8.51091 13.622 9.68504V13.604C13.0996 12.6954 12.1315 12.126 11.063 12.126C9.91441 12.126 8.88181 12.7839 8.39413 13.8139C7.01323 14.1715 5.94315 15.3417 5.76752 16.8157C5.75362 16.9322 5.74004 17.0488 5.72665 17.1654H4.13366ZM12.7347 13.7008H9.39122C9.79551 13.2094 10.4031 12.9134 11.063 12.9134C11.7228 12.9134 12.3305 13.2094 12.7347 13.7008ZM15.2026 19.2126H6.92736C6.60469 19.2126 6.35122 18.9368 6.37807 18.6153C6.43134 17.9778 6.51071 17.2069 6.57992 16.7839C6.79724 15.4535 7.93661 14.4882 9.28937 14.4882H12.8366C14.1894 14.4882 15.3287 15.4535 15.5461 16.7839C15.6152 17.2067 15.6969 17.9767 15.7517 18.6139C15.7794 18.936 15.5258 19.2126 15.2026 19.2126ZM7.16807 7.16535C7.16807 6.94843 7.34484 6.77165 7.56177 6.77165C7.77874 6.77165 7.95547 6.94843 7.95547 7.16535C7.95547 7.38228 7.77874 7.55906 7.56177 7.55906C7.34484 7.55906 7.16807 7.38228 7.16807 7.16535Z" fill="black"/>
</svg>
