<svg width="359" height="112" viewBox="0 0 359 112" fill="none" xmlns="http://www.w3.org/2000/svg">
<mask id="mask0" mask-type="alpha" maskUnits="userSpaceOnUse" x="0" y="0" width="359" height="112">
<rect width="359" height="112" rx="13" fill="#C4C4C4"/>
</mask>
<g mask="url(#mask0)">
<g filter="url(#filter0_b)">
<rect width="359" height="112" fill="#F8F8F8" fill-opacity="0.82"/>
</g>
<rect width="359" height="36" fill="white" fill-opacity="0.35"/>
<path d="M44.021 19.126H43.007V12.535H44.021V15.434H45.503V12.314H46.53V19.503H45.503V16.305H44.021V19.126ZM41.954 18.593C41.408 18.3677 40.94 18.06 40.55 17.67C40.16 17.2713 39.861 16.825 39.653 16.331C39.445 16.877 39.1373 17.384 38.73 17.852C38.3313 18.3113 37.846 18.6667 37.274 18.918L36.702 18.086C37.0833 17.9213 37.4213 17.709 37.716 17.449C38.0193 17.1803 38.275 16.89 38.483 16.578C38.691 16.266 38.8513 15.941 38.964 15.603C39.0767 15.265 39.133 14.9313 39.133 14.602V13.029H40.16V14.602C40.16 14.9227 40.212 15.2433 40.316 15.564C40.4287 15.876 40.5847 16.175 40.784 16.461C40.9833 16.7383 41.2303 16.994 41.525 17.228C41.8197 17.4533 42.1533 17.6353 42.526 17.774L41.954 18.593ZM42.682 23.13C43.5747 23.13 44.2723 23.0217 44.775 22.805C45.2777 22.5797 45.529 22.2633 45.529 21.856C45.529 21.4487 45.2777 21.1367 44.775 20.92C44.2723 20.7033 43.5747 20.595 42.682 20.595C41.8067 20.595 41.1133 20.7033 40.602 20.92C40.0993 21.1367 39.848 21.4487 39.848 21.856C39.848 22.2633 40.0993 22.5797 40.602 22.805C41.1133 23.0217 41.8067 23.13 42.682 23.13ZM42.682 19.763C43.28 19.763 43.8173 19.8107 44.294 19.906C44.7793 20.0013 45.191 20.14 45.529 20.322C45.867 20.4953 46.127 20.712 46.309 20.972C46.491 21.232 46.582 21.5267 46.582 21.856C46.582 22.1853 46.491 22.48 46.309 22.74C46.127 23 45.867 23.2167 45.529 23.39C45.191 23.572 44.7793 23.7107 44.294 23.806C43.8173 23.9013 43.28 23.949 42.682 23.949C42.084 23.949 41.5423 23.9013 41.057 23.806C40.5803 23.7107 40.173 23.572 39.835 23.39C39.5057 23.2167 39.25 23 39.068 22.74C38.886 22.48 38.795 22.1853 38.795 21.856C38.795 21.5267 38.886 21.232 39.068 20.972C39.25 20.712 39.5057 20.4953 39.835 20.322C40.173 20.14 40.5803 20.0013 41.057 19.906C41.5423 19.8107 42.084 19.763 42.682 19.763ZM55.577 13.952H48.882V13.185H51.703V12.184H52.769V13.185H55.577V13.952ZM50.52 15.85C50.52 16.11 50.6717 16.318 50.975 16.474C51.287 16.6213 51.7073 16.695 52.236 16.695C52.756 16.695 53.1677 16.6213 53.471 16.474C53.783 16.318 53.939 16.11 53.939 15.85C53.939 15.59 53.783 15.3863 53.471 15.239C53.1677 15.0917 52.756 15.018 52.236 15.018C51.7073 15.018 51.287 15.0917 50.975 15.239C50.6717 15.3863 50.52 15.59 50.52 15.85ZM55.993 18.463C55.369 18.5757 54.7363 18.6623 54.095 18.723C53.4537 18.7837 52.8167 18.8313 52.184 18.866C51.56 18.892 50.9533 18.9093 50.364 18.918C49.7747 18.918 49.2243 18.918 48.713 18.918L48.596 18.125C49.0553 18.125 49.545 18.125 50.065 18.125C50.5937 18.1163 51.1397 18.1033 51.703 18.086V17.371C51.027 17.319 50.4897 17.163 50.091 16.903C49.701 16.643 49.506 16.292 49.506 15.85C49.506 15.3647 49.7487 14.9877 50.234 14.719C50.728 14.4503 51.3953 14.316 52.236 14.316C53.0593 14.316 53.718 14.4503 54.212 14.719C54.706 14.9877 54.953 15.3647 54.953 15.85C54.953 16.2833 54.758 16.63 54.368 16.89C53.978 17.15 53.445 17.3103 52.769 17.371V18.047C53.3063 18.021 53.8393 17.9863 54.368 17.943C54.9053 17.8997 55.4253 17.8433 55.928 17.774L55.993 18.463ZM51.209 23.065H58.125V23.832H50.169V21.362H56.63V20.452H50.13V19.698H57.683V22.077H51.209V23.065ZM59.399 15.278V16.175H57.683V19.191H56.617V12.301H57.683V15.278H59.399ZM65.677 17.163C65.8156 16.487 65.9023 15.8977 65.937 15.395C65.9716 14.8923 65.989 14.4547 65.989 14.082H61.231V13.211H67.029V13.822C67.029 14.212 67.016 14.693 66.99 15.265C66.964 15.837 66.8773 16.5087 66.73 17.28L65.677 17.163ZM67.913 18.762C67.3063 18.866 66.6823 18.9483 66.041 19.009C65.4083 19.0697 64.7756 19.1173 64.143 19.152C63.5103 19.178 62.895 19.1997 62.297 19.217C61.7076 19.2257 61.153 19.23 60.633 19.23L60.529 18.359C60.9016 18.359 61.296 18.359 61.712 18.359C62.128 18.3503 62.557 18.3417 62.999 18.333V15.811H64.052V18.294C64.6933 18.268 65.3346 18.2333 65.976 18.19C66.6173 18.138 67.237 18.0687 67.835 17.982L67.913 18.762ZM63.376 22.831H70.058V23.702H62.31V20.283H63.376V22.831ZM71.358 16.097V16.981H69.681V21.089H68.615V12.301H69.681V16.097H71.358ZM80.2702 14.017H76.9942V17.475H80.2702V14.017ZM81.3102 18.333H75.9542V13.172H81.3102V18.333ZM76.9422 19.828H84.5212V23.975H83.4552V20.699H76.9422V19.828ZM86.2502 16.214H84.5212V19.217H83.4552V12.314H84.5212V15.33H86.2502V16.214ZM89.0702 20.01C89.6335 20.0013 90.2228 19.9753 90.8382 19.932C91.4535 19.88 92.1122 19.7847 92.8142 19.646L92.9182 20.569C92.1295 20.7163 91.3928 20.816 90.7082 20.868C90.0322 20.9113 89.3778 20.933 88.7452 20.933H88.0042V13.718H89.0702V20.01ZM97.3252 12.301V23.949H96.2982V17.93H94.6472V23.364H93.6462V12.561H94.6472V17.046H96.2982V12.301H97.3252Z" fill="#999999"/>
<path d="M324.931 16.863C324.931 17.357 325.013 17.8467 325.178 18.332C325.343 18.8173 325.564 19.2723 325.841 19.697C326.127 20.113 326.456 20.4857 326.829 20.815C327.21 21.1443 327.618 21.4 328.051 21.582L327.453 22.44C327.115 22.284 326.79 22.0847 326.478 21.842C326.175 21.5993 325.889 21.3263 325.62 21.023C325.36 20.7197 325.126 20.386 324.918 20.022C324.71 19.658 324.537 19.2767 324.398 18.878C324.268 19.3027 324.099 19.71 323.891 20.1C323.683 20.49 323.449 20.854 323.189 21.192C322.929 21.5213 322.647 21.8203 322.344 22.089C322.041 22.349 321.724 22.5613 321.395 22.726L320.771 21.868C321.187 21.6687 321.581 21.3913 321.954 21.036C322.335 20.6807 322.665 20.2777 322.942 19.827C323.228 19.3763 323.453 18.8953 323.618 18.384C323.783 17.8727 323.865 17.3657 323.865 16.863V15.381H321.161V14.497H327.674V15.381H324.931V16.863ZM330.313 13.314V24.962H329.247V13.314H330.313ZM335.07 23.948H340.933V21.517H335.07V23.948ZM334.03 20.659H341.986V24.806H334.03V20.659ZM343.312 18.215V19.073H332.717V18.215H340.556C340.721 17.487 340.816 16.85 340.842 16.304C340.877 15.7493 340.894 15.2423 340.894 14.783H334.069V13.925H341.947V14.783C341.947 15.2423 341.934 15.745 341.908 16.291C341.882 16.837 341.791 17.4783 341.635 18.215H343.312Z" fill="#999999"/>
<path d="M8 12C8 9.79086 9.79086 8 12 8H24C26.2091 8 28 9.79086 28 12V24C28 26.2091 26.2091 28 24 28H12C9.79086 28 8 26.2091 8 24V12Z" fill="white"/>
<g clip-path="url(#clip0)">
<path d="M19.8756 21.4824H16.2575C14.6958 21.4824 13.4253 22.753 13.4253 24.3146V26.5601C13.4253 26.7017 13.5401 26.8164 13.6816 26.8164H22.4514C22.593 26.8164 22.7077 26.7017 22.7077 26.5601V24.3147C22.7077 22.753 21.4372 21.4824 19.8756 21.4824Z" fill="#468466"/>
<path d="M19.8756 21.4824H18.9414C20.5031 21.4824 21.7736 22.753 21.7736 24.3146V26.5601C21.7736 26.7017 21.6588 26.8164 21.5172 26.8164H22.4515C22.593 26.8164 22.7078 26.7017 22.7078 26.5601V24.3147C22.7078 22.753 21.4373 21.4824 19.8756 21.4824Z" fill="#346349"/>
<path d="M19.5054 18.4674V21.7264L18.0664 24.5264L16.6274 21.7264V18.4674H19.5054Z" fill="#FA9E3E"/>
<path d="M19.3049 22.1168C18.4791 22.6408 17.6535 22.641 16.8281 22.1168L18.0665 24.5265L19.3049 22.1168Z" fill="#049B64"/>
<path d="M13.6178 16.8699H15.3053V18.8048H13.6178C13.0836 18.8048 12.6504 18.3716 12.6504 17.8373C12.6504 17.303 13.0835 16.8699 13.6178 16.8699Z" fill="#FA9E3E"/>
<path d="M22.5155 16.8699H20.8281V18.8048H22.5155C23.0498 18.8048 23.483 18.3716 23.483 17.8373C23.483 17.303 23.0498 16.8699 22.5155 16.8699Z" fill="#FA9E3E"/>
<path d="M21.8985 13.0688H14.2344C14.0928 13.0688 13.978 13.1836 13.978 13.3252V17.201C13.978 19.4553 15.8121 21.2893 18.0664 21.2893C20.3208 21.2893 22.1548 19.4553 22.1548 17.201V13.3252C22.1548 13.1836 22.0401 13.0688 21.8985 13.0688Z" fill="#FFB56B"/>
<path d="M21.8984 13.0688H21.0007C21.1263 13.0688 21.228 13.1836 21.228 13.3252V17.201C21.228 19.3728 19.7186 21.1543 17.8208 21.2817C17.9021 21.2866 17.9839 21.2893 18.0664 21.2893C20.3207 21.2893 22.1548 19.4553 22.1548 17.201V13.3252C22.1548 13.1836 22.04 13.0688 21.8984 13.0688Z" fill="#EF9245"/>
<path d="M19.9229 17.2789C19.7813 17.2789 19.6665 17.1642 19.6665 17.0226V16.9542C19.6665 16.8126 19.7813 16.6979 19.9229 16.6979C20.0645 16.6979 20.1792 16.8126 20.1792 16.9542V17.0226C20.1792 17.1642 20.0645 17.2789 19.9229 17.2789Z" fill="#19303F"/>
<path d="M16.2095 17.2789C16.0679 17.2789 15.9531 17.1642 15.9531 17.0226V16.9542C15.9531 16.8126 16.0679 16.6979 16.2095 16.6979C16.351 16.6979 16.4658 16.8126 16.4658 16.9542V17.0226C16.4658 17.1642 16.351 17.2789 16.2095 17.2789Z" fill="#19303F"/>
<path d="M18.0663 19.1766C17.6051 19.1766 17.1727 18.9499 16.9099 18.5703C16.8293 18.4539 16.8583 18.2942 16.9747 18.2136C17.0911 18.133 17.2508 18.162 17.3314 18.2784C17.4985 18.5198 17.7732 18.6639 18.0663 18.6639C18.3593 18.6639 18.634 18.5198 18.8012 18.2784C18.8818 18.1621 19.0414 18.1329 19.1578 18.2136C19.2742 18.2942 19.3033 18.4539 19.2227 18.5703C18.9598 18.9499 18.5275 19.1766 18.0663 19.1766Z" fill="#19303F"/>
<path d="M24.3008 18.9947L24.0529 15.761C24.0498 15.7202 24.0369 15.6806 24.0153 15.6458L23.3242 14.5282L23.2485 13.0951C23.1366 10.9763 21.3869 9.31653 19.265 9.31653H16.8681C14.7463 9.31653 12.9965 10.9763 12.8846 13.0951L12.8089 14.5282L12.1178 15.6458C12.0962 15.6807 12.0833 15.7202 12.0802 15.761L11.8323 18.9947C11.8268 19.0659 11.8513 19.1362 11.8998 19.1885C11.9483 19.2409 12.0165 19.2707 12.0879 19.2707H12.7395C12.8387 19.2707 12.929 19.2134 12.9714 19.1237L14.1657 16.5924L15.4497 15.8815H20.6835L21.9674 16.5924L23.1618 19.1237C23.2041 19.2134 23.2944 19.2707 23.3936 19.2707H24.0452C24.1166 19.2707 24.1848 19.2409 24.2333 19.1885C24.2818 19.1362 24.3063 19.0659 24.3008 18.9947Z" fill="#468466"/>
<path d="M24.3003 18.9947L24.0524 15.761C24.0493 15.7202 24.0364 15.6806 24.0148 15.6458L23.3237 14.5282L23.2479 13.0951C23.1361 10.9763 21.3863 9.31653 19.2645 9.31653H18.4458C20.5676 9.31653 22.3174 10.9763 22.4293 13.0951L22.505 14.5282L23.1961 15.6458C23.2177 15.6807 23.2306 15.7202 23.2337 15.761L23.4816 18.9947C23.4871 19.0659 23.4626 19.1362 23.4141 19.1885C23.3852 19.2197 23.3493 19.2426 23.31 19.2563C23.3364 19.2653 23.3643 19.2707 23.3931 19.2707H24.0447C24.1161 19.2707 24.1843 19.2409 24.2328 19.1886C24.2813 19.1362 24.3057 19.0659 24.3003 18.9947Z" fill="#346349"/>
<rect x="21.9885" y="24.2445" width="0.461426" height="0.769043" fill="white" stroke="#0047FF" stroke-width="0.461426"/>
<ellipse cx="22.2192" cy="24.6461" rx="0.187988" ry="0.324707" fill="#0047FF"/>
<path d="M22.0483 24.6444C22.0483 24.5948 22.0688 24.5265 22.1509 24.5265C22.2329 24.5265 22.2363 24.5948 22.2363 24.6461C22.2363 24.6974 22.2534 24.7487 22.3218 24.7487C22.3666 24.7487 22.3901 24.7127 22.3901 24.6444" stroke="#FF4242"/>
<path d="M22.0483 24.6461C22.0483 24.5493 22.0798 24.3214 22.2192 24.3214C22.356 24.3214 22.3901 24.5379 22.3901 24.6632" stroke="#FF4242"/>
</g>
<path d="M19.198 53.058C19.198 53.3613 19.263 53.6343 19.393 53.877C19.5317 54.1197 19.7223 54.3233 19.965 54.488C20.2077 54.6527 20.498 54.7783 20.836 54.865C21.1827 54.9517 21.5597 54.995 21.967 54.995C22.383 54.995 22.76 54.9517 23.098 54.865C23.436 54.7783 23.7263 54.6527 23.969 54.488C24.2203 54.3233 24.411 54.1197 24.541 53.877C24.6797 53.6343 24.749 53.3613 24.749 53.058C24.749 52.7547 24.6797 52.4817 24.541 52.239C24.411 51.9963 24.2203 51.7927 23.969 51.628C23.7263 51.4633 23.436 51.3377 23.098 51.251C22.76 51.1643 22.383 51.121 21.967 51.121C21.5597 51.121 21.1827 51.1643 20.836 51.251C20.498 51.3377 20.2077 51.4633 19.965 51.628C19.7223 51.7927 19.5317 51.9963 19.393 52.239C19.263 52.4817 19.198 52.7547 19.198 53.058ZM27.401 58.336V59.727H16.559V58.336H21.109V56.308C20.5803 56.2473 20.095 56.126 19.653 55.944C19.211 55.762 18.8297 55.5323 18.509 55.255C18.197 54.9777 17.95 54.6527 17.768 54.28C17.5947 53.9073 17.508 53.5 17.508 53.058C17.508 52.5553 17.6207 52.1003 17.846 51.693C18.0713 51.2857 18.3833 50.939 18.782 50.653C19.1807 50.367 19.6487 50.146 20.186 49.99C20.732 49.834 21.3257 49.756 21.967 49.756C22.6083 49.756 23.202 49.834 23.748 49.99C24.294 50.146 24.7663 50.367 25.165 50.653C25.5637 50.939 25.8757 51.2857 26.101 51.693C26.3263 52.1003 26.439 52.5553 26.439 53.058C26.439 53.5 26.348 53.9073 26.166 54.28C25.9927 54.6527 25.7457 54.982 25.425 55.268C25.1043 55.5453 24.723 55.775 24.281 55.957C23.839 56.1303 23.3537 56.2473 22.825 56.308V58.336H27.401ZM38.112 52.902H29.857V49.262H31.573V51.55H38.112V52.902ZM31.482 59.688H38.424V60.975H29.753V57.725H36.357V57.049H29.74V55.762H38.086V58.934H31.482V59.688ZM39.36 53.669V55.021H28.518V53.669H39.36ZM47.9203 52.096C47.9203 52.6247 47.9809 53.1533 48.1023 53.682C48.2236 54.202 48.4056 54.696 48.6483 55.164C48.8909 55.6233 49.1943 56.0437 49.5583 56.425C49.9309 56.7977 50.3643 57.0967 50.8583 57.322L49.8703 58.674C49.1943 58.3447 48.6223 57.8853 48.1543 57.296C47.6949 56.7067 47.3353 56.035 47.0753 55.281C46.8239 56.0957 46.4643 56.8193 45.9963 57.452C45.5283 58.076 44.9476 58.5613 44.2543 58.908L43.2403 57.556C43.7429 57.322 44.1763 57.01 44.5403 56.62C44.9129 56.23 45.2206 55.7923 45.4633 55.307C45.7059 54.8217 45.8879 54.306 46.0093 53.76C46.1306 53.2053 46.1913 52.6507 46.1913 52.096V51.68H43.7343V50.289H50.3773V51.68H47.9203V52.096ZM53.4713 49.132V61.144H51.7553V54.709H49.6493V53.318H51.7553V49.132H53.4713ZM62.0503 55.606C61.6343 55.684 61.2269 55.749 60.8283 55.801C60.4296 55.8443 60.0266 55.8833 59.6193 55.918C59.2119 55.944 58.7873 55.9613 58.3453 55.97C57.9119 55.9787 57.4569 55.983 56.9803 55.983H56.0313V49.782H57.7343V54.579C58.4883 54.5703 59.1903 54.54 59.8403 54.488C60.4903 54.436 61.1533 54.345 61.8293 54.215L62.0503 55.606ZM57.1883 56.802H65.3913V61.131H63.6753V58.18H57.1883V56.802ZM65.3913 49.132V56.282H63.6753V53.747H60.8283V52.447H63.6753V51.641H60.8283V50.341H63.6753V49.132H65.3913ZM76.7856 55.71C76.1096 55.4933 75.5419 55.1857 75.0826 54.787C74.6232 54.3797 74.2592 53.903 73.9906 53.357C73.7132 53.9377 73.3319 54.4533 72.8466 54.904C72.3699 55.346 71.7806 55.6797 71.0786 55.905L70.2336 54.553C70.7362 54.397 71.1652 54.189 71.5206 53.929C71.8846 53.6603 72.1836 53.3613 72.4176 53.032C72.6516 52.694 72.8206 52.3387 72.9246 51.966C73.0372 51.5933 73.0936 51.2163 73.0936 50.835V49.691H74.8356V50.835C74.8356 51.2077 74.8876 51.576 74.9916 51.94C75.1042 52.2953 75.2732 52.629 75.4986 52.941C75.7239 53.2443 76.0099 53.5217 76.3566 53.773C76.7119 54.0157 77.1322 54.2107 77.6176 54.358L76.7856 55.71ZM72.0666 56.802H80.2306V61.131H78.5016V58.18H72.0666V56.802ZM80.2306 49.145V56.282H78.5016V49.145H80.2306ZM89.1865 55.463C88.8225 55.541 88.4542 55.606 88.0815 55.658C87.7175 55.71 87.3189 55.7533 86.8855 55.788C86.4609 55.814 85.9885 55.8313 85.4685 55.84C84.9485 55.8487 84.3592 55.853 83.7005 55.853H82.6995V50.094H88.0555V51.459H84.4025V54.475C84.9312 54.475 85.4079 54.4707 85.8325 54.462C86.2659 54.4447 86.6602 54.423 87.0155 54.397C87.3795 54.3623 87.7219 54.3233 88.0425 54.28C88.3632 54.2367 88.6882 54.1803 89.0175 54.111L89.1865 55.463ZM85.6635 59.545H92.0985V60.91H83.9475V56.893H85.6635V59.545ZM93.2555 52.408V53.812H91.6695V57.803H89.9535V49.145H91.6695V52.408H93.2555Z" fill="black"/>
<path d="M23.852 83.839C23.41 83.605 23.046 83.293 22.76 82.903C22.4827 82.513 22.266 82.084 22.11 81.616C21.9887 82.084 21.798 82.5303 21.538 82.955C21.2867 83.371 20.94 83.709 20.498 83.969C20.056 83.6917 19.7093 83.3407 19.458 82.916C19.2067 82.4827 19.016 82.0277 18.886 81.551C18.7387 82.019 18.522 82.4567 18.236 82.864C17.9587 83.2627 17.599 83.5877 17.157 83.839L16.598 83.085C16.9273 82.8943 17.2047 82.6603 17.43 82.383C17.6553 82.1057 17.8373 81.811 17.976 81.499C18.1233 81.1783 18.2273 80.8577 18.288 80.537C18.3573 80.2077 18.392 79.9043 18.392 79.627V78.808H19.419V79.627C19.419 79.8437 19.432 80.0863 19.458 80.355C19.4927 80.6237 19.549 80.901 19.627 81.187C19.7137 81.4643 19.8263 81.7373 19.965 82.006C20.1123 82.2747 20.2943 82.5217 20.511 82.747C20.7277 82.5303 20.9053 82.2877 21.044 82.019C21.1827 81.7503 21.291 81.4773 21.369 81.2C21.4557 80.9227 21.5163 80.6497 21.551 80.381C21.5857 80.1123 21.603 79.861 21.603 79.627V78.808H22.617V79.627C22.617 79.939 22.6473 80.264 22.708 80.602C22.7773 80.9313 22.8813 81.252 23.02 81.564C23.1673 81.876 23.3537 82.1663 23.579 82.435C23.813 82.695 24.0947 82.9117 24.424 83.085L23.852 83.839ZM19.406 88.987H26.426V89.832H18.353V86.868H24.944V85.711H18.327V84.866H25.984V87.661H19.406V88.987ZM27.479 80.849V81.733H25.984V84.372H24.918V78.314H25.984V80.849H27.479ZM33.484 81.447H30.182V83.345H33.484V81.447ZM34.524 84.19H29.129V78.886H30.182V80.615H33.484V78.886H34.524V84.19ZM36.643 87.479H31.404V88.948H36.643V87.479ZM36.643 85.256H37.696V89.806H30.351V85.256H31.404V86.634H36.643V85.256ZM39.425 81.876H37.696V84.71H36.63V78.301H37.696V80.979H39.425V81.876ZM40.646 87.349H41.933L41.14 89.975H40.178L40.646 87.349ZM50.8886 80.043H47.6646V83.514H50.8886V80.043ZM51.9286 81.057V82.5H54.6066V81.057H51.9286ZM51.9286 84.359H46.6116V79.185H51.9286V80.199H54.6066V78.314H55.6856V85.204H54.6066V83.358H51.9286V84.359ZM51.8246 89.117C52.7173 89.117 53.4106 89 53.9046 88.766C54.4073 88.5233 54.6586 88.1853 54.6586 87.752C54.6586 87.3187 54.4073 86.985 53.9046 86.751C53.4106 86.5083 52.7173 86.387 51.8246 86.387C50.9493 86.387 50.2603 86.5083 49.7576 86.751C49.2636 86.985 49.0166 87.3187 49.0166 87.752C49.0166 88.1853 49.2636 88.5233 49.7576 88.766C50.2603 89 50.9493 89.117 51.8246 89.117ZM51.8246 85.555C52.4226 85.555 52.96 85.6027 53.4366 85.698C53.922 85.7933 54.3336 85.9363 54.6716 86.127C55.0096 86.3177 55.2653 86.5517 55.4386 86.829C55.6206 87.0977 55.7116 87.4053 55.7116 87.752C55.7116 88.0987 55.6206 88.4107 55.4386 88.688C55.2653 88.9567 55.0096 89.182 54.6716 89.364C54.3336 89.5547 53.922 89.6977 53.4366 89.793C52.96 89.897 52.4226 89.949 51.8246 89.949C51.2266 89.949 50.6893 89.897 50.2126 89.793C49.736 89.6977 49.3286 89.5547 48.9906 89.364C48.6526 89.182 48.3926 88.9567 48.2106 88.688C48.0373 88.4107 47.9506 88.0987 47.9506 87.752C47.9506 87.4053 48.0373 87.0977 48.2106 86.829C48.3926 86.5517 48.6526 86.3177 48.9906 86.127C49.3286 85.9363 49.736 85.7933 50.2126 85.698C50.6893 85.6027 51.2266 85.555 51.8246 85.555ZM59.5196 86.192C59.9443 86.192 60.33 86.1877 60.6766 86.179C61.032 86.1703 61.3656 86.1573 61.6776 86.14C61.9983 86.114 62.306 86.0837 62.6006 86.049C62.8953 86.0057 63.1986 85.9537 63.5106 85.893L63.6146 86.777C63.2766 86.8463 62.9473 86.9027 62.6266 86.946C62.306 86.9807 61.9723 87.0067 61.6256 87.024C61.2876 87.0413 60.9236 87.0543 60.5336 87.063C60.1523 87.0717 59.7276 87.076 59.2596 87.076H58.4926V79.64H63.0946V80.511H59.5196V82.721H62.9126V83.566H59.5196V86.192ZM67.9436 78.301V89.962H66.9296V83.852H65.3826V89.39H64.3686V78.561H65.3826V82.981H66.9296V78.301H67.9436ZM79.4996 83.228C79.0576 83.15 78.6243 83.033 78.1996 82.877C77.775 82.721 77.3763 82.5303 77.0036 82.305C76.631 82.0797 76.293 81.824 75.9896 81.538C75.695 81.252 75.4566 80.94 75.2746 80.602C75.0926 80.94 74.8543 81.2563 74.5596 81.551C74.265 81.8457 73.9313 82.1057 73.5586 82.331C73.186 82.5563 72.783 82.747 72.3496 82.903C71.925 83.059 71.4873 83.176 71.0366 83.254L70.6206 82.422C71.1406 82.344 71.6433 82.2053 72.1286 82.006C72.6226 81.798 73.0603 81.551 73.4416 81.265C73.8316 80.979 74.1436 80.6583 74.3776 80.303C74.6116 79.939 74.7286 79.562 74.7286 79.172V78.6H75.8206V79.172C75.8206 79.5533 75.9376 79.9217 76.1716 80.277C76.4056 80.6323 76.7133 80.953 77.0946 81.239C77.4846 81.525 77.9223 81.772 78.4076 81.98C78.893 82.1793 79.3913 82.318 79.9026 82.396L79.4996 83.228ZM72.3886 88.831H79.3956V89.702H71.3226V86.348H72.3886V88.831ZM80.5526 84.242V85.1H75.8856V87.453H74.8066V85.1H69.9706V84.242H80.5526ZM88.1696 83.917C87.5196 83.6917 86.9519 83.3623 86.4666 82.929C85.9899 82.4957 85.6216 81.9887 85.3616 81.408C85.1189 82.084 84.7419 82.669 84.2306 83.163C83.7193 83.6483 83.1126 84.0167 82.4106 84.268L81.8906 83.423C82.3326 83.2757 82.7313 83.0763 83.0866 82.825C83.4419 82.565 83.7453 82.2703 83.9966 81.941C84.2566 81.6117 84.4559 81.252 84.5946 80.862C84.7333 80.4633 84.8026 80.0473 84.8026 79.614V78.704H85.8686V79.601C85.8686 79.991 85.9379 80.368 86.0766 80.732C86.2153 81.096 86.4059 81.4297 86.6486 81.733C86.8999 82.0363 87.1989 82.305 87.5456 82.539C87.9009 82.7643 88.2909 82.9463 88.7156 83.085L88.1696 83.917ZM84.6726 88.987H91.4326V89.832H83.6326V86.92H89.9506V85.763H83.5936V84.918H91.0036V87.713H84.6726V88.987ZM92.7326 80.849V81.733H91.0036V84.398H89.9376V78.314H91.0036V80.849H92.7326ZM100.805 83.826H94.9156V79.029H100.727V79.874H95.9816V81.018H100.467V81.811H95.9816V82.981H100.805V83.826ZM101.663 85.49C101.117 85.5767 100.562 85.646 99.9986 85.698C99.4353 85.75 98.8763 85.789 98.3216 85.815V89.598H97.2556V85.867C96.6749 85.893 96.1073 85.9103 95.5526 85.919C95.0066 85.919 94.4866 85.919 93.9926 85.919L93.8496 85.022C94.4216 85.022 95.0239 85.022 95.6566 85.022C96.2979 85.0133 96.9523 85.0003 97.6196 84.983C98.2869 84.957 98.9586 84.9223 99.6346 84.879C100.311 84.8357 100.969 84.775 101.611 84.697L101.663 85.49ZM103.483 78.314V89.975H102.417V78.314H103.483ZM111.984 79.042C111.984 79.7873 111.854 80.4763 111.594 81.109C111.334 81.733 110.961 82.2963 110.476 82.799C109.999 83.3017 109.418 83.7393 108.734 84.112C108.049 84.4847 107.282 84.7837 106.433 85.009L106.004 84.164C106.714 83.982 107.356 83.7523 107.928 83.475C108.5 83.189 108.994 82.864 109.41 82.5C109.826 82.136 110.155 81.7373 110.398 81.304C110.64 80.8707 110.788 80.407 110.84 79.913H106.615V79.042H111.984ZM108.942 88.935H114.389V86.296H108.942V88.935ZM107.902 85.451H115.442V89.793H107.902V85.451ZM115.442 78.301V84.892H114.376V78.301H115.442ZM117.872 87.349H119.159L118.366 89.975H117.404L117.872 87.349ZM132.911 84.879C132.469 84.7837 132.027 84.6407 131.585 84.45C131.143 84.2507 130.727 84.0123 130.337 83.735C129.956 83.4577 129.609 83.1413 129.297 82.786C128.985 82.4307 128.734 82.045 128.543 81.629C128.353 82.045 128.101 82.4307 127.789 82.786C127.486 83.1413 127.139 83.4577 126.749 83.735C126.359 84.0123 125.943 84.2507 125.501 84.45C125.068 84.6407 124.626 84.7837 124.175 84.879L123.733 83.995C124.245 83.9083 124.752 83.7393 125.254 83.488C125.766 83.2367 126.221 82.9333 126.619 82.578C127.027 82.2227 127.356 81.824 127.607 81.382C127.859 80.9313 127.984 80.4633 127.984 79.978V79.081H129.102V79.978C129.102 80.4633 129.228 80.9313 129.479 81.382C129.731 81.824 130.06 82.2227 130.467 82.578C130.875 82.9333 131.33 83.2367 131.832 83.488C132.344 83.7393 132.855 83.9083 133.366 83.995L132.911 84.879ZM133.886 87.57V88.441H123.304V87.57H128.01V84.736H129.076V87.57H133.886ZM143.492 80.342H136.381V79.471H144.558V80.628C144.558 80.992 144.554 81.369 144.545 81.759C144.545 82.1403 144.532 82.552 144.506 82.994C144.48 83.4273 144.437 83.8953 144.376 84.398C144.316 84.892 144.229 85.4337 144.116 86.023L143.05 85.906C143.163 85.3513 143.25 84.8313 143.31 84.346C143.371 83.852 143.414 83.3883 143.44 82.955C143.466 82.5217 143.479 82.1143 143.479 81.733C143.488 81.3517 143.492 80.9833 143.492 80.628V80.342ZM145.819 87.453V88.324H135.276V87.453H139.371V83.28H140.437V87.453H145.819ZM153.371 79.562C153.371 80.4027 153.267 81.2173 153.059 82.006C152.86 82.786 152.544 83.527 152.11 84.229C151.677 84.931 151.118 85.581 150.433 86.179C149.749 86.777 148.921 87.3143 147.95 87.791L147.378 86.92C148.947 86.1747 150.13 85.2517 150.927 84.151C151.725 83.0503 152.18 81.8067 152.292 80.42H147.911V79.562H153.371ZM156.79 78.301V89.962H155.724V78.301H156.79ZM165.434 84.775C164.767 84.5583 164.191 84.2333 163.705 83.8C163.229 83.358 162.865 82.8467 162.613 82.266C162.362 82.9333 161.985 83.514 161.482 84.008C160.98 84.502 160.377 84.8747 159.675 85.126L159.129 84.281C159.571 84.125 159.97 83.9213 160.325 83.67C160.689 83.41 160.997 83.1153 161.248 82.786C161.508 82.4567 161.708 82.097 161.846 81.707C161.985 81.3083 162.054 80.901 162.054 80.485V80.03H159.441V79.172H165.694V80.03H163.12V80.485C163.12 80.8663 163.185 81.2347 163.315 81.59C163.454 81.9453 163.645 82.2747 163.887 82.578C164.13 82.8727 164.425 83.1413 164.771 83.384C165.118 83.618 165.508 83.8043 165.941 83.943L165.434 84.775ZM164.524 89.104C165.391 89.104 166.067 88.9913 166.552 88.766C167.046 88.532 167.293 88.207 167.293 87.791C167.293 87.375 167.046 87.0543 166.552 86.829C166.067 86.6037 165.391 86.491 164.524 86.491C163.649 86.491 162.964 86.6037 162.47 86.829C161.985 87.0543 161.742 87.375 161.742 87.791C161.742 88.207 161.985 88.532 162.47 88.766C162.964 88.9913 163.649 89.104 164.524 89.104ZM164.524 85.646C165.114 85.646 165.642 85.6937 166.11 85.789C166.587 85.8843 166.99 86.0273 167.319 86.218C167.657 86.4 167.913 86.6253 168.086 86.894C168.268 87.154 168.359 87.453 168.359 87.791C168.359 88.129 168.268 88.4323 168.086 88.701C167.913 88.9697 167.657 89.195 167.319 89.377C166.99 89.5677 166.587 89.7107 166.11 89.806C165.642 89.9013 165.114 89.949 164.524 89.949C163.328 89.949 162.388 89.7583 161.703 89.377C161.019 89.0043 160.676 88.4757 160.676 87.791C160.676 87.115 161.019 86.5907 161.703 86.218C162.388 85.8367 163.328 85.646 164.524 85.646ZM169.958 81.252V82.149H168.229V85.347H167.163V78.314H168.229V81.252H169.958ZM171.647 84.307C172.15 84.2203 172.653 84.06 173.155 83.826C173.658 83.592 174.109 83.306 174.507 82.968C174.915 82.63 175.244 82.2487 175.495 81.824C175.747 81.3993 175.872 80.953 175.872 80.485V80.238H172.011V79.367H180.838V80.238H176.977V80.485C176.977 80.953 177.103 81.3993 177.354 81.824C177.606 82.24 177.935 82.617 178.342 82.955C178.75 83.293 179.205 83.579 179.707 83.813C180.21 84.0383 180.717 84.19 181.228 84.268L180.799 85.126C180.357 85.0393 179.915 84.905 179.473 84.723C179.031 84.541 178.615 84.3157 178.225 84.047C177.835 83.7783 177.484 83.475 177.172 83.137C176.86 82.799 176.613 82.4307 176.431 82.032C176.249 82.4393 176.002 82.8163 175.69 83.163C175.378 83.501 175.027 83.8043 174.637 84.073C174.256 84.3417 173.849 84.5713 173.415 84.762C172.982 84.944 172.544 85.0827 172.102 85.178L171.647 84.307ZM181.722 87.583V88.467H171.14V87.583H175.898V84.762H176.964V87.583H181.722ZM190.301 84.281C189.824 84.359 189.361 84.424 188.91 84.476C188.468 84.5193 188.017 84.5583 187.558 84.593C187.107 84.619 186.644 84.6363 186.167 84.645C185.69 84.6537 185.183 84.658 184.646 84.658H183.71V81.356H187.922V79.874H183.671V79.003H188.975V82.175H184.75V83.787C185.27 83.787 185.755 83.7827 186.206 83.774C186.665 83.7653 187.112 83.748 187.545 83.722C187.987 83.696 188.42 83.6613 188.845 83.618C189.278 83.566 189.725 83.501 190.184 83.423L190.301 84.281ZM186.167 88.948H191.627V86.712H186.167V88.948ZM185.127 85.867H192.667V89.806H185.127V85.867ZM192.667 78.314V85.217H191.601V78.314H192.667ZM195.097 87.349H196.384L195.591 89.975H194.629L195.097 87.349ZM206.64 79.042C206.64 79.7873 206.51 80.4763 206.25 81.109C205.99 81.733 205.617 82.2963 205.132 82.799C204.655 83.3017 204.074 83.7393 203.39 84.112C202.705 84.4847 201.938 84.7837 201.089 85.009L200.66 84.164C201.37 83.982 202.012 83.7523 202.584 83.475C203.156 83.189 203.65 82.864 204.066 82.5C204.482 82.136 204.811 81.7373 205.054 81.304C205.296 80.8707 205.444 80.407 205.496 79.913H201.271V79.042H206.64ZM203.598 88.935H209.045V86.296H203.598V88.935ZM202.558 85.451H210.098V89.793H202.558V85.451ZM210.098 78.301V84.892H209.032V78.301H210.098ZM216.779 82.071C216.779 82.5563 216.857 83.0373 217.013 83.514C217.169 83.982 217.381 84.4197 217.65 84.827C217.927 85.2257 218.252 85.5853 218.625 85.906C219.006 86.2267 219.413 86.4823 219.847 86.673L219.249 87.505C218.573 87.2017 217.975 86.751 217.455 86.153C216.935 85.555 216.54 84.8703 216.272 84.099C216.012 84.9137 215.622 85.6373 215.102 86.27C214.582 86.894 213.984 87.3707 213.308 87.7L212.71 86.894C213.143 86.686 213.542 86.4173 213.906 86.088C214.278 85.75 214.599 85.3687 214.868 84.944C215.136 84.5193 215.344 84.0643 215.492 83.579C215.648 83.085 215.726 82.5823 215.726 82.071V81.174H213.022V80.316H215.713V78.509H216.792V80.316H219.444V81.174H216.779V82.071ZM222.044 78.288V89.949H220.965V78.288H222.044ZM236.858 83.228C236.416 83.15 235.983 83.033 235.558 82.877C235.133 82.721 234.735 82.5303 234.362 82.305C233.989 82.0797 233.651 81.824 233.348 81.538C233.053 81.252 232.815 80.94 232.633 80.602C232.451 80.94 232.213 81.2563 231.918 81.551C231.623 81.8457 231.29 82.1057 230.917 82.331C230.544 82.5563 230.141 82.747 229.708 82.903C229.283 83.059 228.846 83.176 228.395 83.254L227.979 82.422C228.499 82.344 229.002 82.2053 229.487 82.006C229.981 81.798 230.419 81.551 230.8 81.265C231.19 80.979 231.502 80.6583 231.736 80.303C231.97 79.939 232.087 79.562 232.087 79.172V78.6H233.179V79.172C233.179 79.5533 233.296 79.9217 233.53 80.277C233.764 80.6323 234.072 80.953 234.453 81.239C234.843 81.525 235.281 81.772 235.766 81.98C236.251 82.1793 236.75 82.318 237.261 82.396L236.858 83.228ZM229.747 88.831H236.754V89.702H228.681V86.348H229.747V88.831ZM237.911 84.242V85.1H233.244V87.453H232.165V85.1H227.329V84.242H237.911ZM248.557 83.501H240.757V78.99H248.414V79.861H241.849V82.643H248.557V83.501ZM249.883 85.893H245.099V89.91H244.033V85.893H239.314V85.022H249.883V85.893ZM259.437 81.226H253.652V82.942H259.437V81.226ZM260.503 83.813H252.599V78.769H253.652V80.368H259.437V78.769H260.503V83.813ZM261.842 86.075H257.058V89.975H255.992V86.075H251.26V85.217H261.842V86.075ZM264.35 89.169C264.116 89.169 263.912 89.0867 263.739 88.922C263.574 88.7573 263.492 88.5407 263.492 88.272C263.492 88.0033 263.574 87.7823 263.739 87.609C263.912 87.4357 264.116 87.349 264.35 87.349C264.584 87.349 264.783 87.4357 264.948 87.609C265.121 87.7823 265.208 88.0033 265.208 88.272C265.208 88.5407 265.121 88.7573 264.948 88.922C264.783 89.0867 264.584 89.169 264.35 89.169ZM267.968 89.169C267.734 89.169 267.53 89.0867 267.357 88.922C267.192 88.7573 267.11 88.5407 267.11 88.272C267.11 88.0033 267.192 87.7823 267.357 87.609C267.53 87.4357 267.734 87.349 267.968 87.349C268.202 87.349 268.401 87.4357 268.566 87.609C268.739 87.7823 268.826 88.0033 268.826 88.272C268.826 88.5407 268.739 88.7573 268.566 88.922C268.401 89.0867 268.202 89.169 267.968 89.169ZM271.586 89.169C271.352 89.169 271.149 89.0867 270.975 88.922C270.811 88.7573 270.728 88.5407 270.728 88.272C270.728 88.0033 270.811 87.7823 270.975 87.609C271.149 87.4357 271.352 87.349 271.586 87.349C271.82 87.349 272.02 87.4357 272.184 87.609C272.358 87.7823 272.444 88.0033 272.444 88.272C272.444 88.5407 272.358 88.7573 272.184 88.922C272.02 89.0867 271.82 89.169 271.586 89.169Z" fill="black"/>
</g>
<defs>
<filter id="filter0_b" x="-10" y="-10" width="379" height="132" filterUnits="userSpaceOnUse" color-interpolation-filters="sRGB">
<feFlood flood-opacity="0" result="BackgroundImageFix"/>
<feGaussianBlur in="BackgroundImage" stdDeviation="5"/>
<feComposite in2="SourceAlpha" operator="in" result="effect1_backgroundBlur"/>
<feBlend mode="normal" in="SourceGraphic" in2="effect1_backgroundBlur" result="shape"/>
</filter>
<clipPath id="clip0">
<rect width="17.5" height="17.5" fill="white" transform="translate(9.31641 9.31653)"/>
</clipPath>
</defs>
</svg>
