<svg width="359" height="126" viewBox="0 0 359 126" fill="none" xmlns="http://www.w3.org/2000/svg">
<mask id="mask0" mask-type="alpha" maskUnits="userSpaceOnUse" x="0" y="0" width="359" height="126">
<rect width="359" height="126" rx="13" fill="#C4C4C4"/>
</mask>
<g mask="url(#mask0)">
<g filter="url(#filter0_b)">
<rect width="359" height="126" fill="#F8F8F8" fill-opacity="0.82"/>
</g>
<rect width="359" height="36" fill="white" fill-opacity="0.35"/>
<path d="M44.021 19.126H43.007V12.535H44.021V15.434H45.503V12.314H46.53V19.503H45.503V16.305H44.021V19.126ZM41.954 18.593C41.408 18.3677 40.94 18.06 40.55 17.67C40.16 17.2713 39.861 16.825 39.653 16.331C39.445 16.877 39.1373 17.384 38.73 17.852C38.3313 18.3113 37.846 18.6667 37.274 18.918L36.702 18.086C37.0833 17.9213 37.4213 17.709 37.716 17.449C38.0193 17.1803 38.275 16.89 38.483 16.578C38.691 16.266 38.8513 15.941 38.964 15.603C39.0767 15.265 39.133 14.9313 39.133 14.602V13.029H40.16V14.602C40.16 14.9227 40.212 15.2433 40.316 15.564C40.4287 15.876 40.5847 16.175 40.784 16.461C40.9833 16.7383 41.2303 16.994 41.525 17.228C41.8197 17.4533 42.1533 17.6353 42.526 17.774L41.954 18.593ZM42.682 23.13C43.5747 23.13 44.2723 23.0217 44.775 22.805C45.2777 22.5797 45.529 22.2633 45.529 21.856C45.529 21.4487 45.2777 21.1367 44.775 20.92C44.2723 20.7033 43.5747 20.595 42.682 20.595C41.8067 20.595 41.1133 20.7033 40.602 20.92C40.0993 21.1367 39.848 21.4487 39.848 21.856C39.848 22.2633 40.0993 22.5797 40.602 22.805C41.1133 23.0217 41.8067 23.13 42.682 23.13ZM42.682 19.763C43.28 19.763 43.8173 19.8107 44.294 19.906C44.7793 20.0013 45.191 20.14 45.529 20.322C45.867 20.4953 46.127 20.712 46.309 20.972C46.491 21.232 46.582 21.5267 46.582 21.856C46.582 22.1853 46.491 22.48 46.309 22.74C46.127 23 45.867 23.2167 45.529 23.39C45.191 23.572 44.7793 23.7107 44.294 23.806C43.8173 23.9013 43.28 23.949 42.682 23.949C42.084 23.949 41.5423 23.9013 41.057 23.806C40.5803 23.7107 40.173 23.572 39.835 23.39C39.5057 23.2167 39.25 23 39.068 22.74C38.886 22.48 38.795 22.1853 38.795 21.856C38.795 21.5267 38.886 21.232 39.068 20.972C39.25 20.712 39.5057 20.4953 39.835 20.322C40.173 20.14 40.5803 20.0013 41.057 19.906C41.5423 19.8107 42.084 19.763 42.682 19.763ZM55.577 13.952H48.882V13.185H51.703V12.184H52.769V13.185H55.577V13.952ZM50.52 15.85C50.52 16.11 50.6717 16.318 50.975 16.474C51.287 16.6213 51.7073 16.695 52.236 16.695C52.756 16.695 53.1677 16.6213 53.471 16.474C53.783 16.318 53.939 16.11 53.939 15.85C53.939 15.59 53.783 15.3863 53.471 15.239C53.1677 15.0917 52.756 15.018 52.236 15.018C51.7073 15.018 51.287 15.0917 50.975 15.239C50.6717 15.3863 50.52 15.59 50.52 15.85ZM55.993 18.463C55.369 18.5757 54.7363 18.6623 54.095 18.723C53.4537 18.7837 52.8167 18.8313 52.184 18.866C51.56 18.892 50.9533 18.9093 50.364 18.918C49.7747 18.918 49.2243 18.918 48.713 18.918L48.596 18.125C49.0553 18.125 49.545 18.125 50.065 18.125C50.5937 18.1163 51.1397 18.1033 51.703 18.086V17.371C51.027 17.319 50.4897 17.163 50.091 16.903C49.701 16.643 49.506 16.292 49.506 15.85C49.506 15.3647 49.7487 14.9877 50.234 14.719C50.728 14.4503 51.3953 14.316 52.236 14.316C53.0593 14.316 53.718 14.4503 54.212 14.719C54.706 14.9877 54.953 15.3647 54.953 15.85C54.953 16.2833 54.758 16.63 54.368 16.89C53.978 17.15 53.445 17.3103 52.769 17.371V18.047C53.3063 18.021 53.8393 17.9863 54.368 17.943C54.9053 17.8997 55.4253 17.8433 55.928 17.774L55.993 18.463ZM51.209 23.065H58.125V23.832H50.169V21.362H56.63V20.452H50.13V19.698H57.683V22.077H51.209V23.065ZM59.399 15.278V16.175H57.683V19.191H56.617V12.301H57.683V15.278H59.399ZM65.677 17.163C65.8156 16.487 65.9023 15.8977 65.937 15.395C65.9716 14.8923 65.989 14.4547 65.989 14.082H61.231V13.211H67.029V13.822C67.029 14.212 67.016 14.693 66.99 15.265C66.964 15.837 66.8773 16.5087 66.73 17.28L65.677 17.163ZM67.913 18.762C67.3063 18.866 66.6823 18.9483 66.041 19.009C65.4083 19.0697 64.7756 19.1173 64.143 19.152C63.5103 19.178 62.895 19.1997 62.297 19.217C61.7076 19.2257 61.153 19.23 60.633 19.23L60.529 18.359C60.9016 18.359 61.296 18.359 61.712 18.359C62.128 18.3503 62.557 18.3417 62.999 18.333V15.811H64.052V18.294C64.6933 18.268 65.3346 18.2333 65.976 18.19C66.6173 18.138 67.237 18.0687 67.835 17.982L67.913 18.762ZM63.376 22.831H70.058V23.702H62.31V20.283H63.376V22.831ZM71.358 16.097V16.981H69.681V21.089H68.615V12.301H69.681V16.097H71.358ZM80.2702 14.017H76.9942V17.475H80.2702V14.017ZM81.3102 18.333H75.9542V13.172H81.3102V18.333ZM76.9422 19.828H84.5212V23.975H83.4552V20.699H76.9422V19.828ZM86.2502 16.214H84.5212V19.217H83.4552V12.314H84.5212V15.33H86.2502V16.214ZM89.0702 20.01C89.6335 20.0013 90.2228 19.9753 90.8382 19.932C91.4535 19.88 92.1122 19.7847 92.8142 19.646L92.9182 20.569C92.1295 20.7163 91.3928 20.816 90.7082 20.868C90.0322 20.9113 89.3778 20.933 88.7452 20.933H88.0042V13.718H89.0702V20.01ZM97.3252 12.301V23.949H96.2982V17.93H94.6472V23.364H93.6462V12.561H94.6472V17.046H96.2982V12.301H97.3252Z" fill="#999999"/>
<path d="M324.931 16.863C324.931 17.357 325.013 17.8467 325.178 18.332C325.343 18.8173 325.564 19.2723 325.841 19.697C326.127 20.113 326.456 20.4857 326.829 20.815C327.21 21.1443 327.618 21.4 328.051 21.582L327.453 22.44C327.115 22.284 326.79 22.0847 326.478 21.842C326.175 21.5993 325.889 21.3263 325.62 21.023C325.36 20.7197 325.126 20.386 324.918 20.022C324.71 19.658 324.537 19.2767 324.398 18.878C324.268 19.3027 324.099 19.71 323.891 20.1C323.683 20.49 323.449 20.854 323.189 21.192C322.929 21.5213 322.647 21.8203 322.344 22.089C322.041 22.349 321.724 22.5613 321.395 22.726L320.771 21.868C321.187 21.6687 321.581 21.3913 321.954 21.036C322.335 20.6807 322.665 20.2777 322.942 19.827C323.228 19.3763 323.453 18.8953 323.618 18.384C323.783 17.8727 323.865 17.3657 323.865 16.863V15.381H321.161V14.497H327.674V15.381H324.931V16.863ZM330.313 13.314V24.962H329.247V13.314H330.313ZM335.07 23.948H340.933V21.517H335.07V23.948ZM334.03 20.659H341.986V24.806H334.03V20.659ZM343.312 18.215V19.073H332.717V18.215H340.556C340.721 17.487 340.816 16.85 340.842 16.304C340.877 15.7493 340.894 15.2423 340.894 14.783H334.069V13.925H341.947V14.783C341.947 15.2423 341.934 15.745 341.908 16.291C341.882 16.837 341.791 17.4783 341.635 18.215H343.312Z" fill="#999999"/>
<path d="M8 12C8 9.79086 9.79086 8 12 8H24C26.2091 8 28 9.79086 28 12V24C28 26.2091 26.2091 28 24 28H12C9.79086 28 8 26.2091 8 24V12Z" fill="white"/>
<g clip-path="url(#clip0)">
<path d="M19.8756 21.4824H16.2575C14.6958 21.4824 13.4253 22.753 13.4253 24.3146V26.5601C13.4253 26.7017 13.5401 26.8164 13.6816 26.8164H22.4514C22.593 26.8164 22.7077 26.7017 22.7077 26.5601V24.3147C22.7077 22.753 21.4372 21.4824 19.8756 21.4824Z" fill="#468466"/>
<path d="M19.8756 21.4824H18.9414C20.5031 21.4824 21.7736 22.753 21.7736 24.3146V26.5601C21.7736 26.7017 21.6588 26.8164 21.5172 26.8164H22.4515C22.593 26.8164 22.7078 26.7017 22.7078 26.5601V24.3147C22.7078 22.753 21.4373 21.4824 19.8756 21.4824Z" fill="#346349"/>
<path d="M19.5054 18.4674V21.7264L18.0664 24.5264L16.6274 21.7264V18.4674H19.5054Z" fill="#FA9E3E"/>
<path d="M19.3049 22.1168C18.4791 22.6408 17.6535 22.641 16.8281 22.1168L18.0665 24.5265L19.3049 22.1168Z" fill="#049B64"/>
<path d="M13.6178 16.8699H15.3053V18.8048H13.6178C13.0836 18.8048 12.6504 18.3716 12.6504 17.8373C12.6504 17.303 13.0835 16.8699 13.6178 16.8699Z" fill="#FA9E3E"/>
<path d="M22.5155 16.8699H20.8281V18.8048H22.5155C23.0498 18.8048 23.483 18.3716 23.483 17.8373C23.483 17.303 23.0498 16.8699 22.5155 16.8699Z" fill="#FA9E3E"/>
<path d="M21.8985 13.0688H14.2344C14.0928 13.0688 13.978 13.1836 13.978 13.3252V17.201C13.978 19.4553 15.8121 21.2893 18.0664 21.2893C20.3208 21.2893 22.1548 19.4553 22.1548 17.201V13.3252C22.1548 13.1836 22.0401 13.0688 21.8985 13.0688Z" fill="#FFB56B"/>
<path d="M21.8984 13.0688H21.0007C21.1263 13.0688 21.228 13.1836 21.228 13.3252V17.201C21.228 19.3728 19.7186 21.1543 17.8208 21.2817C17.9021 21.2866 17.9839 21.2893 18.0664 21.2893C20.3207 21.2893 22.1548 19.4553 22.1548 17.201V13.3252C22.1548 13.1836 22.04 13.0688 21.8984 13.0688Z" fill="#EF9245"/>
<path d="M19.9229 17.2789C19.7813 17.2789 19.6665 17.1642 19.6665 17.0226V16.9542C19.6665 16.8126 19.7813 16.6979 19.9229 16.6979C20.0645 16.6979 20.1792 16.8126 20.1792 16.9542V17.0226C20.1792 17.1642 20.0645 17.2789 19.9229 17.2789Z" fill="#19303F"/>
<path d="M16.2095 17.2789C16.0679 17.2789 15.9531 17.1642 15.9531 17.0226V16.9542C15.9531 16.8126 16.0679 16.6979 16.2095 16.6979C16.351 16.6979 16.4658 16.8126 16.4658 16.9542V17.0226C16.4658 17.1642 16.351 17.2789 16.2095 17.2789Z" fill="#19303F"/>
<path d="M18.0663 19.1766C17.6051 19.1766 17.1727 18.9499 16.9099 18.5703C16.8293 18.4539 16.8583 18.2942 16.9747 18.2136C17.0911 18.133 17.2508 18.162 17.3314 18.2784C17.4985 18.5198 17.7732 18.6639 18.0663 18.6639C18.3593 18.6639 18.634 18.5198 18.8012 18.2784C18.8818 18.1621 19.0414 18.1329 19.1578 18.2136C19.2742 18.2942 19.3033 18.4539 19.2227 18.5703C18.9598 18.9499 18.5275 19.1766 18.0663 19.1766Z" fill="#19303F"/>
<path d="M24.3008 18.9947L24.0529 15.761C24.0498 15.7202 24.0369 15.6806 24.0153 15.6458L23.3242 14.5282L23.2485 13.0951C23.1366 10.9763 21.3869 9.31653 19.265 9.31653H16.8681C14.7463 9.31653 12.9965 10.9763 12.8846 13.0951L12.8089 14.5282L12.1178 15.6458C12.0962 15.6807 12.0833 15.7202 12.0802 15.761L11.8323 18.9947C11.8268 19.0659 11.8513 19.1362 11.8998 19.1885C11.9483 19.2409 12.0165 19.2707 12.0879 19.2707H12.7395C12.8387 19.2707 12.929 19.2134 12.9714 19.1237L14.1657 16.5924L15.4497 15.8815H20.6835L21.9674 16.5924L23.1618 19.1237C23.2041 19.2134 23.2944 19.2707 23.3936 19.2707H24.0452C24.1166 19.2707 24.1848 19.2409 24.2333 19.1885C24.2818 19.1362 24.3063 19.0659 24.3008 18.9947Z" fill="#468466"/>
<path d="M24.3003 18.9947L24.0524 15.761C24.0493 15.7202 24.0364 15.6806 24.0148 15.6458L23.3237 14.5282L23.2479 13.0951C23.1361 10.9763 21.3863 9.31653 19.2645 9.31653H18.4458C20.5676 9.31653 22.3174 10.9763 22.4293 13.0951L22.505 14.5282L23.1961 15.6458C23.2177 15.6807 23.2306 15.7202 23.2337 15.761L23.4816 18.9947C23.4871 19.0659 23.4626 19.1362 23.4141 19.1885C23.3852 19.2197 23.3493 19.2426 23.31 19.2563C23.3364 19.2653 23.3643 19.2707 23.3931 19.2707H24.0447C24.1161 19.2707 24.1843 19.2409 24.2328 19.1886C24.2813 19.1362 24.3057 19.0659 24.3003 18.9947Z" fill="#346349"/>
<rect x="21.9885" y="24.2445" width="0.461426" height="0.769043" fill="white" stroke="#0047FF" stroke-width="0.461426"/>
<ellipse cx="22.2192" cy="24.6461" rx="0.187988" ry="0.324707" fill="#0047FF"/>
<path d="M22.0483 24.6444C22.0483 24.5948 22.0688 24.5265 22.1509 24.5265C22.2329 24.5265 22.2363 24.5948 22.2363 24.6461C22.2363 24.6974 22.2534 24.7487 22.3218 24.7487C22.3666 24.7487 22.3901 24.7127 22.3901 24.6444" stroke="#FF4242"/>
<path d="M22.0483 24.6461C22.0483 24.5493 22.0798 24.3214 22.2192 24.3214C22.356 24.3214 22.3901 24.5379 22.3901 24.6632" stroke="#FF4242"/>
</g>
<path d="M26.816 51.68H17.079V50.341H21.109V49.132H22.825V50.341H26.829L26.816 51.68ZM24.294 54.189C24.294 53.6777 23.5183 53.422 21.967 53.422C20.4243 53.422 19.653 53.6777 19.653 54.189C19.653 54.709 20.4243 54.969 21.967 54.969C23.5183 54.969 24.294 54.709 24.294 54.189ZM17.872 54.189C17.872 53.5303 18.2317 53.0277 18.951 52.681C19.679 52.3257 20.6843 52.148 21.967 52.148C23.2497 52.148 24.255 52.3257 24.983 52.681C25.711 53.0277 26.075 53.5303 26.075 54.189C26.075 54.8563 25.711 55.3677 24.983 55.723C24.255 56.0697 23.2497 56.243 21.967 56.243C20.6843 56.243 19.679 56.0697 18.951 55.723C18.2317 55.3677 17.872 54.8563 17.872 54.189ZM27.401 58.18H24.918V61.144H23.189V58.18H20.784V61.144H19.055V58.18H16.559V56.802H27.401V58.18ZM34.706 50.367C34.706 51.2683 34.615 52.135 34.433 52.967C34.251 53.7903 33.9477 54.5703 33.523 55.307C33.107 56.035 32.5567 56.7153 31.872 57.348C31.196 57.9807 30.3597 58.5483 29.363 59.051L28.401 57.738C29.7963 57.0187 30.8667 56.178 31.612 55.216C32.366 54.2453 32.821 53.0927 32.977 51.758H29.064V50.367H34.706ZM39.568 55.125H37.891V61.092H36.175V49.132H37.891V53.708H39.568V55.125ZM45.5023 56.75C46.2649 56.7327 47.0449 56.6893 47.8423 56.62C48.6483 56.542 49.4716 56.4207 50.3123 56.256L50.4813 57.66C49.4846 57.868 48.5096 58.0067 47.5563 58.076C46.6116 58.1453 45.7016 58.18 44.8263 58.18H43.7863V50.276H45.5023V56.75ZM54.4723 55.073H52.7953V61.092H51.0793V49.132H52.7953V53.656H54.4723V55.073ZM61.5693 50.367C61.5693 51.2683 61.4783 52.135 61.2963 52.967C61.1143 53.7903 60.8109 54.5703 60.3863 55.307C59.9703 56.035 59.4199 56.7153 58.7353 57.348C58.0593 57.9807 57.2229 58.5483 56.2263 59.051L55.2643 57.738C56.6596 57.0187 57.7299 56.178 58.4753 55.216C59.2293 54.2453 59.6843 53.0927 59.8403 51.758H55.9273V50.367H61.5693ZM66.4313 55.125H64.7543V61.092H63.0383V49.132H64.7543V53.708H66.4313V55.125ZM71.8383 51.797C71.8383 52.3603 71.8946 52.915 72.0073 53.461C72.1199 54.007 72.2889 54.5183 72.5143 54.995C72.7483 55.463 73.0429 55.8833 73.3983 56.256C73.7623 56.6287 74.1913 56.9233 74.6853 57.14L73.6713 58.505C73.0126 58.1843 72.4623 57.7467 72.0203 57.192C71.5869 56.6287 71.2446 55.983 70.9933 55.255C70.7333 56.0263 70.3779 56.711 69.9273 57.309C69.4766 57.907 68.9133 58.375 68.2373 58.713L67.1713 57.335C67.6739 57.101 68.1116 56.789 68.4843 56.399C68.8569 56.0003 69.1603 55.5583 69.3943 55.073C69.6369 54.579 69.8146 54.0547 69.9273 53.5C70.0486 52.9367 70.1093 52.369 70.1093 51.797V50.068H71.8383V51.797ZM77.3893 49.132V61.144H75.6733V54.267H73.3723V52.889H75.6733V49.132H77.3893ZM87.4705 51.069H84.8575V52.915H87.4705V51.069ZM89.1475 54.267H83.1675V49.717H89.1475V54.267ZM90.0055 56.23C88.9569 56.3687 87.9082 56.4727 86.8595 56.542V60.767H85.1435V56.607C84.6582 56.6243 84.1859 56.6373 83.7265 56.646C83.2759 56.646 82.8382 56.646 82.4135 56.646L82.2055 55.255C82.7949 55.255 83.4059 55.255 84.0385 55.255C84.6799 55.2463 85.3299 55.2333 85.9885 55.216C86.6472 55.19 87.3059 55.1597 87.9645 55.125C88.6232 55.0903 89.2689 55.0383 89.9015 54.969L90.0055 56.23ZM92.3845 49.145V61.105H90.6685V58.505H88.2635V57.205H90.6685V49.145H92.3845ZM104.195 51.316H97.1358V50.029H99.8008V49.054H101.53V50.029H104.195V51.316ZM99.3718 53.565C99.3718 53.8163 99.4888 54.0027 99.7228 54.124C99.9568 54.2453 100.273 54.306 100.672 54.306C101.071 54.306 101.387 54.2453 101.621 54.124C101.855 54.0027 101.972 53.8163 101.972 53.565C101.972 53.3137 101.855 53.1273 101.621 53.006C101.387 52.876 101.071 52.811 100.672 52.811C100.273 52.811 99.9568 52.876 99.7228 53.006C99.4888 53.1273 99.3718 53.3137 99.3718 53.565ZM103.61 53.565C103.61 53.8683 103.541 54.1413 103.402 54.384C103.263 54.618 103.064 54.8217 102.804 54.995C102.553 55.1597 102.245 55.2897 101.881 55.385C101.517 55.4717 101.114 55.515 100.672 55.515C100.23 55.515 99.8268 55.4717 99.4628 55.385C99.1075 55.2897 98.7998 55.1597 98.5398 54.995C98.2798 54.8217 98.0805 54.618 97.9418 54.384C97.8032 54.1413 97.7338 53.8683 97.7338 53.565C97.7338 53.2617 97.8032 52.9887 97.9418 52.746C98.0805 52.5033 98.2798 52.2997 98.5398 52.135C98.7998 51.9617 99.1075 51.8317 99.4628 51.745C99.8268 51.6497 100.23 51.602 100.672 51.602C101.114 51.602 101.517 51.6497 101.881 51.745C102.245 51.8317 102.553 51.9617 102.804 52.135C103.064 52.2997 103.263 52.5033 103.402 52.746C103.541 52.9887 103.61 53.2617 103.61 53.565ZM100.386 59.779H106.912V61.027H98.6828V57.946H104.884V57.322H98.6698V56.074H106.574V59.116H100.386V59.779ZM108.16 51.68V53.084H106.574V55.606H104.858V49.132H106.574V51.68H108.16ZM113.736 52.369C113.736 52.8543 113.796 53.344 113.918 53.838C114.039 54.3233 114.221 54.7827 114.464 55.216C114.715 55.6493 115.023 56.0393 115.387 56.386C115.759 56.7327 116.197 57.01 116.7 57.218L115.764 58.57C115.062 58.2667 114.472 57.8377 113.996 57.283C113.528 56.7283 113.159 56.087 112.891 55.359C112.622 56.1477 112.245 56.8497 111.76 57.465C111.283 58.0803 110.694 58.5483 109.992 58.869L109.017 57.504C109.519 57.2787 109.957 56.9797 110.33 56.607C110.702 56.2343 111.01 55.8227 111.253 55.372C111.504 54.9127 111.69 54.4273 111.812 53.916C111.933 53.396 111.994 52.8803 111.994 52.369V51.706H109.498V50.289H116.206V51.706H113.736V52.369ZM119.027 49.145V61.118H117.311V49.145H119.027ZM131.617 56.854C131.842 55.7273 131.977 54.735 132.02 53.877C132.072 53.0103 132.098 52.2303 132.098 51.537H125.117V50.172H133.814V51.316C133.814 51.6887 133.81 52.0787 133.801 52.486C133.801 52.8933 133.784 53.331 133.749 53.799C133.723 54.2583 133.675 54.7567 133.606 55.294C133.545 55.8313 133.454 56.4163 133.333 57.049L131.617 56.854ZM134.854 58.297V59.675H124.025V58.297H127.847V54.176H129.563V58.297H134.854ZM145.916 57.66H144.187V49.145H145.916V57.66ZM140.703 51.446H138.259V54.527H140.703V51.446ZM142.38 55.879H136.569V50.094H142.38V55.879ZM146.215 59.493V60.871H137.947V56.906H139.663V59.493H146.215ZM157.901 58.154H156.172V49.132H157.901V58.154ZM155.574 56.386C154.317 56.568 153.052 56.685 151.778 56.737C150.504 56.7803 149.312 56.802 148.203 56.802L147.982 55.437C148.459 55.437 148.953 55.437 149.464 55.437C149.975 55.437 150.495 55.4283 151.024 55.411V54.176H148.97V49.86H154.755V51.225H150.686V52.811H154.833V54.176H152.74V55.346C153.208 55.3287 153.667 55.307 154.118 55.281C154.569 55.2463 155.015 55.2073 155.457 55.164L155.574 56.386ZM158.213 59.545V60.91H149.789V57.504H151.518V59.545H158.213ZM162.06 56.841C162.909 56.8323 163.707 56.802 164.452 56.75C165.197 56.6893 165.956 56.594 166.727 56.464L166.896 57.881C166.445 57.959 165.999 58.024 165.557 58.076C165.124 58.128 164.682 58.1713 164.231 58.206C163.789 58.232 163.33 58.2493 162.853 58.258C162.385 58.2667 161.891 58.271 161.371 58.271H160.344V50.25H165.934V51.641H162.06V56.841ZM171.004 54.982H169.262V61.144H167.546V49.145H169.262V53.565H171.004V54.982ZM176.307 51.446H174.032V54.605H176.307V51.446ZM177.984 52.395V53.604H180.142V52.395H177.984ZM177.984 55.957H172.342V50.107H177.984V51.03H180.142V49.145H181.858V57.868H180.142V54.969H177.984V55.957ZM182.118 59.545V60.91H173.954V57.049H175.67V59.545H182.118ZM185.64 56.75C185.605 56.2733 185.631 55.879 185.718 55.567C185.805 55.2463 185.917 54.9777 186.056 54.761C186.203 54.5443 186.364 54.358 186.537 54.202C186.71 54.046 186.871 53.8943 187.018 53.747C187.174 53.5997 187.304 53.435 187.408 53.253C187.512 53.071 187.564 52.8457 187.564 52.577C187.564 52.239 187.482 51.9573 187.317 51.732C187.152 51.498 186.888 51.381 186.524 51.381C186.16 51.381 185.861 51.5067 185.627 51.758C185.393 52.0093 185.259 52.395 185.224 52.915H183.599C183.634 52.343 183.746 51.862 183.937 51.472C184.136 51.082 184.375 50.77 184.652 50.536C184.938 50.302 185.25 50.1417 185.588 50.055C185.926 49.9597 186.255 49.9207 186.576 49.938C186.957 49.9553 187.313 50.0247 187.642 50.146C187.98 50.2587 188.27 50.4233 188.513 50.64C188.756 50.848 188.946 51.1037 189.085 51.407C189.224 51.7103 189.293 52.057 189.293 52.447C189.293 52.8977 189.237 53.2617 189.124 53.539C189.011 53.8163 188.868 54.0503 188.695 54.241C188.53 54.423 188.353 54.5833 188.162 54.722C187.971 54.8607 187.794 55.0167 187.629 55.19C187.473 55.3547 187.343 55.5583 187.239 55.801C187.135 56.0437 187.092 56.36 187.109 56.75H185.64ZM186.381 60.182C186.043 60.182 185.761 60.065 185.536 59.831C185.311 59.5883 185.198 59.2893 185.198 58.934C185.198 58.5787 185.311 58.284 185.536 58.05C185.761 57.8073 186.043 57.686 186.381 57.686C186.728 57.686 187.014 57.8073 187.239 58.05C187.464 58.284 187.577 58.5787 187.577 58.934C187.577 59.2893 187.464 59.5883 187.239 59.831C187.014 60.065 186.728 60.182 186.381 60.182Z" fill="black"/>
<path d="M18.629 80.573C18.123 79.7517 17.727 78.8863 17.441 77.977C17.155 77.0677 17.012 76.0703 17.012 74.985C17.012 73.907 17.155 72.9133 17.441 72.004C17.727 71.0947 18.123 70.2293 18.629 69.408L19.256 69.694C18.772 70.486 18.4163 71.333 18.189 72.235C17.9617 73.1297 17.848 74.0463 17.848 74.985C17.848 75.9237 17.9617 76.844 18.189 77.746C18.4163 78.648 18.772 79.4913 19.256 80.276L18.629 80.573ZM24.5898 73.698C24.7071 73.17 24.7768 72.7117 24.7988 72.323C24.8281 71.9343 24.8428 71.5897 24.8428 71.289H20.8388V70.563H25.7228V71.091C25.7228 71.4063 25.7118 71.7877 25.6898 72.235C25.6678 72.675 25.5945 73.1883 25.4698 73.775L24.5898 73.698ZM26.4818 75.051C25.9685 75.1317 25.4405 75.1977 24.8978 75.249C24.3625 75.293 23.8308 75.3297 23.3028 75.359C22.7748 75.3883 22.2578 75.4067 21.7518 75.414C21.2458 75.4213 20.7728 75.425 20.3328 75.425L20.2338 74.677C20.5491 74.677 20.8828 74.677 21.2348 74.677C21.5868 74.677 21.9498 74.6697 22.3238 74.655V72.708H23.2148V74.633C23.7575 74.611 24.3001 74.5817 24.8428 74.545C25.3855 74.5083 25.9098 74.457 26.4158 74.391L26.4818 75.051ZM24.7988 79.077C25.5321 79.077 26.1078 78.9853 26.5258 78.802C26.9511 78.6113 27.1638 78.3437 27.1638 77.999C27.1638 77.6617 26.9511 77.4013 26.5258 77.218C26.1078 77.0273 25.5321 76.932 24.7988 76.932C24.0655 76.932 23.4861 77.0273 23.0608 77.218C22.6428 77.4013 22.4338 77.6617 22.4338 77.999C22.4338 78.3437 22.6428 78.6113 23.0608 78.802C23.4861 78.9853 24.0655 79.077 24.7988 79.077ZM24.7988 76.228C25.3048 76.228 25.7595 76.2683 26.1628 76.349C26.5661 76.4297 26.9108 76.547 27.1968 76.701C27.4828 76.8477 27.6991 77.031 27.8458 77.251C27.9998 77.471 28.0768 77.7203 28.0768 77.999C28.0768 78.285 27.9998 78.5417 27.8458 78.769C27.6991 78.989 27.4828 79.1723 27.1968 79.319C26.9108 79.473 26.5661 79.5903 26.1628 79.671C25.7595 79.7517 25.3048 79.792 24.7988 79.792C24.2928 79.792 23.8381 79.7517 23.4348 79.671C23.0315 79.5903 22.6868 79.473 22.4008 79.319C22.1148 79.1723 21.8948 78.989 21.7408 78.769C21.5941 78.5417 21.5208 78.285 21.5208 77.999C21.5208 77.7203 21.5941 77.471 21.7408 77.251C21.8948 77.031 22.1148 76.8477 22.4008 76.701C22.6868 76.547 23.0315 76.4297 23.4348 76.349C23.8381 76.2683 24.2928 76.228 24.7988 76.228ZM29.3858 72.642V73.39H27.9778V76.096H27.0758V69.936H27.9778V72.642H29.3858ZM37.3819 71.674H31.3649V70.937H38.2839V71.916C38.2839 72.224 38.2803 72.543 38.2729 72.873C38.2729 73.1957 38.2619 73.544 38.2399 73.918C38.2179 74.2847 38.1813 74.6807 38.1299 75.106C38.0786 75.524 38.0053 75.9823 37.9099 76.481L37.0079 76.382C37.1033 75.9127 37.1766 75.4727 37.2279 75.062C37.2793 74.644 37.3159 74.2517 37.3379 73.885C37.3599 73.5183 37.3709 73.1737 37.3709 72.851C37.3783 72.5283 37.3819 72.2167 37.3819 71.916V71.674ZM39.3509 77.691V78.428H30.4299V77.691H33.8949V74.16H34.7969V77.691H39.3509ZM40.4281 80.21C40.9047 79.4253 41.2567 78.582 41.4841 77.68C41.7187 76.778 41.8361 75.8577 41.8361 74.919C41.8361 73.9803 41.7187 73.0637 41.4841 72.169C41.2567 71.267 40.9047 70.42 40.4281 69.628L41.0441 69.342C41.5574 70.1633 41.9571 71.0287 42.2431 71.938C42.5291 72.8473 42.6721 73.841 42.6721 74.919C42.6721 76.0043 42.5291 77.0017 42.2431 77.911C41.9571 78.8203 41.5574 79.6857 41.0441 80.507L40.4281 80.21ZM48.9478 76.811C49.3365 76.811 49.6445 76.58 49.8718 76.118C50.1065 75.6487 50.2238 75.007 50.2238 74.193C50.2238 73.797 50.1908 73.4413 50.1248 73.126C50.0662 72.8033 49.9818 72.532 49.8718 72.312C49.7618 72.0847 49.6262 71.9123 49.4648 71.795C49.3108 71.6703 49.1385 71.608 48.9478 71.608C48.5518 71.608 48.2365 71.8427 48.0018 72.312C47.7745 72.774 47.6608 73.401 47.6608 74.193C47.6608 75.007 47.7745 75.6487 48.0018 76.118C48.2365 76.58 48.5518 76.811 48.9478 76.811ZM52.2808 70.167H53.1388V79.33H52.2808V74.523H51.0378C51.0158 75.007 50.9498 75.4433 50.8398 75.832C50.7372 76.2133 50.5942 76.5397 50.4108 76.811C50.2348 77.0823 50.0222 77.2913 49.7728 77.438C49.5235 77.5773 49.2485 77.647 48.9478 77.647C48.6252 77.647 48.3318 77.5663 48.0678 77.405C47.8112 77.2437 47.5912 77.0163 47.4078 76.723C47.2245 76.4223 47.0815 76.0593 46.9788 75.634C46.8835 75.2087 46.8358 74.7283 46.8358 74.193C46.8358 73.665 46.8835 73.192 46.9788 72.774C47.0815 72.3487 47.2245 71.9893 47.4078 71.696C47.5912 71.3953 47.8112 71.168 48.0678 71.014C48.3318 70.8527 48.6252 70.772 48.9478 70.772C49.2412 70.772 49.5088 70.8417 49.7508 70.981C50.0002 71.1203 50.2128 71.322 50.3888 71.586C50.5722 71.8427 50.7188 72.158 50.8288 72.532C50.9388 72.906 51.0085 73.324 51.0378 73.786H52.2808V70.167ZM55.0968 69.947V79.814H54.2388V69.947H55.0968ZM60.871 74.006H58.121V76.602H60.871V74.006ZM64.963 69.947V79.836H64.061V74.336H61.751V77.339H57.23V70.728H58.121V73.291H60.871V70.728H61.751V73.61H64.061V69.947H64.963ZM73.0911 77.009H72.2331V70.134H73.0911V72.906H74.4111V69.958H75.2801V77.295H74.4111V73.643H73.0911V77.009ZM71.7601 75.535C71.4448 75.5937 71.1405 75.645 70.8471 75.689C70.5611 75.7257 70.2678 75.755 69.9671 75.777C69.6738 75.799 69.3695 75.8137 69.0541 75.821C68.7388 75.8283 68.4051 75.832 68.0531 75.832H67.4041V72.928H70.2201V71.531H67.3821V70.805H71.0891V73.61H68.2731V75.095C68.5958 75.095 68.9001 75.0913 69.1861 75.084C69.4721 75.0767 69.7508 75.062 70.0221 75.04C70.2935 75.018 70.5648 74.9887 70.8361 74.952C71.1075 74.9153 71.3861 74.8677 71.6721 74.809L71.7601 75.535ZM75.5661 78.857V79.594H68.8451V76.635H69.7471V78.857H75.5661ZM84.9813 75.414H78.2053V70.849H84.8823V71.597H79.0963V74.677H84.9813V75.414ZM86.0153 77.735V78.483H77.0613V77.735H86.0153ZM91.1694 73.94C91.5874 73.8447 91.9724 73.797 92.3244 73.797C92.757 73.797 93.1347 73.8593 93.4574 73.984C93.78 74.1087 94.0514 74.2847 94.2714 74.512C94.4914 74.732 94.6564 74.9887 94.7664 75.282C94.8837 75.5753 94.9424 75.9017 94.9424 76.261C94.9424 76.6937 94.8654 77.0823 94.7114 77.427C94.5574 77.7717 94.3484 78.0723 94.0844 78.329C93.8277 78.5783 93.5197 78.769 93.1604 78.901C92.801 79.033 92.4197 79.099 92.0164 79.099C91.7744 79.099 91.5434 79.0733 91.3234 79.022C91.1034 78.978 90.898 78.9157 90.7074 78.835C90.5167 78.7543 90.337 78.6627 90.1684 78.56C90.007 78.4573 89.864 78.3473 89.7394 78.23L90.2784 77.493C90.381 77.581 90.48 77.6543 90.5754 77.713C90.678 77.7717 90.7954 77.8377 90.9274 77.911C91.0667 77.9843 91.2244 78.0503 91.4004 78.109C91.5837 78.1677 91.8037 78.197 92.0604 78.197C92.339 78.197 92.5957 78.153 92.8304 78.065C93.065 77.9697 93.2667 77.8487 93.4354 77.702C93.604 77.548 93.736 77.35 93.8314 77.108C93.9267 76.866 93.9744 76.602 93.9744 76.316C93.9744 76.0593 93.9304 75.8283 93.8424 75.623C93.7544 75.4103 93.6334 75.2343 93.4794 75.095C93.3327 74.9557 93.1457 74.8457 92.9184 74.765C92.691 74.6843 92.4307 74.644 92.1374 74.644C91.9247 74.644 91.7084 74.6697 91.4884 74.721C91.2757 74.765 91.052 74.8273 90.8174 74.908L90.1684 74.721L90.8284 70.904H94.6894V71.828H91.5324L91.1694 73.94ZM101.88 74.985C101.88 75.7037 101.803 76.3233 101.649 76.844C101.495 77.3647 101.286 77.7973 101.022 78.142C100.758 78.4867 100.446 78.7433 100.087 78.912C99.7278 79.0733 99.3391 79.154 98.9211 79.154C98.5031 79.154 98.1144 79.0733 97.7551 78.912C97.3958 78.7433 97.0804 78.4867 96.8091 78.142C96.5451 77.7973 96.3361 77.3647 96.1821 76.844C96.0354 76.3233 95.9621 75.7037 95.9621 74.985C95.9621 74.2663 96.0354 73.6467 96.1821 73.126C96.3361 72.598 96.5451 72.1617 96.8091 71.817C97.0804 71.4723 97.3958 71.2193 97.7551 71.058C98.1144 70.8893 98.5031 70.805 98.9211 70.805C99.3391 70.805 99.7278 70.8893 100.087 71.058C100.446 71.2193 100.758 71.4723 101.022 71.817C101.286 72.1617 101.495 72.598 101.649 73.126C101.803 73.6467 101.88 74.2663 101.88 74.985ZM100.868 74.985C100.868 74.3543 100.813 73.8263 100.703 73.401C100.6 72.9683 100.457 72.6237 100.274 72.367C100.098 72.103 99.8928 71.916 99.6581 71.806C99.4234 71.6887 99.1778 71.63 98.9211 71.63C98.6644 71.63 98.4188 71.6887 98.1841 71.806C97.9494 71.916 97.7441 72.103 97.5681 72.367C97.3921 72.6237 97.2491 72.9683 97.1391 73.401C97.0364 73.8263 96.9851 74.3543 96.9851 74.985C96.9851 75.6083 97.0364 76.1363 97.1391 76.569C97.2491 76.9943 97.3921 77.339 97.5681 77.603C97.7441 77.867 97.9494 78.0577 98.1841 78.175C98.4188 78.285 98.6644 78.34 98.9211 78.34C99.1778 78.34 99.4234 78.285 99.6581 78.175C99.8928 78.0577 100.098 77.867 100.274 77.603C100.457 77.339 100.6 76.9943 100.703 76.569C100.813 76.1363 100.868 75.6083 100.868 74.985ZM104.429 75.667C103.871 75.667 103.424 75.4617 103.087 75.051C102.757 74.6403 102.592 74.0243 102.592 73.203C102.592 72.3817 102.757 71.773 103.087 71.377C103.424 70.9737 103.871 70.772 104.429 70.772C104.993 70.772 105.444 70.9737 105.782 71.377C106.119 71.773 106.288 72.3817 106.288 73.203C106.288 74.0243 106.119 74.6403 105.782 75.051C105.444 75.4617 104.993 75.667 104.429 75.667ZM104.429 74.985C104.737 74.985 104.986 74.8457 105.177 74.567C105.367 74.2883 105.463 73.8337 105.463 73.203C105.463 72.5723 105.367 72.125 105.177 71.861C104.986 71.5897 104.737 71.454 104.429 71.454C104.128 71.454 103.882 71.5897 103.692 71.861C103.501 72.1323 103.406 72.5797 103.406 73.203C103.406 73.8337 103.501 74.2883 103.692 74.567C103.882 74.8457 104.128 74.985 104.429 74.985ZM109.027 70.772H109.896L105.452 79.132H104.572L109.027 70.772ZM110.017 79.11C109.459 79.11 109.008 78.9083 108.664 78.505C108.326 78.0943 108.158 77.4783 108.158 76.657C108.158 75.8357 108.326 75.227 108.664 74.831C109.008 74.4277 109.459 74.226 110.017 74.226C110.574 74.226 111.021 74.4277 111.359 74.831C111.696 75.227 111.865 75.8357 111.865 76.657C111.865 77.4783 111.696 78.0943 111.359 78.505C111.021 78.9083 110.574 79.11 110.017 79.11ZM110.017 78.428C110.325 78.428 110.57 78.2923 110.754 78.021C110.944 77.7423 111.04 77.2877 111.04 76.657C111.04 76.0263 110.944 75.5753 110.754 75.304C110.57 75.0327 110.325 74.897 110.017 74.897C109.709 74.897 109.459 75.0327 109.269 75.304C109.078 75.5753 108.983 76.0263 108.983 76.657C108.983 77.2877 109.078 77.7423 109.269 78.021C109.459 78.2923 109.709 78.428 110.017 78.428ZM121.199 71.542H115.38V70.849H117.833V69.848H118.735V70.849H121.199V71.542ZM116.788 73.599C116.788 73.8997 116.92 74.1343 117.184 74.303C117.455 74.4643 117.822 74.545 118.284 74.545C118.746 74.545 119.112 74.4643 119.384 74.303C119.655 74.1343 119.791 73.8997 119.791 73.599C119.791 73.2983 119.655 73.0673 119.384 72.906C119.112 72.7373 118.746 72.653 118.284 72.653C117.822 72.653 117.455 72.7373 117.184 72.906C116.92 73.0673 116.788 73.2983 116.788 73.599ZM120.649 73.599C120.649 74.105 120.432 74.501 120 74.787C119.574 75.073 119.002 75.216 118.284 75.216C117.572 75.216 117 75.073 116.568 74.787C116.142 74.501 115.93 74.105 115.93 73.599C115.93 73.093 116.142 72.697 116.568 72.411C117 72.125 117.572 71.982 118.284 71.982C119.002 71.982 119.574 72.125 120 72.411C120.432 72.697 120.649 73.093 120.649 73.599ZM117.646 79.011H123.366V79.704H116.766V77.405H122.112V76.547H116.733V75.876H123.003V78.065H117.646V79.011ZM124.466 72.29V73.038H123.003V75.37H122.101V69.914H123.003V72.29H124.466ZM133.562 77.163H132.66V69.958H133.562V77.163ZM126.577 73.06C126.577 73.302 126.617 73.5257 126.698 73.731C126.786 73.9363 126.903 74.1123 127.05 74.259C127.204 74.4057 127.383 74.5193 127.589 74.6C127.794 74.6807 128.018 74.721 128.26 74.721C128.502 74.721 128.725 74.6807 128.931 74.6C129.143 74.5193 129.327 74.4057 129.481 74.259C129.635 74.1123 129.752 73.9363 129.833 73.731C129.921 73.5257 129.965 73.302 129.965 73.06C129.965 72.818 129.921 72.598 129.833 72.4C129.752 72.202 129.635 72.0297 129.481 71.883C129.327 71.7363 129.143 71.6227 128.931 71.542C128.725 71.4613 128.502 71.421 128.26 71.421C128.018 71.421 127.794 71.4613 127.589 71.542C127.383 71.6227 127.204 71.7363 127.05 71.883C126.903 72.0297 126.786 72.202 126.698 72.4C126.617 72.598 126.577 72.818 126.577 73.06ZM130.845 73.06C130.845 73.4193 130.779 73.7493 130.647 74.05C130.515 74.3433 130.331 74.6 130.097 74.82C129.869 75.0327 129.598 75.2013 129.283 75.326C128.967 75.4433 128.626 75.502 128.26 75.502C127.893 75.502 127.552 75.4433 127.237 75.326C126.929 75.2013 126.657 75.0327 126.423 74.82C126.195 74.6 126.016 74.3433 125.884 74.05C125.759 73.7493 125.697 73.4193 125.697 73.06C125.697 72.708 125.759 72.3853 125.884 72.092C126.016 71.7913 126.195 71.5347 126.423 71.322C126.657 71.102 126.929 70.9333 127.237 70.816C127.552 70.6987 127.893 70.64 128.26 70.64C128.626 70.64 128.967 70.6987 129.283 70.816C129.598 70.9333 129.869 71.102 130.097 71.322C130.331 71.5347 130.515 71.7913 130.647 72.092C130.779 72.3853 130.845 72.708 130.845 73.06ZM133.859 78.857V79.594H127.215V76.426H128.117V78.857H133.859ZM140.436 72.367H135.574V71.641H137.543V70.2H138.434V71.641H140.436V72.367ZM137.994 76.833C138.177 76.833 138.346 76.7963 138.5 76.723C138.654 76.6497 138.786 76.547 138.896 76.415C139.013 76.2757 139.101 76.1143 139.16 75.931C139.226 75.7477 139.259 75.546 139.259 75.326C139.259 74.8787 139.138 74.5157 138.896 74.237C138.661 73.951 138.361 73.808 137.994 73.808C137.62 73.808 137.312 73.951 137.07 74.237C136.835 74.5157 136.718 74.8787 136.718 75.326C136.718 75.766 136.835 76.129 137.07 76.415C137.312 76.6937 137.62 76.833 137.994 76.833ZM141.283 70.167H142.141V79.33H141.283V76.272H139.886C139.739 76.6827 139.497 77.009 139.16 77.251C138.823 77.4857 138.434 77.603 137.994 77.603C137.693 77.603 137.415 77.548 137.158 77.438C136.909 77.328 136.692 77.174 136.509 76.976C136.326 76.7707 136.183 76.5287 136.08 76.25C135.977 75.9713 135.926 75.6633 135.926 75.326C135.926 74.9887 135.977 74.6807 136.08 74.402C136.183 74.116 136.326 73.874 136.509 73.676C136.692 73.4707 136.909 73.313 137.158 73.203C137.415 73.093 137.693 73.038 137.994 73.038C138.287 73.038 138.559 73.093 138.808 73.203C139.065 73.313 139.285 73.4707 139.468 73.676C139.651 73.874 139.794 74.116 139.897 74.402C140 74.6807 140.051 74.9887 140.051 75.326C140.051 75.3627 140.051 75.3993 140.051 75.436C140.051 75.4727 140.047 75.5093 140.04 75.546H141.283V74.017H139.919V73.291H141.283V70.167ZM143.967 69.947V79.814H143.109V69.947H143.967ZM150.412 75.139C150.126 75.1977 149.847 75.2453 149.576 75.282C149.312 75.3187 149.037 75.348 148.751 75.37C148.465 75.3847 148.161 75.3957 147.838 75.403C147.515 75.4103 147.156 75.414 146.76 75.414H146.133V70.673H149.939V71.399H147.002V72.642H149.829V73.335H147.002V74.677C147.354 74.677 147.677 74.6733 147.97 74.666C148.263 74.6587 148.542 74.644 148.806 74.622C149.07 74.6 149.323 74.5743 149.565 74.545C149.814 74.5083 150.067 74.4643 150.324 74.413L150.412 75.139ZM147.398 76.448H154.031V79.814H153.129V77.174H147.398V76.448ZM154.031 69.958V75.931H153.162V73.258H151.842V75.865H150.984V70.134H151.842V72.521H153.162V69.958H154.031ZM158.998 71.905L158.965 70.761H159.988L159.955 71.905L159.823 76.569H159.13L158.998 71.905ZM159.471 79.143C159.273 79.143 159.101 79.0733 158.954 78.934C158.815 78.7947 158.745 78.6113 158.745 78.384C158.745 78.1567 158.815 77.9697 158.954 77.823C159.101 77.6763 159.273 77.603 159.471 77.603C159.677 77.603 159.849 77.6763 159.988 77.823C160.128 77.9697 160.197 78.1567 160.197 78.384C160.197 78.6113 160.128 78.7947 159.988 78.934C159.849 79.0733 159.677 79.143 159.471 79.143ZM24.844 87.249H21.291V82.871H24.723V83.597H22.193V86.512H24.844V87.249ZM20.873 86.974C20.3303 87.0987 19.8243 87.1757 19.355 87.205C18.8857 87.2343 18.4017 87.249 17.903 87.249H17.364V82.882H20.675V83.619H18.255V86.501C18.673 86.4937 19.0873 86.4753 19.498 86.446C19.9087 86.4093 20.3377 86.3397 20.785 86.237L20.873 86.974ZM25.537 89.812V90.549H16.583V89.812H20.587V87.733H21.489V89.812H25.537ZM30.4821 88.602C30.9221 88.602 31.3328 88.5983 31.7141 88.591C32.0954 88.5763 32.4658 88.558 32.8251 88.536C33.1844 88.5067 33.5328 88.4737 33.8701 88.437C34.2148 88.393 34.5668 88.338 34.9261 88.272L35.0251 89.02C34.6511 89.0933 34.2844 89.152 33.9251 89.196C33.5658 89.24 33.1991 89.2767 32.8251 89.306C32.4511 89.328 32.0624 89.3463 31.6591 89.361C31.2558 89.3683 30.8231 89.372 30.3611 89.372H29.5801V82.893H34.1671V83.641H30.4821V88.602ZM38.3801 86.589H36.7521V91.836H35.8501V81.947H36.7521V85.841H38.3801V86.589ZM46.1892 82.981H40.4032V82.277H47.0802V84.73H41.3162V85.808H47.2892V86.512H40.4252V84.059H46.1892V82.981ZM41.3492 90.857H47.2892V91.594H40.4472V88.91H41.3492V90.857ZM48.2242 87.414V88.151H39.2702V87.414H48.2242ZM56.7113 84.367H51.8493V83.641H53.8183V82.2H54.7093V83.641H56.7113V84.367ZM54.2693 88.833C54.4527 88.833 54.6213 88.7963 54.7753 88.723C54.9293 88.6497 55.0613 88.547 55.1713 88.415C55.2887 88.2757 55.3767 88.1143 55.4353 87.931C55.5013 87.7477 55.5343 87.546 55.5343 87.326C55.5343 86.8787 55.4133 86.5157 55.1713 86.237C54.9367 85.951 54.636 85.808 54.2693 85.808C53.8953 85.808 53.5873 85.951 53.3453 86.237C53.1107 86.5157 52.9933 86.8787 52.9933 87.326C52.9933 87.766 53.1107 88.129 53.3453 88.415C53.5873 88.6937 53.8953 88.833 54.2693 88.833ZM57.5583 82.167H58.4163V91.33H57.5583V88.272H56.1613C56.0147 88.6827 55.7727 89.009 55.4353 89.251C55.098 89.4857 54.7093 89.603 54.2693 89.603C53.9687 89.603 53.69 89.548 53.4333 89.438C53.184 89.328 52.9677 89.174 52.7843 88.976C52.601 88.7707 52.458 88.5287 52.3553 88.25C52.2527 87.9713 52.2013 87.6633 52.2013 87.326C52.2013 86.9887 52.2527 86.6807 52.3553 86.402C52.458 86.116 52.601 85.874 52.7843 85.676C52.9677 85.4707 53.184 85.313 53.4333 85.203C53.69 85.093 53.9687 85.038 54.2693 85.038C54.5627 85.038 54.834 85.093 55.0833 85.203C55.34 85.313 55.56 85.4707 55.7433 85.676C55.9267 85.874 56.0697 86.116 56.1723 86.402C56.275 86.6807 56.3263 86.9887 56.3263 87.326C56.3263 87.3627 56.3263 87.3993 56.3263 87.436C56.3263 87.4727 56.3227 87.5093 56.3153 87.546H57.5583V86.017H56.1943V85.291H57.5583V82.167ZM60.2423 81.947V91.814H59.3843V81.947H60.2423ZM66.6875 87.139C66.4015 87.1977 66.1228 87.2453 65.8515 87.282C65.5875 87.3187 65.3125 87.348 65.0265 87.37C64.7405 87.3847 64.4362 87.3957 64.1135 87.403C63.7908 87.4103 63.4315 87.414 63.0355 87.414H62.4085V82.673H66.2145V83.399H63.2775V84.642H66.1045V85.335H63.2775V86.677C63.6295 86.677 63.9522 86.6733 64.2455 86.666C64.5388 86.6587 64.8175 86.644 65.0815 86.622C65.3455 86.6 65.5985 86.5743 65.8405 86.545C66.0898 86.5083 66.3428 86.4643 66.5995 86.413L66.6875 87.139ZM63.6735 88.448H70.3065V91.814H69.4045V89.174H63.6735V88.448ZM70.3065 81.958V87.931H69.4375V85.258H68.1175V87.865H67.2595V82.134H68.1175V84.521H69.4375V81.958H70.3065ZM77.8806 84.961C77.8806 85.357 77.9466 85.7567 78.0786 86.16C78.2106 86.556 78.3903 86.9337 78.6176 87.293C78.8523 87.6523 79.1236 87.9787 79.4316 88.272C79.7396 88.558 80.0733 88.7853 80.4326 88.954L79.9156 89.68C79.6369 89.5407 79.3729 89.3683 79.1236 89.163C78.8743 88.9503 78.6433 88.7157 78.4306 88.459C78.2179 88.195 78.0273 87.9127 77.8586 87.612C77.6899 87.304 77.5506 86.985 77.4406 86.655C77.3306 87.0143 77.1876 87.3627 77.0116 87.7C76.8429 88.03 76.6486 88.338 76.4286 88.624C76.2086 88.9027 75.9703 89.1557 75.7136 89.383C75.4643 89.603 75.2003 89.7827 74.9216 89.922L74.3936 89.207C74.7456 89.031 75.0793 88.789 75.3946 88.481C75.7099 88.173 75.9849 87.8283 76.2196 87.447C76.4543 87.0657 76.6413 86.6623 76.7806 86.237C76.9199 85.8043 76.9896 85.379 76.9896 84.961V83.707H74.7346V82.959H80.0696V83.707H77.8806V84.961ZM83.7766 86.688H82.1486V91.814H81.2466V81.958H82.1486V85.929H83.7766V86.688ZM87.6037 84.73C87.6037 85.126 87.6477 85.522 87.7357 85.918C87.8311 86.314 87.9631 86.6917 88.1317 87.051C88.3077 87.4103 88.5204 87.7403 88.7697 88.041C89.0264 88.3343 89.3161 88.58 89.6387 88.778L89.1217 89.482C88.6524 89.196 88.2527 88.8073 87.9227 88.316C87.6001 87.8173 87.3507 87.2673 87.1747 86.666C86.9987 87.326 86.7347 87.92 86.3827 88.448C86.0381 88.976 85.6201 89.394 85.1287 89.702L84.5677 89.02C84.9051 88.822 85.2057 88.569 85.4697 88.261C85.7411 87.953 85.9684 87.612 86.1517 87.238C86.3424 86.8567 86.4854 86.457 86.5807 86.039C86.6834 85.6137 86.7347 85.1883 86.7347 84.763V82.882H87.6037V84.73ZM90.1997 82.167H91.0467V91.33H90.1997V86.237H88.5717V85.489H90.1997V82.167ZM93.0597 81.947V91.814H92.2017V81.947H93.0597ZM97.9869 88.866C98.2142 88.866 98.4232 88.8293 98.6139 88.756C98.8119 88.6753 98.9805 88.569 99.1199 88.437C99.2592 88.2977 99.3692 88.1363 99.4499 87.953C99.5305 87.7623 99.5709 87.557 99.5709 87.337C99.5709 87.117 99.5305 86.9153 99.4499 86.732C99.3692 86.5413 99.2592 86.38 99.1199 86.248C98.9805 86.116 98.8119 86.0133 98.6139 85.94C98.4232 85.8593 98.2142 85.819 97.9869 85.819C97.7595 85.819 97.5469 85.8593 97.3489 85.94C97.1582 86.0133 96.9932 86.116 96.8539 86.248C96.7145 86.38 96.6045 86.5413 96.5239 86.732C96.4505 86.9153 96.4139 87.117 96.4139 87.337C96.4139 87.557 96.4505 87.7623 96.5239 87.953C96.6045 88.1363 96.7145 88.2977 96.8539 88.437C96.9932 88.569 97.1582 88.6753 97.3489 88.756C97.5469 88.8293 97.7595 88.866 97.9869 88.866ZM97.9869 85.071C98.3462 85.071 98.6725 85.126 98.9659 85.236C99.2665 85.346 99.5232 85.5037 99.7359 85.709C99.9559 85.907 100.125 86.1453 100.242 86.424C100.367 86.7027 100.429 87.007 100.429 87.337C100.429 87.6743 100.367 87.9823 100.242 88.261C100.125 88.5397 99.9559 88.7817 99.7359 88.987C99.5232 89.185 99.2665 89.339 98.9659 89.449C98.6725 89.559 98.3462 89.614 97.9869 89.614C97.6349 89.614 97.3085 89.559 97.0079 89.449C96.7145 89.339 96.4579 89.185 96.2379 88.987C96.0252 88.7817 95.8565 88.5397 95.7319 88.261C95.6145 87.9823 95.5559 87.6743 95.5559 87.337C95.5559 87.007 95.6145 86.7027 95.7319 86.424C95.8565 86.1453 96.0252 85.907 96.2379 85.709C96.4579 85.5037 96.7145 85.346 97.0079 85.236C97.3085 85.126 97.6349 85.071 97.9869 85.071ZM98.4269 83.542H100.935V84.279H95.0169V83.542H97.5249V82.057H98.4269V83.542ZM102.871 81.947V91.814H101.969V81.947H102.871ZM108.443 84.488C108.443 84.708 108.483 84.9097 108.564 85.093C108.652 85.269 108.769 85.423 108.916 85.555C109.063 85.6797 109.235 85.7787 109.433 85.852C109.638 85.9253 109.862 85.962 110.104 85.962C110.346 85.962 110.57 85.9253 110.775 85.852C110.98 85.7787 111.156 85.6797 111.303 85.555C111.45 85.423 111.563 85.269 111.644 85.093C111.732 84.9097 111.776 84.708 111.776 84.488C111.776 84.2753 111.732 84.081 111.644 83.905C111.563 83.7217 111.45 83.5677 111.303 83.443C111.156 83.311 110.98 83.2083 110.775 83.135C110.57 83.0617 110.346 83.025 110.104 83.025C109.862 83.025 109.638 83.0617 109.433 83.135C109.235 83.2083 109.063 83.311 108.916 83.443C108.769 83.5677 108.652 83.7217 108.564 83.905C108.483 84.081 108.443 84.2753 108.443 84.488ZM112.656 84.488C112.656 84.818 112.59 85.1187 112.458 85.39C112.333 85.6613 112.157 85.896 111.93 86.094C111.71 86.2847 111.442 86.435 111.127 86.545C110.819 86.6477 110.478 86.699 110.104 86.699C109.737 86.699 109.396 86.6477 109.081 86.545C108.773 86.435 108.505 86.2847 108.278 86.094C108.051 85.896 107.875 85.6613 107.75 85.39C107.625 85.1187 107.563 84.818 107.563 84.488C107.563 84.1653 107.625 83.872 107.75 83.608C107.875 83.3367 108.051 83.1057 108.278 82.915C108.505 82.717 108.773 82.5667 109.081 82.464C109.396 82.354 109.737 82.299 110.104 82.299C110.478 82.299 110.819 82.354 111.127 82.464C111.442 82.5667 111.71 82.717 111.93 82.915C112.157 83.1057 112.333 83.3367 112.458 83.608C112.59 83.872 112.656 84.1653 112.656 84.488ZM109.675 90.956H115.395V91.682H108.795V89.185H114.141V88.151H108.762V87.436H115.032V89.856H109.675V90.956ZM116.495 84.07V84.818H115.032V86.974H114.13V81.947H115.032V84.07H116.495ZM120.124 88.789C120.359 88.789 120.575 88.7267 120.773 88.602C120.971 88.4773 121.14 88.3013 121.279 88.074C121.426 87.8393 121.539 87.5607 121.62 87.238C121.701 86.9153 121.741 86.5523 121.741 86.149C121.741 85.753 121.701 85.3937 121.62 85.071C121.539 84.741 121.426 84.4623 121.279 84.235C121.14 84.0077 120.971 83.8317 120.773 83.707C120.575 83.5823 120.359 83.52 120.124 83.52C119.882 83.52 119.662 83.5823 119.464 83.707C119.266 83.8317 119.094 84.0077 118.947 84.235C118.808 84.4623 118.698 84.741 118.617 85.071C118.536 85.3937 118.496 85.753 118.496 86.149C118.496 86.5523 118.536 86.9153 118.617 87.238C118.698 87.5607 118.808 87.8393 118.947 88.074C119.094 88.3013 119.266 88.4773 119.464 88.602C119.662 88.7267 119.882 88.789 120.124 88.789ZM120.124 82.706C120.483 82.706 120.813 82.7867 121.114 82.948C121.422 83.1093 121.686 83.3403 121.906 83.641C122.126 83.9417 122.295 84.3047 122.412 84.73C122.537 85.148 122.599 85.621 122.599 86.149C122.599 86.677 122.537 87.1537 122.412 87.579C122.295 87.997 122.126 88.3563 121.906 88.657C121.686 88.9577 121.422 89.1887 121.114 89.35C120.813 89.5113 120.483 89.592 120.124 89.592C119.757 89.592 119.42 89.5113 119.112 89.35C118.811 89.1887 118.551 88.9577 118.331 88.657C118.111 88.3563 117.939 87.997 117.814 87.579C117.697 87.1537 117.638 86.677 117.638 86.149C117.638 85.621 117.697 85.148 117.814 84.73C117.939 84.3047 118.111 83.9417 118.331 83.641C118.551 83.3403 118.811 83.1093 119.112 82.948C119.42 82.7867 119.757 82.706 120.124 82.706ZM126.713 86.644H125.085V91.814H124.183V81.958H125.085V85.885H126.713V86.644ZM129.561 86.963H134.599V85.148H129.561V86.963ZM136.557 89.812V90.549H127.614V89.812H131.618V87.689H128.67V82.651H129.561V84.411H134.599V82.651H135.479V87.689H132.531V89.812H136.557ZM142.936 83.014C142.936 83.7253 142.848 84.4147 142.672 85.082C142.504 85.742 142.236 86.369 141.869 86.963C141.503 87.557 141.03 88.107 140.45 88.613C139.871 89.119 139.171 89.5737 138.349 89.977L137.865 89.24C139.193 88.6093 140.194 87.8283 140.868 86.897C141.543 85.9657 141.928 84.9133 142.023 83.74H138.316V83.014H142.936ZM145.829 81.947V91.814H144.927V81.947H145.829ZM148.368 91.837V83.377L155.694 87.607L148.368 91.837ZM17.155 103.694H19.344V104.255H17.914V113.693H19.344V114.265H17.155V103.694ZM28.4178 108.435C28.0365 108.369 27.6588 108.27 27.2848 108.138C26.9181 107.999 26.5735 107.83 26.2508 107.632C25.9355 107.434 25.6495 107.21 25.3928 106.961C25.1361 106.704 24.9271 106.426 24.7658 106.125C24.6118 106.426 24.4065 106.704 24.1498 106.961C23.9005 107.21 23.6145 107.434 23.2918 107.632C22.9691 107.83 22.6208 107.999 22.2468 108.138C21.8801 108.27 21.5061 108.369 21.1248 108.435L20.7618 107.709C21.2091 107.643 21.6455 107.526 22.0708 107.357C22.4961 107.181 22.8738 106.968 23.2038 106.719C23.5338 106.462 23.7978 106.176 23.9958 105.861C24.1938 105.538 24.2928 105.201 24.2928 104.849V104.299H25.2388V104.849C25.2388 105.194 25.3378 105.524 25.5358 105.839C25.7411 106.154 26.0088 106.44 26.3388 106.697C26.6761 106.954 27.0575 107.17 27.4828 107.346C27.9081 107.522 28.3445 107.643 28.7918 107.709L28.4178 108.435ZM29.2318 110.25H25.1948V113.825H24.2928V110.25H20.3108V109.502H29.2208L29.2318 110.25ZM38.5149 111.185H37.6129V103.947H38.5149V111.185ZM35.8859 109.579C35.3213 109.366 34.8299 109.047 34.4119 108.622C33.9939 108.197 33.6749 107.702 33.4549 107.137C33.2423 107.738 32.9233 108.27 32.4979 108.732C32.0726 109.187 31.5703 109.535 30.9909 109.777L30.5179 109.04C30.8919 108.901 31.2293 108.71 31.5299 108.468C31.8379 108.219 32.0983 107.94 32.3109 107.632C32.5309 107.324 32.6996 106.99 32.8169 106.631C32.9343 106.264 32.9929 105.887 32.9929 105.498V104.497H33.8949V105.498C33.8949 105.872 33.9536 106.231 34.0709 106.576C34.1956 106.921 34.3643 107.24 34.5769 107.533C34.7969 107.826 35.0573 108.09 35.3579 108.325C35.6586 108.552 35.9923 108.732 36.3589 108.864L35.8859 109.579ZM38.8119 112.857V113.594H32.1679V110.514H33.0699V112.857H38.8119ZM45.4661 105.014C45.4661 105.718 45.3891 106.4 45.2351 107.06C45.0811 107.713 44.8281 108.332 44.4761 108.919C44.1241 109.506 43.6657 110.056 43.1011 110.569C42.5364 111.075 41.8434 111.53 41.0221 111.933L40.5271 111.229C41.1871 110.906 41.7591 110.547 42.2431 110.151C42.7344 109.755 43.1451 109.326 43.4751 108.864C43.8051 108.402 44.0581 107.911 44.2341 107.39C44.4101 106.869 44.5201 106.319 44.5641 105.74H40.9671V105.014H45.4661ZM48.6561 103.958V113.814H47.7541V108.644H45.4441V107.907H47.7541V103.958H48.6561ZM57.5652 106.422H52.6702V107.874H57.5652V106.422ZM58.4672 108.611H51.7792V104.343H52.6702V105.696H57.5652V104.343H58.4672V108.611ZM59.6002 110.525H55.5522V113.825H54.6502V110.525H50.6462V109.799H59.6002V110.525ZM61.7224 107.94C61.5244 107.94 61.352 107.87 61.2054 107.731C61.066 107.584 60.9964 107.401 60.9964 107.181C60.9964 106.946 61.066 106.759 61.2054 106.62C61.352 106.473 61.5244 106.4 61.7224 106.4C61.9204 106.4 62.089 106.473 62.2284 106.62C62.375 106.759 62.4484 106.946 62.4484 107.181C62.4484 107.401 62.375 107.584 62.2284 107.731C62.089 107.87 61.9204 107.94 61.7224 107.94ZM61.7224 112.373C61.5244 112.373 61.352 112.303 61.2054 112.164C61.066 112.025 60.9964 111.841 60.9964 111.614C60.9964 111.387 61.066 111.2 61.2054 111.053C61.352 110.906 61.5244 110.833 61.7224 110.833C61.9204 110.833 62.089 110.906 62.2284 111.053C62.375 111.2 62.4484 111.387 62.4484 111.614C62.4484 111.841 62.375 112.025 62.2284 112.164C62.089 112.303 61.9204 112.373 61.7224 112.373ZM67.5738 110.58H70.3348V105.663H67.5738V110.58ZM66.6938 104.937H71.2148V111.306H66.6938V104.937ZM75.5158 108.644H73.8878V113.814H72.9858V103.958H73.8878V107.885H75.5158V108.644ZM84.491 103.947V113.836H83.589V103.947H84.491ZM79.288 104.706C79.6547 104.706 79.992 104.787 80.3 104.948C80.608 105.109 80.872 105.34 81.092 105.641C81.312 105.942 81.4843 106.305 81.609 106.73C81.7337 107.148 81.796 107.621 81.796 108.149C81.796 108.677 81.7337 109.154 81.609 109.579C81.4843 109.997 81.312 110.356 81.092 110.657C80.872 110.958 80.608 111.189 80.3 111.35C79.992 111.511 79.6547 111.592 79.288 111.592C78.9213 111.592 78.584 111.511 78.276 111.35C77.968 111.189 77.704 110.958 77.484 110.657C77.264 110.356 77.0917 109.997 76.967 109.579C76.8423 109.154 76.78 108.677 76.78 108.149C76.78 107.621 76.8423 107.148 76.967 106.73C77.0917 106.305 77.264 105.942 77.484 105.641C77.704 105.34 77.968 105.109 78.276 104.948C78.584 104.787 78.9213 104.706 79.288 104.706ZM79.288 105.52C79.046 105.52 78.8223 105.582 78.617 105.707C78.419 105.832 78.2467 106.008 78.1 106.235C77.9533 106.462 77.8397 106.741 77.759 107.071C77.6783 107.394 77.638 107.753 77.638 108.149C77.638 108.552 77.6783 108.915 77.759 109.238C77.8397 109.561 77.9533 109.839 78.1 110.074C78.2467 110.301 78.419 110.477 78.617 110.602C78.8223 110.727 79.046 110.789 79.288 110.789C79.53 110.789 79.75 110.727 79.948 110.602C80.146 110.477 80.3183 110.301 80.465 110.074C80.6117 109.839 80.7253 109.561 80.806 109.238C80.8867 108.915 80.927 108.552 80.927 108.149C80.927 107.753 80.8867 107.394 80.806 107.071C80.7253 106.741 80.6117 106.462 80.465 106.235C80.3183 106.008 80.146 105.832 79.948 105.707C79.75 105.582 79.53 105.52 79.288 105.52ZM88.2631 110.602C88.4685 110.595 88.6701 110.591 88.8681 110.591C89.0735 110.584 89.2825 110.573 89.4951 110.558V105.927H88.2631V110.602ZM90.3201 110.503C90.4961 110.488 90.6721 110.474 90.8481 110.459C91.0241 110.437 91.1928 110.415 91.3541 110.393L91.4091 111.053C91.0278 111.126 90.6171 111.185 90.1771 111.229C89.7445 111.273 89.3081 111.306 88.8681 111.328C88.4355 111.35 88.0175 111.365 87.6141 111.372C87.2108 111.379 86.8478 111.383 86.5251 111.383L86.4371 110.635C86.5838 110.635 86.7378 110.635 86.8991 110.635C87.0678 110.635 87.2475 110.631 87.4381 110.624V105.927H86.6241V105.201H91.1341V105.927H90.3201V110.503ZM92.1901 104.189H93.0371V113.297H92.1901V108.501H90.8481V107.709H92.1901V104.189ZM94.9621 103.958V113.814H94.0931V103.958H94.9621ZM104.729 103.947V113.836H103.827V103.947H104.729ZM99.5263 104.706C99.8929 104.706 100.23 104.787 100.538 104.948C100.846 105.109 101.11 105.34 101.33 105.641C101.55 105.942 101.723 106.305 101.847 106.73C101.972 107.148 102.034 107.621 102.034 108.149C102.034 108.677 101.972 109.154 101.847 109.579C101.723 109.997 101.55 110.356 101.33 110.657C101.11 110.958 100.846 111.189 100.538 111.35C100.23 111.511 99.8929 111.592 99.5263 111.592C99.1596 111.592 98.8223 111.511 98.5143 111.35C98.2063 111.189 97.9423 110.958 97.7223 110.657C97.5023 110.356 97.3299 109.997 97.2053 109.579C97.0806 109.154 97.0183 108.677 97.0183 108.149C97.0183 107.621 97.0806 107.148 97.2053 106.73C97.3299 106.305 97.5023 105.942 97.7223 105.641C97.9423 105.34 98.2063 105.109 98.5143 104.948C98.8223 104.787 99.1596 104.706 99.5263 104.706ZM99.5263 105.52C99.2843 105.52 99.0606 105.582 98.8553 105.707C98.6573 105.832 98.4849 106.008 98.3383 106.235C98.1916 106.462 98.0779 106.741 97.9973 107.071C97.9166 107.394 97.8763 107.753 97.8763 108.149C97.8763 108.552 97.9166 108.915 97.9973 109.238C98.0779 109.561 98.1916 109.839 98.3383 110.074C98.4849 110.301 98.6573 110.477 98.8553 110.602C99.0606 110.727 99.2843 110.789 99.5263 110.789C99.7683 110.789 99.9883 110.727 100.186 110.602C100.384 110.477 100.557 110.301 100.703 110.074C100.85 109.839 100.964 109.561 101.044 109.238C101.125 108.915 101.165 108.552 101.165 108.149C101.165 107.753 101.125 107.394 101.044 107.071C100.964 106.741 100.85 106.462 100.703 106.235C100.557 106.008 100.384 105.832 100.186 105.707C99.9883 105.582 99.7683 105.52 99.5263 105.52ZM110.294 106.961C110.294 107.379 110.364 107.793 110.503 108.204C110.643 108.615 110.83 109 111.064 109.359C111.306 109.711 111.585 110.026 111.9 110.305C112.223 110.584 112.568 110.8 112.934 110.954L112.428 111.68C112.142 111.548 111.867 111.379 111.603 111.174C111.347 110.969 111.105 110.738 110.877 110.481C110.657 110.224 110.459 109.942 110.283 109.634C110.107 109.326 109.961 109.003 109.843 108.666C109.733 109.025 109.59 109.37 109.414 109.7C109.238 110.03 109.04 110.338 108.82 110.624C108.6 110.903 108.362 111.156 108.105 111.383C107.849 111.603 107.581 111.783 107.302 111.922L106.774 111.196C107.126 111.027 107.46 110.793 107.775 110.492C108.098 110.191 108.377 109.85 108.611 109.469C108.853 109.088 109.044 108.681 109.183 108.248C109.323 107.815 109.392 107.386 109.392 106.961V105.707H107.104V104.959H112.615V105.707H110.294V106.961ZM114.848 103.958V113.814H113.946V103.958H114.848ZM117.004 112.417V111.405L120.568 109.073L117.004 106.598V105.597L121.437 108.688V109.425L117.004 112.417ZM129.653 106.477H127.508V105.74H129.653V103.958H130.566V109.051H129.653V106.477ZM127.739 108.842C127.189 108.651 126.708 108.369 126.298 107.995C125.887 107.621 125.575 107.181 125.363 106.675C125.15 107.232 124.831 107.72 124.406 108.138C123.98 108.549 123.478 108.86 122.899 109.073L122.426 108.358C122.8 108.233 123.137 108.065 123.438 107.852C123.738 107.639 123.995 107.394 124.208 107.115C124.428 106.836 124.596 106.536 124.714 106.213C124.831 105.883 124.89 105.538 124.89 105.179V104.266H125.781V105.179C125.781 105.502 125.839 105.817 125.957 106.125C126.074 106.426 126.239 106.708 126.452 106.972C126.672 107.229 126.928 107.46 127.222 107.665C127.522 107.863 127.849 108.021 128.201 108.138L127.739 108.842ZM130.94 112.967V113.682H124.23V111.229H129.675V110.261H124.208V109.546H130.566V111.911H125.121V112.967H130.94ZM139.772 106.51V103.958H140.685V109.832H139.772V107.247H137.825V106.51H139.772ZM137.924 109.458C137.374 109.26 136.893 108.967 136.483 108.578C136.072 108.189 135.76 107.742 135.548 107.236C135.335 107.808 135.012 108.314 134.58 108.754C134.147 109.194 133.641 109.524 133.062 109.744L132.589 109.029C132.955 108.897 133.289 108.717 133.59 108.49C133.898 108.263 134.162 108.006 134.382 107.72C134.602 107.427 134.77 107.111 134.888 106.774C135.012 106.437 135.075 106.092 135.075 105.74V105.399H132.875V104.673H138.144V105.399H135.977V105.74C135.977 106.055 136.035 106.367 136.153 106.675C136.27 106.983 136.431 107.269 136.637 107.533C136.849 107.797 137.102 108.035 137.396 108.248C137.689 108.461 138.015 108.629 138.375 108.754L137.924 109.458ZM137.429 113.11C138.177 113.11 138.76 113.011 139.178 112.813C139.603 112.615 139.816 112.336 139.816 111.977C139.816 111.618 139.603 111.339 139.178 111.141C138.76 110.936 138.177 110.833 137.429 110.833C136.681 110.833 136.094 110.936 135.669 111.141C135.251 111.339 135.042 111.618 135.042 111.977C135.042 112.336 135.251 112.615 135.669 112.813C136.094 113.011 136.681 113.11 137.429 113.11ZM137.429 110.14C137.935 110.14 138.389 110.18 138.793 110.261C139.196 110.342 139.541 110.463 139.827 110.624C140.113 110.778 140.329 110.969 140.476 111.196C140.63 111.423 140.707 111.684 140.707 111.977C140.707 112.27 140.63 112.531 140.476 112.758C140.329 112.985 140.113 113.176 139.827 113.33C139.541 113.491 139.196 113.612 138.793 113.693C138.389 113.774 137.935 113.814 137.429 113.814C136.923 113.814 136.464 113.774 136.054 113.693C135.65 113.612 135.306 113.491 135.02 113.33C134.741 113.176 134.525 112.985 134.371 112.758C134.217 112.531 134.14 112.27 134.14 111.977C134.14 111.684 134.217 111.423 134.371 111.196C134.525 110.969 134.741 110.778 135.02 110.624C135.306 110.463 135.65 110.342 136.054 110.261C136.464 110.18 136.923 110.14 137.429 110.14ZM142.785 112.417V111.405L146.349 109.073L142.785 106.598V105.597L147.218 108.688V109.425L142.785 112.417ZM153.3 104.97C153.3 105.689 153.23 106.385 153.091 107.06C152.951 107.735 152.709 108.38 152.365 108.996C152.027 109.612 151.569 110.191 150.99 110.734C150.41 111.269 149.681 111.757 148.801 112.197L148.306 111.504C149.222 111.049 149.959 110.547 150.517 109.997C151.081 109.44 151.518 108.827 151.826 108.16L148.504 108.479L148.35 107.687L152.101 107.434C152.269 106.884 152.368 106.308 152.398 105.707H148.845V104.97H153.3ZM157.392 108.699H155.808V113.814H154.906V103.947H155.808V107.951H157.392V108.699ZM166.246 109.414H159.47V104.849H166.147V105.597H160.361V108.677H166.246V109.414ZM167.28 111.735V112.483H158.326V111.735H167.28ZM173.307 106.367H168.445V105.641H170.414V104.2H171.305V105.641H173.307V106.367ZM170.865 110.833C171.048 110.833 171.217 110.796 171.371 110.723C171.525 110.65 171.657 110.547 171.767 110.415C171.884 110.276 171.972 110.114 172.031 109.931C172.097 109.748 172.13 109.546 172.13 109.326C172.13 108.879 172.009 108.516 171.767 108.237C171.532 107.951 171.232 107.808 170.865 107.808C170.491 107.808 170.183 107.951 169.941 108.237C169.706 108.516 169.589 108.879 169.589 109.326C169.589 109.766 169.706 110.129 169.941 110.415C170.183 110.694 170.491 110.833 170.865 110.833ZM174.154 104.167H175.012V113.33H174.154V110.272H172.757C172.61 110.683 172.368 111.009 172.031 111.251C171.694 111.486 171.305 111.603 170.865 111.603C170.564 111.603 170.286 111.548 170.029 111.438C169.78 111.328 169.563 111.174 169.38 110.976C169.197 110.771 169.054 110.529 168.951 110.25C168.848 109.971 168.797 109.663 168.797 109.326C168.797 108.989 168.848 108.681 168.951 108.402C169.054 108.116 169.197 107.874 169.38 107.676C169.563 107.471 169.78 107.313 170.029 107.203C170.286 107.093 170.564 107.038 170.865 107.038C171.158 107.038 171.43 107.093 171.679 107.203C171.936 107.313 172.156 107.471 172.339 107.676C172.522 107.874 172.665 108.116 172.768 108.402C172.871 108.681 172.922 108.989 172.922 109.326C172.922 109.363 172.922 109.399 172.922 109.436C172.922 109.473 172.918 109.509 172.911 109.546H174.154V108.017H172.79V107.291H174.154V104.167ZM176.838 103.947V113.814H175.98V103.947H176.838ZM183.283 109.139C182.997 109.198 182.719 109.245 182.447 109.282C182.183 109.319 181.908 109.348 181.622 109.37C181.336 109.385 181.032 109.396 180.709 109.403C180.387 109.41 180.027 109.414 179.631 109.414H179.004V104.673H182.81V105.399H179.873V106.642H182.7V107.335H179.873V108.677C180.225 108.677 180.548 108.673 180.841 108.666C181.135 108.659 181.413 108.644 181.677 108.622C181.941 108.6 182.194 108.574 182.436 108.545C182.686 108.508 182.939 108.464 183.195 108.413L183.283 109.139ZM180.269 110.448H186.902V113.814H186V111.174H180.269V110.448ZM186.902 103.958V109.931H186.033V107.258H184.713V109.865H183.855V104.134H184.713V106.521H186.033V103.958H186.902ZM188.804 112.417V111.405L192.368 109.073L188.804 106.598V105.597L193.237 108.688V109.425L188.804 112.417ZM199.924 105.234H197.471V107.918H199.924V105.234ZM196.569 105.234H195.084V104.497H202.311V105.234H200.826V107.918H202.278V108.655H195.117V107.918H196.569V105.234ZM203.169 110.536H199.154V113.814H198.241V110.536H194.226V109.799H203.169V110.536ZM210.065 108.127C209.486 107.973 208.984 107.742 208.558 107.434C208.133 107.119 207.807 106.737 207.579 106.29C207.367 106.781 207.04 107.207 206.6 107.566C206.16 107.925 205.643 108.189 205.049 108.358L204.609 107.654C204.983 107.551 205.324 107.412 205.632 107.236C205.94 107.06 206.201 106.855 206.413 106.62C206.633 106.385 206.802 106.129 206.919 105.85C207.044 105.571 207.106 105.282 207.106 104.981V104.365H208.03V104.981C208.03 105.267 208.089 105.538 208.206 105.795C208.324 106.052 208.489 106.286 208.701 106.499C208.914 106.704 209.171 106.888 209.471 107.049C209.772 107.21 210.109 107.335 210.483 107.423L210.065 108.127ZM210.912 109.568C210.45 109.649 209.981 109.718 209.504 109.777C209.028 109.828 208.555 109.869 208.085 109.898V113.506H207.183V109.942C206.692 109.964 206.215 109.979 205.753 109.986C205.299 109.993 204.866 109.997 204.455 109.997L204.323 109.238C204.785 109.238 205.284 109.238 205.819 109.238C206.355 109.231 206.905 109.216 207.469 109.194C208.034 109.172 208.602 109.139 209.174 109.095C209.746 109.051 210.304 108.989 210.846 108.908L210.912 109.568ZM212.452 103.958V113.825H211.55V103.958H212.452ZM218.003 106.488C218.003 106.708 218.043 106.91 218.124 107.093C218.212 107.269 218.329 107.423 218.476 107.555C218.622 107.68 218.795 107.779 218.993 107.852C219.198 107.925 219.422 107.962 219.664 107.962C219.906 107.962 220.129 107.925 220.335 107.852C220.54 107.779 220.716 107.68 220.863 107.555C221.009 107.423 221.123 107.269 221.204 107.093C221.292 106.91 221.336 106.708 221.336 106.488C221.336 106.275 221.292 106.081 221.204 105.905C221.123 105.722 221.009 105.568 220.863 105.443C220.716 105.311 220.54 105.208 220.335 105.135C220.129 105.062 219.906 105.025 219.664 105.025C219.422 105.025 219.198 105.062 218.993 105.135C218.795 105.208 218.622 105.311 218.476 105.443C218.329 105.568 218.212 105.722 218.124 105.905C218.043 106.081 218.003 106.275 218.003 106.488ZM222.216 106.488C222.216 106.818 222.15 107.119 222.018 107.39C221.893 107.661 221.717 107.896 221.49 108.094C221.27 108.285 221.002 108.435 220.687 108.545C220.379 108.648 220.038 108.699 219.664 108.699C219.297 108.699 218.956 108.648 218.641 108.545C218.333 108.435 218.065 108.285 217.838 108.094C217.61 107.896 217.434 107.661 217.31 107.39C217.185 107.119 217.123 106.818 217.123 106.488C217.123 106.165 217.185 105.872 217.31 105.608C217.434 105.337 217.61 105.106 217.838 104.915C218.065 104.717 218.333 104.567 218.641 104.464C218.956 104.354 219.297 104.299 219.664 104.299C220.038 104.299 220.379 104.354 220.687 104.464C221.002 104.567 221.27 104.717 221.49 104.915C221.717 105.106 221.893 105.337 222.018 105.608C222.15 105.872 222.216 106.165 222.216 106.488ZM219.235 112.956H224.955V113.682H218.355V111.185H223.701V110.151H218.322V109.436H224.592V111.856H219.235V112.956ZM226.055 106.07V106.818H224.592V108.974H223.69V103.947H224.592V106.07H226.055ZM233.149 109.007C232.745 109.073 232.353 109.128 231.972 109.172C231.598 109.209 231.216 109.242 230.828 109.271C230.446 109.293 230.054 109.308 229.651 109.315C229.247 109.322 228.818 109.326 228.364 109.326H227.572V106.532H231.136V105.278H227.539V104.541H232.027V107.225H228.452V108.589C228.892 108.589 229.302 108.585 229.684 108.578C230.072 108.571 230.45 108.556 230.817 108.534C231.191 108.512 231.557 108.483 231.917 108.446C232.283 108.402 232.661 108.347 233.05 108.281L233.149 109.007ZM229.651 112.956H234.271V111.064H229.651V112.956ZM228.771 110.349H235.151V113.682H228.771V110.349ZM235.151 103.958V109.799H234.249V103.958H235.151ZM236.965 113.715H238.395V104.277H236.965V103.716H239.154V114.287H236.965V113.715Z" fill="black"/>
</g>
<defs>
<filter id="filter0_b" x="-10" y="-10" width="379" height="146" filterUnits="userSpaceOnUse" color-interpolation-filters="sRGB">
<feFlood flood-opacity="0" result="BackgroundImageFix"/>
<feGaussianBlur in="BackgroundImage" stdDeviation="5"/>
<feComposite in2="SourceAlpha" operator="in" result="effect1_backgroundBlur"/>
<feBlend mode="normal" in="SourceGraphic" in2="effect1_backgroundBlur" result="shape"/>
</filter>
<clipPath id="clip0">
<rect width="17.5" height="17.5" fill="white" transform="translate(9.31641 9.31653)"/>
</clipPath>
</defs>
</svg>
