<svg width="173" height="173" viewBox="0 0 173 173" fill="none" xmlns="http://www.w3.org/2000/svg">
<g filter="url(#filter0_d)">
<circle cx="86.5" cy="86.5" r="82.5" fill="white"/>
</g>
<g clip-path="url(#clip0)">
<path d="M101.076 114.023H71.9244C59.3418 114.023 49.105 124.26 49.105 136.843V154.935C49.105 156.076 50.0297 157 51.1704 157H121.83C122.97 157 123.895 156.076 123.895 154.935V136.843C123.895 124.26 113.658 114.023 101.076 114.023Z" fill="#468466"/>
<path d="M101.076 114.023H93.5483C106.131 114.023 116.367 124.26 116.367 136.843V154.935C116.367 156.076 115.443 157 114.302 157H121.829C122.97 157 123.895 156.076 123.895 154.935V136.843C123.895 124.26 113.658 114.023 101.076 114.023Z" fill="#346349"/>
<path d="M98.0941 89.7305V115.989L86.5002 138.549L74.9062 115.989V89.7305H98.0941Z" fill="#FA9E3E"/>
<path d="M96.4778 119.134C89.8244 123.356 83.1726 123.357 76.5225 119.134L86.5001 138.549L96.4778 119.134Z" fill="#049B64"/>
<path d="M50.6548 76.8584H64.2506V92.4483H50.6548C46.3499 92.4483 42.8599 88.9583 42.8599 84.6533C42.8599 80.3484 46.3496 76.8584 50.6548 76.8584Z" fill="#FA9E3E"/>
<path d="M122.345 76.8584H108.75V92.4483H122.345C126.65 92.4483 130.14 88.9583 130.14 84.6533C130.14 80.3484 126.65 76.8584 122.345 76.8584Z" fill="#FA9E3E"/>
<path d="M117.375 46.2324H55.6245C54.4838 46.2324 53.5591 47.1569 53.5591 48.2979V79.5255C53.5591 97.6889 68.3363 112.466 86.4999 112.466C104.663 112.466 119.441 97.6889 119.441 79.5255V48.2979C119.441 47.1572 118.516 46.2324 117.375 46.2324Z" fill="#FFB56B"/>
<path d="M117.375 46.2324H110.142C111.154 46.2324 111.974 47.1569 111.974 48.2979V79.5255C111.974 97.0244 99.8118 111.378 84.521 112.405C85.1759 112.444 85.8354 112.466 86.5 112.466C104.663 112.466 119.441 97.6889 119.441 79.5255V48.2979C119.441 47.1572 118.516 46.2324 117.375 46.2324Z" fill="#EF9245"/>
<path d="M101.46 80.1558C100.32 80.1558 99.395 79.2313 99.395 78.0903V77.5396C99.395 76.3986 100.32 75.4741 101.46 75.4741C102.601 75.4741 103.526 76.3986 103.526 77.5396V78.0903C103.526 79.2313 102.601 80.1558 101.46 80.1558Z" fill="#19303F"/>
<path d="M71.54 80.1558C70.3994 80.1558 69.4746 79.2313 69.4746 78.0903V77.5396C69.4746 76.3986 70.3994 75.4741 71.54 75.4741C72.6807 75.4741 73.6055 76.3986 73.6055 77.5396V78.0903C73.6055 79.2313 72.6807 80.1558 71.54 80.1558Z" fill="#19303F"/>
<path d="M86.5003 95.4459C82.7841 95.4459 79.301 93.6195 77.183 90.5607C76.5336 89.623 76.7674 88.3361 77.7054 87.687C78.6431 87.0377 79.9303 87.2715 80.5791 88.2092C81.9257 90.1543 84.1391 91.315 86.5003 91.315C88.8612 91.315 91.0745 90.154 92.4214 88.2092C93.0708 87.2718 94.3572 87.0371 95.2951 87.687C96.2328 88.3364 96.4669 89.623 95.8176 90.5607C93.6992 93.6198 90.2164 95.4459 86.5003 95.4459Z" fill="#19303F"/>
<path d="M136.73 93.9788L134.733 67.9244C134.707 67.5953 134.604 67.2766 134.43 66.996L128.861 57.9913L128.251 46.4447C127.35 29.373 113.252 16 96.156 16H76.8431C59.7474 16 45.6496 29.373 44.7477 46.4447L44.1377 57.9913L38.5693 66.996C38.3958 67.2769 38.292 67.5953 38.2667 67.9244L36.2692 93.9788C36.2252 94.5524 36.4226 95.1183 36.8134 95.5402C37.2042 95.9621 37.7536 96.202 38.3286 96.202H43.5789C44.3781 96.202 45.1057 95.7407 45.4469 95.0178L55.0702 74.6227L65.4149 68.8951H107.585L117.929 74.623L127.552 95.0178C127.894 95.7407 128.621 96.202 129.42 96.202H134.67C135.246 96.202 135.795 95.9621 136.186 95.5402C136.577 95.1183 136.774 94.5524 136.73 93.9788Z" fill="#468466"/>
<path d="M136.731 93.9788L134.733 67.9244C134.708 67.5953 134.604 67.2766 134.43 66.996L128.862 57.9913L128.252 46.4447C127.35 29.373 113.252 16 96.1565 16H89.5601C106.656 16 120.754 29.373 121.655 46.4447L122.266 57.9913L127.834 66.996C128.008 67.2769 128.112 67.5953 128.137 67.9244L130.134 93.9788C130.178 94.5524 129.981 95.1183 129.59 95.5402C129.358 95.7911 129.068 95.9759 128.752 96.0861C128.964 96.159 129.189 96.2023 129.421 96.2023H134.671C135.247 96.2023 135.796 95.9624 136.186 95.5405C136.577 95.1183 136.774 94.5524 136.731 93.9788Z" fill="#346349"/>
<rect x="116.742" y="134.918" width="6.43555" height="8.91406" fill="white" stroke="#0047FF"/>
<ellipse cx="119.96" cy="139.513" rx="1.51465" ry="2.61621" fill="#0047FF"/>
<path d="M118.583 139.499C118.583 139.1 118.748 138.549 119.409 138.549C120.07 138.549 120.098 139.1 120.098 139.513C120.098 139.926 120.235 140.339 120.786 140.339C121.148 140.339 121.337 140.049 121.337 139.499" stroke="#FF4242"/>
<path d="M118.583 139.513C118.583 138.732 118.837 136.896 119.96 136.896C121.062 136.896 121.337 138.641 121.337 139.65" stroke="#FF4242"/>
</g>
<defs>
<filter id="filter0_d" x="0" y="0" width="173" height="173" filterUnits="userSpaceOnUse" color-interpolation-filters="sRGB">
<feFlood flood-opacity="0" result="BackgroundImageFix"/>
<feColorMatrix in="SourceAlpha" type="matrix" values="0 0 0 0 0 0 0 0 0 0 0 0 0 0 0 0 0 0 127 0"/>
<feOffset/>
<feGaussianBlur stdDeviation="2"/>
<feColorMatrix type="matrix" values="0 0 0 0 0 0 0 0 0 0 0 0 0 0 0 0 0 0 0.09 0"/>
<feBlend mode="normal" in2="BackgroundImageFix" result="effect1_dropShadow"/>
<feBlend mode="normal" in="SourceGraphic" in2="effect1_dropShadow" result="shape"/>
</filter>
<clipPath id="clip0">
<rect width="141" height="141" fill="white" transform="translate(16 16)"/>
</clipPath>
</defs>
</svg>
