<svg width="226" height="93" viewBox="0 0 226 93" fill="none" xmlns="http://www.w3.org/2000/svg">
<g filter="url(#filter0_d)">
<rect x="21" y="20" width="180" height="47" rx="4" fill="url(#paint0_linear)"/>
</g>
<path d="M45.2534 44.32V35.62H47.7134V46.6H45.2534V46.04H42.5334V44.32H45.2534ZM39.9934 37.7C39.4868 37.7 39.0801 37.78 38.7734 37.94C38.4668 38.1 38.3134 38.3467 38.3134 38.68C38.3134 39.0133 38.4668 39.26 38.7734 39.42C39.0801 39.5667 39.4868 39.64 39.9934 39.64C40.5134 39.64 40.9201 39.5667 41.2134 39.42C41.5201 39.26 41.6734 39.0133 41.6734 38.68C41.6734 38.3467 41.5201 38.1 41.2134 37.94C40.9201 37.78 40.5134 37.7 39.9934 37.7ZM39.9934 41.44C39.3934 41.44 38.8468 41.38 38.3534 41.26C37.8601 41.1267 37.4334 40.94 37.0734 40.7C36.7268 40.46 36.4534 40.1733 36.2534 39.84C36.0668 39.4933 35.9734 39.1067 35.9734 38.68C35.9734 38.2533 36.0668 37.8733 36.2534 37.54C36.4534 37.1933 36.7268 36.9 37.0734 36.66C37.4334 36.42 37.8601 36.24 38.3534 36.12C38.8468 35.9867 39.3934 35.92 39.9934 35.92C40.5934 35.92 41.1401 35.9867 41.6334 36.12C42.1268 36.24 42.5468 36.42 42.8934 36.66C43.2534 36.9 43.5268 37.1933 43.7134 37.54C43.9134 37.8733 44.0134 38.2533 44.0134 38.68C44.0134 39.1067 43.9134 39.4933 43.7134 39.84C43.5268 40.1733 43.2534 40.46 42.8934 40.7C42.5468 40.94 42.1268 41.1267 41.6334 41.26C41.1401 41.38 40.5934 41.44 39.9934 41.44ZM38.8334 44.02C38.1934 44.0467 37.5868 44.0667 37.0134 44.08C36.4401 44.08 35.9134 44.08 35.4334 44.08L35.2134 42.12C35.8134 42.12 36.4934 42.12 37.2534 42.12C38.0268 42.1067 38.8268 42.0867 39.6534 42.06C40.4801 42.02 41.3068 41.9667 42.1334 41.9C42.9734 41.8333 43.7601 41.74 44.4934 41.62L44.6734 43.36C44.1534 43.48 43.6068 43.58 43.0334 43.66C42.4734 43.74 41.9068 43.8067 41.3334 43.86V46.52H38.8334V44.02ZM48.6534 50.38H40.7734V51.48H48.6534V50.38ZM48.6534 47.24H51.2734V53.5H38.1534V47.24H40.7734V48.44H48.6534V47.24ZM51.2734 35.3V46.64H48.7534V35.3H51.2734ZM74.7831 43.24H71.1631V47.32H74.7831V43.24ZM83.3231 35.28V53.76H80.6831V43.88H77.3831V49.42H68.5431V36.74H71.1631V41.18H74.7831V36.74H77.3831V41.76H80.6831V35.28H83.3231ZM103.822 40.06V35.3H106.462V48.74H103.822V42.2H100.942V40.06H103.822ZM100.882 46.36C99.8682 46.0267 99.0149 45.5467 98.3216 44.92C97.6282 44.2933 97.0882 43.56 96.7016 42.72C96.2882 43.64 95.7149 44.4467 94.9816 45.14C94.2616 45.8333 93.3616 46.36 92.2816 46.72L90.9616 44.62C91.7216 44.38 92.3749 44.0533 92.9216 43.64C93.4682 43.2267 93.9149 42.7667 94.2616 42.26C94.6216 41.7533 94.8816 41.2133 95.0416 40.64C95.2149 40.0667 95.3016 39.4867 95.3016 38.9V38.64H91.6816V36.54H101.582V38.64H98.0016V38.88C98.0016 39.4267 98.0816 39.9733 98.2416 40.52C98.4016 41.0533 98.6482 41.56 98.9816 42.04C99.3282 42.52 99.7616 42.96 100.282 43.36C100.815 43.7467 101.442 44.06 102.162 44.3L100.882 46.36ZM106.882 51.3V53.4H94.3216V47.62H96.9616V51.3H106.882ZM140.271 49.54V51.7H123.591V49.54H130.591V46.8H125.511V40.56H135.791V38.58H125.491V36.48H138.391V42.62H128.131V44.68H138.811V46.8H133.231V49.54H140.271ZM158.77 39.1H148.51V37H161.41V39.18C161.41 39.82 161.403 40.4667 161.39 41.12C161.39 41.7733 161.37 42.46 161.33 43.18C161.29 43.8867 161.223 44.64 161.13 45.44C161.036 46.24 160.903 47.1133 160.73 48.06L158.11 47.82C158.27 46.94 158.396 46.1133 158.49 45.34C158.583 44.5667 158.65 43.8267 158.69 43.12C158.73 42.4133 158.75 41.74 158.75 41.1C158.763 40.4467 158.77 39.8067 158.77 39.18V39.1ZM163.45 49.16V51.32H146.79V49.16H163.45ZM185.288 48.54H182.628V35.32H185.288V48.54ZM172.828 41.16C172.828 41.9067 173.061 42.4933 173.528 42.92C174.008 43.3333 174.588 43.54 175.268 43.54C175.961 43.54 176.535 43.3333 176.988 42.92C177.455 42.4933 177.688 41.9067 177.688 41.16C177.688 40.4 177.455 39.8133 176.988 39.4C176.535 38.9733 175.961 38.76 175.268 38.76C174.588 38.76 174.008 38.9733 173.528 39.4C173.061 39.8133 172.828 40.4 172.828 41.16ZM180.268 41.16C180.268 41.8267 180.141 42.4467 179.888 43.02C179.635 43.5933 179.281 44.0867 178.828 44.5C178.375 44.9133 177.841 45.24 177.228 45.48C176.628 45.7067 175.975 45.82 175.268 45.82C174.561 45.82 173.901 45.7067 173.288 45.48C172.675 45.24 172.141 44.9133 171.688 44.5C171.248 44.0867 170.895 43.5933 170.628 43.02C170.375 42.4467 170.248 41.8267 170.248 41.16C170.248 40.48 170.375 39.8533 170.628 39.28C170.895 38.7067 171.248 38.2133 171.688 37.8C172.141 37.3867 172.675 37.0667 173.288 36.84C173.901 36.6 174.561 36.48 175.268 36.48C175.975 36.48 176.628 36.6 177.228 36.84C177.841 37.0667 178.375 37.3867 178.828 37.8C179.281 38.2133 179.635 38.7067 179.888 39.28C180.141 39.8533 180.268 40.48 180.268 41.16ZM185.748 51.3V53.4H173.028V47.24H175.668V51.3H185.748Z" fill="white"/>
<defs>
<filter id="filter0_d" x="0" y="0" width="226" height="93" filterUnits="userSpaceOnUse" color-interpolation-filters="sRGB">
<feFlood flood-opacity="0" result="BackgroundImageFix"/>
<feColorMatrix in="SourceAlpha" type="matrix" values="0 0 0 0 0 0 0 0 0 0 0 0 0 0 0 0 0 0 127 0"/>
<feOffset dx="2" dy="3"/>
<feGaussianBlur stdDeviation="11.5"/>
<feColorMatrix type="matrix" values="0 0 0 0 0 0 0 0 0 0 0 0 0 0 0 0 0 0 0.33 0"/>
<feBlend mode="normal" in2="BackgroundImageFix" result="effect1_dropShadow"/>
<feBlend mode="normal" in="SourceGraphic" in2="effect1_dropShadow" result="shape"/>
</filter>
<linearGradient id="paint0_linear" x1="21" y1="20" x2="202.351" y2="61.0303" gradientUnits="userSpaceOnUse">
<stop stop-color="#64A321"/>
<stop offset="1" stop-color="#8BC940"/>
</linearGradient>
</defs>
</svg>
