<svg width="180" height="47" viewBox="0 0 180 47" fill="none" xmlns="http://www.w3.org/2000/svg">
<rect width="180" height="47" rx="4" fill="url(#paint0_linear)"/>
<path d="M24.2534 24.32V15.62H26.7134V26.6H24.2534V26.04H21.5334V24.32H24.2534ZM18.9934 17.7C18.4868 17.7 18.0801 17.78 17.7734 17.94C17.4668 18.1 17.3134 18.3467 17.3134 18.68C17.3134 19.0133 17.4668 19.26 17.7734 19.42C18.0801 19.5667 18.4868 19.64 18.9934 19.64C19.5134 19.64 19.9201 19.5667 20.2134 19.42C20.5201 19.26 20.6734 19.0133 20.6734 18.68C20.6734 18.3467 20.5201 18.1 20.2134 17.94C19.9201 17.78 19.5134 17.7 18.9934 17.7ZM18.9934 21.44C18.3934 21.44 17.8468 21.38 17.3534 21.26C16.8601 21.1267 16.4334 20.94 16.0734 20.7C15.7268 20.46 15.4534 20.1733 15.2534 19.84C15.0668 19.4933 14.9734 19.1067 14.9734 18.68C14.9734 18.2533 15.0668 17.8733 15.2534 17.54C15.4534 17.1933 15.7268 16.9 16.0734 16.66C16.4334 16.42 16.8601 16.24 17.3534 16.12C17.8468 15.9867 18.3934 15.92 18.9934 15.92C19.5934 15.92 20.1401 15.9867 20.6334 16.12C21.1268 16.24 21.5468 16.42 21.8934 16.66C22.2534 16.9 22.5268 17.1933 22.7134 17.54C22.9134 17.8733 23.0134 18.2533 23.0134 18.68C23.0134 19.1067 22.9134 19.4933 22.7134 19.84C22.5268 20.1733 22.2534 20.46 21.8934 20.7C21.5468 20.94 21.1268 21.1267 20.6334 21.26C20.1401 21.38 19.5934 21.44 18.9934 21.44ZM17.8334 24.02C17.1934 24.0467 16.5868 24.0667 16.0134 24.08C15.4401 24.08 14.9134 24.08 14.4334 24.08L14.2134 22.12C14.8134 22.12 15.4934 22.12 16.2534 22.12C17.0268 22.1067 17.8268 22.0867 18.6534 22.06C19.4801 22.02 20.3068 21.9667 21.1334 21.9C21.9734 21.8333 22.7601 21.74 23.4934 21.62L23.6734 23.36C23.1534 23.48 22.6068 23.58 22.0334 23.66C21.4734 23.74 20.9068 23.8067 20.3334 23.86V26.52H17.8334V24.02ZM27.6534 30.38H19.7734V31.48H27.6534V30.38ZM27.6534 27.24H30.2734V33.5H17.1534V27.24H19.7734V28.44H27.6534V27.24ZM30.2734 15.3V26.64H27.7534V15.3H30.2734ZM53.7831 23.24H50.1631V27.32H53.7831V23.24ZM62.3231 15.28V33.76H59.6831V23.88H56.3831V29.42H47.5431V16.74H50.1631V21.18H53.7831V16.74H56.3831V21.76H59.6831V15.28H62.3231ZM82.8216 20.06V15.3H85.4616V28.74H82.8216V22.2H79.9416V20.06H82.8216ZM79.8816 26.36C78.8682 26.0267 78.0149 25.5467 77.3216 24.92C76.6282 24.2933 76.0882 23.56 75.7016 22.72C75.2882 23.64 74.7149 24.4467 73.9816 25.14C73.2616 25.8333 72.3616 26.36 71.2816 26.72L69.9616 24.62C70.7216 24.38 71.3749 24.0533 71.9216 23.64C72.4682 23.2267 72.9149 22.7667 73.2616 22.26C73.6216 21.7533 73.8816 21.2133 74.0416 20.64C74.2149 20.0667 74.3016 19.4867 74.3016 18.9V18.64H70.6816V16.54H80.5816V18.64H77.0016V18.88C77.0016 19.4267 77.0816 19.9733 77.2416 20.52C77.4016 21.0533 77.6482 21.56 77.9816 22.04C78.3282 22.52 78.7616 22.96 79.2816 23.36C79.8149 23.7467 80.4416 24.06 81.1616 24.3L79.8816 26.36ZM85.8816 31.3V33.4H73.3216V27.62H75.9616V31.3H85.8816ZM119.271 29.54V31.7H102.591V29.54H109.591V26.8H104.511V20.56H114.791V18.58H104.491V16.48H117.391V22.62H107.131V24.68H117.811V26.8H112.231V29.54H119.271ZM137.77 19.1H127.51V17H140.41V19.18C140.41 19.82 140.403 20.4667 140.39 21.12C140.39 21.7733 140.37 22.46 140.33 23.18C140.29 23.8867 140.223 24.64 140.13 25.44C140.036 26.24 139.903 27.1133 139.73 28.06L137.11 27.82C137.27 26.94 137.396 26.1133 137.49 25.34C137.583 24.5667 137.65 23.8267 137.69 23.12C137.73 22.4133 137.75 21.74 137.75 21.1C137.763 20.4467 137.77 19.8067 137.77 19.18V19.1ZM142.45 29.16V31.32H125.79V29.16H142.45ZM164.288 28.54H161.628V15.32H164.288V28.54ZM151.828 21.16C151.828 21.9067 152.061 22.4933 152.528 22.92C153.008 23.3333 153.588 23.54 154.268 23.54C154.961 23.54 155.535 23.3333 155.988 22.92C156.455 22.4933 156.688 21.9067 156.688 21.16C156.688 20.4 156.455 19.8133 155.988 19.4C155.535 18.9733 154.961 18.76 154.268 18.76C153.588 18.76 153.008 18.9733 152.528 19.4C152.061 19.8133 151.828 20.4 151.828 21.16ZM159.268 21.16C159.268 21.8267 159.141 22.4467 158.888 23.02C158.635 23.5933 158.281 24.0867 157.828 24.5C157.375 24.9133 156.841 25.24 156.228 25.48C155.628 25.7067 154.975 25.82 154.268 25.82C153.561 25.82 152.901 25.7067 152.288 25.48C151.675 25.24 151.141 24.9133 150.688 24.5C150.248 24.0867 149.895 23.5933 149.628 23.02C149.375 22.4467 149.248 21.8267 149.248 21.16C149.248 20.48 149.375 19.8533 149.628 19.28C149.895 18.7067 150.248 18.2133 150.688 17.8C151.141 17.3867 151.675 17.0667 152.288 16.84C152.901 16.6 153.561 16.48 154.268 16.48C154.975 16.48 155.628 16.6 156.228 16.84C156.841 17.0667 157.375 17.3867 157.828 17.8C158.281 18.2133 158.635 18.7067 158.888 19.28C159.141 19.8533 159.268 20.48 159.268 21.16ZM164.748 31.3V33.4H152.028V27.24H154.668V31.3H164.748Z" fill="white"/>
<defs>
<linearGradient id="paint0_linear" x1="0" y1="0" x2="181.351" y2="41.0303" gradientUnits="userSpaceOnUse">
<stop stop-color="#64A321"/>
<stop offset="1" stop-color="#8BC940"/>
</linearGradient>
</defs>
</svg>
